SplineFontDB: 3.0
FontName: Play-Regular
FullName: Play Regular
FamilyName: Play
Weight: Regular
Copyright: Copyright (c) 2011, Jonas Hecksher, Playtypes, e-types AS. This Font Software is licensed under the SIL Open Font License, Version 1.1. This license is available with a FAQ at: http://scripts.sil.org/OFL
Version: 001.001
ItalicAngle: 0
UnderlinePosition: -50
UnderlineWidth: 50
Ascent: 800
Descent: 200
LayerCount: 2
Layer: 0 1 "Back"  1
Layer: 1 1 "Fore"  0
XUID: [1021 884 780063683 13890653]
FSType: 0
OS2Version: 2
OS2_WeightWidthSlopeOnly: 0
OS2_UseTypoMetrics: 1
CreationTime: 1299168461
ModificationTime: 1321910969
PfmFamily: 33
TTFWeight: 400
TTFWidth: 5
LineGap: 0
VLineGap: 0
Panose: 2 11 0 0 0 0 0 0 0 0
OS2TypoAscent: 937
OS2TypoAOffset: 0
OS2TypoDescent: 220
OS2TypoDOffset: 0
OS2TypoLinegap: 0
OS2WinAscent: 937
OS2WinAOffset: 0
OS2WinDescent: 220
OS2WinDOffset: 0
HheadAscent: 937
HheadAOffset: 0
HheadDescent: 220
HheadDOffset: 0
OS2SubXSize: 700
OS2SubYSize: 650
OS2SubXOff: 0
OS2SubYOff: 140
OS2SupXSize: 700
OS2SupYSize: 650
OS2SupXOff: 0
OS2SupYOff: 477
OS2StrikeYSize: 50
OS2StrikeYPos: 250
OS2FamilyClass: 2054
OS2Vendor: 'PT  '
OS2CodePages: 2000009f.00000000
OS2UnicodeRanges: a00002af.4000205b.00000000.00000000
Lookup: 1 0 0 "'aalt' Access All Alternates in Latin lookup 0"  {"'aalt' Access All Alternates in Latin lookup 0 subtable"  } ['aalt' ('latn' <'dflt' > ) ]
Lookup: 3 0 0 "'aalt' Access All Alternates in Latin lookup 1"  {"'aalt' Access All Alternates in Latin lookup 1 subtable"  } ['aalt' ('latn' <'dflt' > ) ]
Lookup: 1 0 0 "'ss03' Style Set 3 in Latin lookup 2"  {"'ss03' Style Set 3 in Latin lookup 2 subtable"  } ['ss03' ('latn' <'dflt' > ) ]
Lookup: 1 0 0 "'ss02' Style Set 2 in Latin lookup 3"  {"'ss02' Style Set 2 in Latin lookup 3 subtable"  } ['ss02' ('latn' <'dflt' > ) ]
Lookup: 1 0 0 "'ss01' Style Set 1 in Latin lookup 4"  {"'ss01' Style Set 1 in Latin lookup 4 subtable"  } ['ss01' ('latn' <'dflt' > ) ]

StartChar: exclam
Encoding: 33 33 1
Width: 280
Flags: MW
HStem: 0 21G<82 198 82 82> 629 20G<80 200 200 200>
LayerCount: 2
Fore
SplineSet
200 649 m 1,0,-1
 165 179 l 1,1,-1
 115 179 l 1,2,-1
 80 649 l 1,3,-1
 200 649 l 1,0,-1
198 0 m 1,4,-1
 82 0 l 1,5,-1
 82 108 l 1,6,-1
 198 108 l 1,7,-1
 198 0 l 1,4,-1
EndSplineSet
Substitution2: "'smcp' Lowercase to Small Capitals in Latin lookup 21 subtable" exclam.smcp
Substitution2: "'c2sc' Capitals to Small Capitals in Latin lookup 20 subtable" exclam.smcp
EndChar

StartChar: quotedbl
Encoding: 34 34 2
Width: 443
Flags: MW
HStem: 429 21G<85 171 85 85 272 272 272 358> 629 20G<85 171 171 171 272 358 358 358>
LayerCount: 2
Fore
SplineSet
171 429 m 1,0,-1
 85 429 l 1,1,-1
 85 649 l 1,2,-1
 171 649 l 1,3,-1
 171 429 l 1,0,-1
358 429 m 1,4,-1
 272 429 l 1,5,-1
 272 649 l 1,6,-1
 358 649 l 1,7,-1
 358 429 l 1,4,-1
EndSplineSet
EndChar

StartChar: numbersign
Encoding: 35 35 3
Width: 580
Flags: MW
HStem: 0 21G<119 185 119 119 269 335 269 269> 199 62<60 158 60 170 236 308 60 224 386 520> 388 62<60 196 60 208 274 346 60 261 424 520> 619 20G<245 311 311 311 395 461 461 461>
LayerCount: 2
Fore
SplineSet
236 261 m 1,0,-1
 320 261 l 1,1,-1
 346 388 l 1,2,-1
 261 388 l 1,3,-1
 236 261 l 1,0,-1
520 199 m 1,4,-1
 374 199 l 1,5,-1
 335 0 l 1,6,-1
 269 0 l 1,7,-1
 308 199 l 1,8,-1
 224 199 l 1,9,-1
 185 0 l 1,10,-1
 119 0 l 1,11,-1
 158 199 l 1,12,-1
 60 199 l 1,13,-1
 60 261 l 1,14,-1
 170 261 l 1,15,-1
 196 388 l 1,16,-1
 60 388 l 1,17,-1
 60 450 l 1,18,-1
 208 450 l 1,19,-1
 245 639 l 1,20,-1
 311 639 l 1,21,-1
 274 450 l 1,22,-1
 358 450 l 1,23,-1
 395 639 l 1,24,-1
 461 639 l 1,25,-1
 424 450 l 1,26,-1
 520 450 l 1,27,-1
 520 388 l 1,28,-1
 411 388 l 1,29,-1
 386 261 l 1,30,-1
 520 261 l 1,31,-1
 520 199 l 1,4,-1
EndSplineSet
EndChar

StartChar: dollar
Encoding: 36 36 4
Width: 580
Flags: MW
HStem: -140 21G<264 321 264 264> -10 21G<233 264> 689 20G<264 321 321 321>
VStem: 264 57<-140 -10 -10 -10 64 290 362 571 571 571 639 709>
LayerCount: 2
Fore
SplineSet
321 290 m 1,0,-1
 321 64 l 1,1,2
 373 67 373 67 401 84 c 128,-1,3
 429 101 429 101 429 140 c 2,4,-1
 429 214 l 2,5,6
 429 255 429 255 405.5 272.5 c 128,-1,7
 382 290 382 290 321 290 c 1,0,-1
264 362 m 1,8,-1
 264 571 l 1,9,10
 198 567 198 567 176 548.5 c 128,-1,11
 154 530 154 530 154 491 c 2,12,-1
 154 427 l 2,13,14
 154 393 154 393 178.5 377.5 c 128,-1,15
 203 362 203 362 264 362 c 1,8,-1
321 -140 m 1,16,-1
 264 -140 l 1,17,-1
 264 -10 l 1,18,19
 191 -10 191 -10 73 6 c 1,20,-1
 73 85 l 1,21,22
 74 85 74 85 109 78 c 128,-1,23
 144 71 144 71 157.5 69.5 c 128,-1,24
 171 68 171 68 202.5 65 c 128,-1,25
 234 62 234 62 264 62 c 1,26,-1
 264 290 l 1,27,-1
 235 290 l 2,28,29
 137 290 137 290 98.5 329.5 c 128,-1,30
 60 369 60 369 60 446 c 2,31,-1
 60 488 l 2,32,33
 60 558 60 558 104.5 595 c 128,-1,34
 149 632 149 632 264 638 c 1,35,-1
 264 709 l 1,36,-1
 321 709 l 1,37,-1
 321 639 l 1,38,39
 387 639 387 639 482 628 c 1,40,-1
 482 557 l 1,41,42
 359 571 359 571 321 572 c 1,43,-1
 321 362 l 1,44,-1
 351 362 l 2,45,46
 452 362 452 362 488 325.5 c 128,-1,47
 524 289 524 289 524 210 c 2,48,-1
 524 173 l 2,49,50
 524 80 524 80 473.5 39 c 128,-1,51
 423 -2 423 -2 321 -8 c 1,52,-1
 321 -140 l 1,16,-1
EndSplineSet
Substitution2: "'smcp' Lowercase to Small Capitals in Latin lookup 21 subtable" dollar.smcp
Substitution2: "'c2sc' Capitals to Small Capitals in Latin lookup 20 subtable" dollar.smcp
EndChar

StartChar: percent
Encoding: 37 37 5
Width: 855
Flags: MW
HStem: -10 21G<231 308 231 231 611.5 692> 629 20G<164 244> 640 20G<555 632 632 632>
LayerCount: 2
Fore
SplineSet
361 537 m 2,0,-1
 361 412 l 2,1,2
 361 379 361 379 348.5 358 c 128,-1,3
 336 337 336 337 311.5 328 c 128,-1,4
 287 319 287 319 263.5 316 c 128,-1,5
 240 313 240 313 204 313 c 128,-1,6
 168 313 168 313 144.5 316 c 128,-1,7
 121 319 121 319 96 328 c 128,-1,8
 71 337 71 337 58.5 358 c 128,-1,9
 46 379 46 379 46 412 c 2,10,-1
 46 537 l 2,11,12
 46 604 46 604 88.5 626.5 c 128,-1,13
 131 649 131 649 204 649 c 128,-1,14
 277 649 277 649 319 626.5 c 128,-1,15
 361 604 361 604 361 537 c 2,0,-1
283 416 m 2,16,-1
 283 541 l 2,17,18
 283 577 283 577 264.5 587 c 128,-1,19
 246 597 246 597 204 597 c 0,20,21
 161 597 161 597 142.5 587 c 128,-1,22
 124 577 124 577 124 541 c 2,23,-1
 124 416 l 2,24,25
 124 384 124 384 143 374.5 c 128,-1,26
 162 365 162 365 204 365 c 128,-1,27
 246 365 246 365 264.5 374.5 c 128,-1,28
 283 384 283 384 283 416 c 2,16,-1
632 660 m 1,29,-1
 308 -10 l 1,30,-1
 231 -10 l 1,31,-1
 555 660 l 1,32,-1
 632 660 l 1,29,-1
809 214 m 2,33,-1
 809 89 l 2,34,35
 809 56 809 56 796.5 35 c 128,-1,36
 784 14 784 14 759.5 5 c 128,-1,37
 735 -4 735 -4 711.5 -7 c 128,-1,38
 688 -10 688 -10 652 -10 c 128,-1,39
 616 -10 616 -10 592.5 -7 c 128,-1,40
 569 -4 569 -4 544 5 c 128,-1,41
 519 14 519 14 506.5 35 c 128,-1,42
 494 56 494 56 494 89 c 2,43,-1
 494 214 l 2,44,45
 494 281 494 281 536.5 303.5 c 128,-1,46
 579 326 579 326 652 326 c 128,-1,47
 725 326 725 326 767 303.5 c 128,-1,48
 809 281 809 281 809 214 c 2,33,-1
731 93 m 2,49,-1
 731 218 l 2,50,51
 731 254 731 254 712.5 264 c 128,-1,52
 694 274 694 274 652 274 c 0,53,54
 609 274 609 274 590.5 264 c 128,-1,55
 572 254 572 254 572 218 c 2,56,-1
 572 93 l 2,57,58
 572 61 572 61 591 51.5 c 128,-1,59
 610 42 610 42 652 42 c 128,-1,60
 694 42 694 42 712.5 51.5 c 128,-1,61
 731 61 731 61 731 93 c 2,49,-1
EndSplineSet
Substitution2: "'smcp' Lowercase to Small Capitals in Latin lookup 21 subtable" percent.smcp
Substitution2: "'c2sc' Capitals to Small Capitals in Latin lookup 20 subtable" percent.smcp
EndChar

StartChar: ampersand
Encoding: 38 38 6
Width: 636
Flags: MW
HStem: -10 62<285 296 296 318.5> 0 21G<533.5 546 546 610> 640 20G<237 319.5>
LayerCount: 2
Fore
SplineSet
235 310 m 1,0,-1
 200 295 l 2,1,2
 179 285 179 285 166.5 264.5 c 128,-1,3
 154 244 154 244 154 223 c 2,4,-1
 154 101 l 2,5,6
 154 52 154 52 285 52 c 2,7,-1
 296 52 l 2,8,9
 393 52 393 52 428 80 c 1,10,-1
 235 310 l 1,0,-1
545 209 m 2,11,12
 545 141 545 141 524 97 c 1,13,14
 564 59 564 59 584 59 c 2,15,-1
 610 59 l 1,16,-1
 610 0 l 1,17,-1
 546 0 l 2,18,19
 512 0 512 0 473 34 c 1,20,21
 410 -10 410 -10 278 -10 c 0,22,23
 60 -10 60 -10 60 105 c 2,24,-1
 60 214 l 2,25,26
 60 290 60 290 152 331 c 1,27,-1
 199 353 l 1,28,-1
 160 399 l 2,29,30
 129 435 129 435 129 468 c 2,31,-1
 129 565 l 2,32,33
 129 660 129 660 295 660 c 0,34,35
 362 660 362 660 431 645 c 1,36,-1
 431 572 l 1,37,38
 356 597 356 597 293 597 c 0,39,40
 250 597 250 597 232 588 c 128,-1,41
 214 579 214 579 214 557 c 2,42,-1
 214 483 l 2,43,44
 214 468 214 468 224 456 c 2,45,-1
 466 163 l 1,46,47
 469 181 469 181 469 205 c 2,48,-1
 469 301 l 1,49,-1
 545 301 l 1,50,-1
 545 209 l 2,11,12
EndSplineSet
Substitution2: "'smcp' Lowercase to Small Capitals in Latin lookup 21 subtable" ampersand.smcp
Substitution2: "'c2sc' Capitals to Small Capitals in Latin lookup 20 subtable" ampersand.smcp
Substitution2: "'ss01' Style Set 1 in Latin lookup 4 subtable" ampersand.alt
Substitution2: "'ss03' Style Set 3 in Latin lookup 2 subtable" ampersand.alt
EndChar

StartChar: quotesingle
Encoding: 39 39 7
Width: 256
Flags: MW
HStem: 429 21G<85 171 85 85> 629 20G<85 171 171 171>
LayerCount: 2
Fore
SplineSet
171 429 m 1,0,-1
 85 429 l 1,1,-1
 85 649 l 1,2,-1
 171 649 l 1,3,-1
 171 429 l 1,0,-1
EndSplineSet
EndChar

StartChar: parenleft
Encoding: 40 40 8
Width: 331
Flags: MW
HStem: -127 21G<224 305 224 224> 659 20G<224 305 305 305>
LayerCount: 2
Fore
SplineSet
305 -127 m 1,0,-1
 224 -127 l 1,1,2
 79 89 79 89 79 276 c 0,3,4
 79 382 79 382 116.5 476.5 c 128,-1,5
 154 571 154 571 224 679 c 1,6,-1
 305 679 l 1,7,8
 239 564 239 564 202.5 469 c 128,-1,9
 166 374 166 374 166 276 c 0,10,11
 166 177 166 177 203 80 c 128,-1,12
 240 -17 240 -17 305 -127 c 1,0,-1
EndSplineSet
Substitution2: "'smcp' Lowercase to Small Capitals in Latin lookup 21 subtable" parenleft.smcp
Substitution2: "'c2sc' Capitals to Small Capitals in Latin lookup 20 subtable" parenleft.smcp
EndChar

StartChar: parenright
Encoding: 41 41 9
Width: 331
Flags: MW
HStem: -127 21G<26 107 26 26> 659 20G<26 107 107 107>
LayerCount: 2
Fore
SplineSet
252 276 m 0,0,1
 252 89 252 89 107 -127 c 1,2,-1
 26 -127 l 1,3,4
 91 -17 91 -17 128 80 c 128,-1,5
 165 177 165 177 165 276 c 0,6,7
 165 373 165 373 128.5 467 c 128,-1,8
 92 561 92 561 26 679 c 1,9,-1
 107 679 l 1,10,11
 177 571 177 571 214.5 476.5 c 128,-1,12
 252 382 252 382 252 276 c 0,0,1
EndSplineSet
Substitution2: "'smcp' Lowercase to Small Capitals in Latin lookup 21 subtable" parenright.smcp
Substitution2: "'c2sc' Capitals to Small Capitals in Latin lookup 20 subtable" parenright.smcp
EndChar

StartChar: asterisk
Encoding: 42 42 10
Width: 398
Flags: MW
HStem: 320 21G<129 129 268 268> 629 20G<165 238 238 238>
LayerCount: 2
Fore
SplineSet
372 496 m 1,0,-1
 238 467 l 1,1,-1
 329 361 l 1,2,-1
 268 320 l 1,3,-1
 199 439 l 1,4,-1
 129 320 l 1,5,-1
 69 361 l 1,6,-1
 163 467 l 1,7,-1
 26 496 l 1,8,-1
 49 565 l 1,9,-1
 178 511 l 1,10,-1
 165 649 l 1,11,-1
 238 649 l 1,12,-1
 225 511 l 1,13,-1
 350 565 l 1,14,-1
 372 496 l 1,0,-1
EndSplineSet
Substitution2: "'smcp' Lowercase to Small Capitals in Latin lookup 21 subtable" asterisk.smcp
Substitution2: "'c2sc' Capitals to Small Capitals in Latin lookup 20 subtable" asterisk.smcp
EndChar

StartChar: plus
Encoding: 43 43 11
Width: 500
Flags: MW
HStem: 115 21G<216 283 216 216> 495 20G<216 283 283 283>
LayerCount: 2
Fore
SplineSet
283 515 m 1,0,-1
 283 349 l 1,1,-1
 440 349 l 1,2,-1
 440 282 l 1,3,-1
 283 282 l 1,4,-1
 283 115 l 1,5,-1
 216 115 l 1,6,-1
 216 282 l 1,7,-1
 60 282 l 1,8,-1
 60 349 l 1,9,-1
 216 349 l 1,10,-1
 216 515 l 1,11,-1
 283 515 l 1,0,-1
EndSplineSet
EndChar

StartChar: comma
Encoding: 44 44 12
Width: 256
Flags: MW
HStem: -112 21G<39 97 39 39> 88 20G<85 191 191 191>
LayerCount: 2
Fore
SplineSet
191 108 m 1,0,-1
 97 -112 l 1,1,-1
 39 -112 l 1,2,-1
 85 108 l 1,3,-1
 191 108 l 1,0,-1
EndSplineSet
EndChar

StartChar: hyphen
Encoding: 45 45 13
Width: 358
Flags: MW
HStem: 250 21G<40 318 40 40> 302 20G<40 318 318 318>
LayerCount: 2
Fore
SplineSet
318 250 m 1,0,-1
 40 250 l 1,1,-1
 40 322 l 1,2,-1
 318 322 l 1,3,-1
 318 250 l 1,0,-1
EndSplineSet
Substitution2: "'ss03' Style Set 3 in Latin lookup 2 subtable" hyphen.alt
EndChar

StartChar: period
Encoding: 46 46 14
Width: 256
Flags: MW
HStem: 0 21G<70 186 70 70> 88 20G<70 186 186 186>
LayerCount: 2
Fore
SplineSet
186 0 m 1,0,-1
 70 0 l 1,1,-1
 70 108 l 1,2,-1
 186 108 l 1,3,-1
 186 0 l 1,0,-1
EndSplineSet
EndChar

StartChar: slash
Encoding: 47 47 15
Width: 421
Flags: MW
HStem: -10 21G<10 87 10 10> 640 20G<334 411 411 411>
LayerCount: 2
Fore
SplineSet
411 660 m 1,0,-1
 87 -10 l 1,1,-1
 10 -10 l 1,2,-1
 334 660 l 1,3,-1
 411 660 l 1,0,-1
EndSplineSet
Substitution2: "'smcp' Lowercase to Small Capitals in Latin lookup 21 subtable" slash.smcp
Substitution2: "'c2sc' Capitals to Small Capitals in Latin lookup 20 subtable" slash.smcp
Substitution2: "'frac' Diagonal Fractions in Latin lookup 13 subtable" fraction
Substitution2: "'aalt' Access All Alternates in Latin lookup 0 subtable" fraction
EndChar

StartChar: zero
Encoding: 48 48 16
Width: 580
Flags: MW
HStem: -10 59<246.5 335.5 246.5 346.5> 601 59<244.5 334>
LayerCount: 2
Fore
SplineSet
519 485 m 2,0,-1
 519 156 l 2,1,2
 519 113 519 113 505.5 81.5 c 128,-1,3
 492 50 492 50 471.5 32.5 c 128,-1,4
 451 15 451 15 419 5 c 128,-1,5
 387 -5 387 -5 358 -7.5 c 128,-1,6
 329 -10 329 -10 289 -10 c 0,7,8
 248 -10 248 -10 219.5 -7.5 c 128,-1,9
 191 -5 191 -5 158.5 4.5 c 128,-1,10
 126 14 126 14 106.5 31.5 c 128,-1,11
 87 49 87 49 74 80.5 c 128,-1,12
 61 112 61 112 61 156 c 2,13,-1
 61 484 l 2,14,15
 61 531 61 531 74.5 564.5 c 128,-1,16
 88 598 88 598 108 616.5 c 128,-1,17
 128 635 128 635 161 645 c 128,-1,18
 194 655 194 655 221.5 657.5 c 128,-1,19
 249 660 249 660 289 660 c 0,20,21
 330 660 330 660 358 657.5 c 128,-1,22
 386 655 386 655 419 645 c 128,-1,23
 452 635 452 635 472 617 c 128,-1,24
 492 599 492 599 505.5 565.5 c 128,-1,25
 519 532 519 532 519 485 c 2,0,-1
428 151 m 2,26,-1
 428 491 l 2,27,28
 428 562 428 562 396.5 581.5 c 128,-1,29
 365 601 365 601 290 601 c 0,30,31
 213 601 213 601 182.5 581.5 c 128,-1,32
 152 562 152 562 152 491 c 2,33,-1
 152 151 l 2,34,35
 152 86 152 86 184 67.5 c 128,-1,36
 216 49 216 49 291 49 c 128,-1,37
 366 49 366 49 397 67.5 c 128,-1,38
 428 86 428 86 428 151 c 2,26,-1
EndSplineSet
Substitution2: "'smcp' Lowercase to Small Capitals in Latin lookup 21 subtable" zero.tscf
Substitution2: "'c2sc' Capitals to Small Capitals in Latin lookup 20 subtable" zero.tscf
Substitution2: "'onum' Oldstyle Figures in Latin lookup 17 subtable" zero.tosf
Substitution2: "'frac' Diagonal Fractions in Latin lookup 15 subtable" zerosuperior
Substitution2: "'subs' Subscript in Latin lookup 12 subtable" zero.sinf
Substitution2: "'sups' Superscript in Latin lookup 11 subtable" zero.sups
Substitution2: "'dnom' Denominators in Latin lookup 10 subtable" zeroinferior
Substitution2: "'numr' Numerators in Latin lookup 9 subtable" zerosuperior
Substitution2: "'pnum' Proportional Numbers in Latin lookup 7 subtable" zero.alt
AlternateSubs2: "'aalt' Access All Alternates in Latin lookup 1 subtable" zero.alt zerosuperior zeroinferior zero.sups zero.sinf zero.tosf
EndChar

StartChar: one
Encoding: 49 49 17
Width: 580
Flags: MW
HStem: 0 21G<319 406 319 319> 629 20G<320 406 406 406>
LayerCount: 2
Fore
SplineSet
406 0 m 1,0,-1
 319 0 l 1,1,-1
 319 559 l 1,2,-1
 122 430 l 1,3,-1
 122 512 l 1,4,-1
 320 649 l 1,5,-1
 406 649 l 1,6,-1
 406 0 l 1,0,-1
EndSplineSet
Substitution2: "'smcp' Lowercase to Small Capitals in Latin lookup 21 subtable" one.tscf
Substitution2: "'c2sc' Capitals to Small Capitals in Latin lookup 20 subtable" one.tscf
Substitution2: "'onum' Oldstyle Figures in Latin lookup 17 subtable" one.tosf
Substitution2: "'frac' Diagonal Fractions in Latin lookup 15 subtable" onesuperior
Substitution2: "'subs' Subscript in Latin lookup 12 subtable" one.sinf
Substitution2: "'sups' Superscript in Latin lookup 11 subtable" one.sups
Substitution2: "'dnom' Denominators in Latin lookup 10 subtable" oneinferior
Substitution2: "'numr' Numerators in Latin lookup 9 subtable" onesuperior
Substitution2: "'pnum' Proportional Numbers in Latin lookup 7 subtable" one.alt
AlternateSubs2: "'aalt' Access All Alternates in Latin lookup 1 subtable" one.alt onesuperior oneinferior one.sups one.sinf one.tosf
EndChar

StartChar: two
Encoding: 50 50 18
Width: 580
Flags: MW
HStem: 0 21G<72 508 72 72> 640 20G<263.5 374>
LayerCount: 2
Fore
SplineSet
508 0 m 1,0,-1
 72 0 l 1,1,-1
 72 116 l 2,2,3
 72 145 72 145 82 169.5 c 128,-1,4
 92 194 92 194 105.5 210 c 128,-1,5
 119 226 119 226 145 242.5 c 128,-1,6
 171 259 171 259 188.5 268 c 128,-1,7
 206 277 206 277 239 291 c 2,8,-1
 347 339 l 2,9,10
 411 368 411 368 411 426 c 2,11,-1
 411 515 l 2,12,13
 411 562 411 562 381.5 577 c 128,-1,14
 352 592 352 592 285 592 c 0,15,16
 216 592 216 592 95 571 c 1,17,-1
 95 641 l 1,18,19
 199 660 199 660 304 660 c 0,20,21
 411 660 411 660 459.5 628 c 128,-1,22
 508 596 508 596 508 519 c 2,23,-1
 508 413 l 2,24,25
 508 359 508 359 480 331 c 128,-1,26
 452 303 452 303 380 270 c 2,27,-1
 230 201 l 2,28,29
 164 171 164 171 164 113 c 2,30,-1
 164 70 l 1,31,-1
 508 70 l 1,32,-1
 508 0 l 1,0,-1
EndSplineSet
Substitution2: "'smcp' Lowercase to Small Capitals in Latin lookup 21 subtable" two.tscf
Substitution2: "'c2sc' Capitals to Small Capitals in Latin lookup 20 subtable" two.tscf
Substitution2: "'onum' Oldstyle Figures in Latin lookup 17 subtable" two.tosf
Substitution2: "'frac' Diagonal Fractions in Latin lookup 15 subtable" twosuperior
Substitution2: "'subs' Subscript in Latin lookup 12 subtable" two.sinf
Substitution2: "'sups' Superscript in Latin lookup 11 subtable" two.sups
Substitution2: "'dnom' Denominators in Latin lookup 10 subtable" twoinferior
Substitution2: "'numr' Numerators in Latin lookup 9 subtable" twosuperior
Substitution2: "'pnum' Proportional Numbers in Latin lookup 7 subtable" two.alt
AlternateSubs2: "'aalt' Access All Alternates in Latin lookup 1 subtable" two.alt twosuperior twoinferior two.sups two.sinf two.tosf
EndChar

StartChar: three
Encoding: 51 51 19
Width: 580
Flags: MW
HStem: -10 21G<230.5 318> 304 62<160 268 268 285 160 268> 597 62<241.5 295>
LayerCount: 2
Fore
SplineSet
503 259 m 2,0,-1
 503 129 l 2,1,2
 503 93 503 93 487.5 66.5 c 128,-1,3
 472 40 472 40 450 25.5 c 128,-1,4
 428 11 428 11 394 2.5 c 128,-1,5
 360 -6 360 -6 331.5 -8 c 128,-1,6
 303 -10 303 -10 266 -10 c 0,7,8
 185 -10 185 -10 77 9 c 1,9,-1
 77 81 l 1,10,11
 198 56 198 56 276 56 c 0,12,13
 409 56 409 56 409 131 c 2,14,-1
 409 242 l 2,15,16
 409 263 409 263 397.5 276.5 c 128,-1,17
 386 290 386 290 364.5 295.5 c 128,-1,18
 343 301 343 301 326 302.5 c 128,-1,19
 309 304 309 304 285 304 c 2,20,-1
 160 304 l 1,21,-1
 160 366 l 1,22,-1
 268 366 l 2,23,24
 292 366 292 366 308.5 367.5 c 128,-1,25
 325 369 325 369 347 374.5 c 128,-1,26
 369 380 369 380 381 394 c 128,-1,27
 393 408 393 408 393 430 c 2,28,-1
 393 546 l 2,29,30
 393 597 393 597 273 597 c 0,31,32
 196 597 196 597 90 581 c 1,33,-1
 90 650 l 1,34,35
 176 659 176 659 272 659 c 0,36,37
 380 659 380 659 432 635.5 c 128,-1,38
 484 612 484 612 484 551 c 2,39,-1
 484 426 l 2,40,41
 484 393 484 393 458 373.5 c 128,-1,42
 432 354 432 354 395 348 c 1,43,-1
 395 344 l 1,44,45
 418 340 418 340 434 335.5 c 128,-1,46
 450 331 450 331 467.5 322 c 128,-1,47
 485 313 485 313 494 297 c 128,-1,48
 503 281 503 281 503 259 c 2,0,-1
EndSplineSet
Substitution2: "'smcp' Lowercase to Small Capitals in Latin lookup 21 subtable" three.tscf
Substitution2: "'c2sc' Capitals to Small Capitals in Latin lookup 20 subtable" three.tscf
Substitution2: "'onum' Oldstyle Figures in Latin lookup 17 subtable" three.tosf
Substitution2: "'frac' Diagonal Fractions in Latin lookup 15 subtable" threesuperior
Substitution2: "'subs' Subscript in Latin lookup 12 subtable" three.sinf
Substitution2: "'sups' Superscript in Latin lookup 11 subtable" three.sups
Substitution2: "'dnom' Denominators in Latin lookup 10 subtable" threeinferior
Substitution2: "'numr' Numerators in Latin lookup 9 subtable" threesuperior
Substitution2: "'pnum' Proportional Numbers in Latin lookup 7 subtable" three.alt
AlternateSubs2: "'aalt' Access All Alternates in Latin lookup 1 subtable" three.alt threesuperior threeinferior three.sups three.sinf three.tosf
EndChar

StartChar: four
Encoding: 52 52 20
Width: 580
Flags: MW
HStem: 0 21G<375 458 375 375> 629 20G<346 458 458 458>
LayerCount: 2
Fore
SplineSet
528 142 m 1,0,-1
 458 142 l 1,1,-1
 458 0 l 1,2,-1
 375 0 l 1,3,-1
 375 142 l 1,4,-1
 52 142 l 1,5,-1
 52 221 l 1,6,-1
 346 649 l 1,7,-1
 458 649 l 1,8,-1
 458 211 l 1,9,-1
 528 211 l 1,10,-1
 528 142 l 1,0,-1
375 211 m 1,11,-1
 375 570 l 1,12,-1
 132 211 l 1,13,-1
 375 211 l 1,11,-1
EndSplineSet
Substitution2: "'smcp' Lowercase to Small Capitals in Latin lookup 21 subtable" four.tscf
Substitution2: "'c2sc' Capitals to Small Capitals in Latin lookup 20 subtable" four.tscf
Substitution2: "'onum' Oldstyle Figures in Latin lookup 17 subtable" four.tosf
Substitution2: "'frac' Diagonal Fractions in Latin lookup 15 subtable" foursuperior
Substitution2: "'subs' Subscript in Latin lookup 12 subtable" four.sinf
Substitution2: "'sups' Superscript in Latin lookup 11 subtable" four.sups
Substitution2: "'dnom' Denominators in Latin lookup 10 subtable" fourinferior
Substitution2: "'numr' Numerators in Latin lookup 9 subtable" foursuperior
Substitution2: "'pnum' Proportional Numbers in Latin lookup 7 subtable" four.alt
AlternateSubs2: "'aalt' Access All Alternates in Latin lookup 1 subtable" four.alt foursuperior fourinferior four.sups four.sinf four.tosf
EndChar

StartChar: five
Encoding: 53 53 21
Width: 580
Flags: MW
HStem: -10 21G<241 328.5> 322 62<192 294> 629 20G<102 476 476 476>
LayerCount: 2
Fore
SplineSet
493 277 m 2,0,-1
 493 129 l 2,1,2
 493 93 493 93 480 66.5 c 128,-1,3
 467 40 467 40 447 25.5 c 128,-1,4
 427 11 427 11 396.5 2.5 c 128,-1,5
 366 -6 366 -6 339.5 -8 c 128,-1,6
 313 -10 313 -10 278 -10 c 0,7,8
 197 -10 197 -10 87 8 c 1,9,-1
 87 80 l 1,10,11
 203 56 203 56 281 56 c 0,12,13
 340 56 340 56 369.5 73 c 128,-1,14
 399 90 399 90 399 131 c 2,15,-1
 399 260 l 2,16,17
 399 281 399 281 390 294.5 c 128,-1,18
 381 308 381 308 363 313.5 c 128,-1,19
 345 319 345 319 330.5 320.5 c 128,-1,20
 316 322 316 322 294 322 c 2,21,-1
 102 322 l 1,22,-1
 102 649 l 1,23,-1
 476 649 l 1,24,-1
 476 581 l 1,25,-1
 192 581 l 1,26,-1
 192 384 l 1,27,-1
 342 384 l 2,28,29
 379 384 379 384 410.5 375.5 c 128,-1,30
 442 367 442 367 467.5 342 c 128,-1,31
 493 317 493 317 493 277 c 2,0,-1
EndSplineSet
Substitution2: "'smcp' Lowercase to Small Capitals in Latin lookup 21 subtable" five.tscf
Substitution2: "'c2sc' Capitals to Small Capitals in Latin lookup 20 subtable" five.tscf
Substitution2: "'onum' Oldstyle Figures in Latin lookup 17 subtable" five.tosf
Substitution2: "'frac' Diagonal Fractions in Latin lookup 15 subtable" fivesuperior
Substitution2: "'subs' Subscript in Latin lookup 12 subtable" five.sinf
Substitution2: "'sups' Superscript in Latin lookup 11 subtable" five.sups
Substitution2: "'dnom' Denominators in Latin lookup 10 subtable" fiveinferior
Substitution2: "'numr' Numerators in Latin lookup 9 subtable" fivesuperior
Substitution2: "'pnum' Proportional Numbers in Latin lookup 7 subtable" five.alt
AlternateSubs2: "'aalt' Access All Alternates in Latin lookup 1 subtable" five.alt fivesuperior fiveinferior five.sups five.sinf five.tosf
EndChar

StartChar: six
Encoding: 54 54 22
Width: 580
Flags: MW
HStem: -10 59<246.5 336 246.5 346.5> 326 58<160 290 160 307> 640 20G<257.5 338.5>
LayerCount: 2
Fore
SplineSet
509 251 m 2,0,-1
 509 156 l 2,1,2
 509 102 509 102 492 67 c 128,-1,3
 475 32 475 32 441 16 c 128,-1,4
 407 0 407 0 373 -5 c 128,-1,5
 339 -10 339 -10 289 -10 c 0,6,7
 248 -10 248 -10 220.5 -7.5 c 128,-1,8
 193 -5 193 -5 162 4.5 c 128,-1,9
 131 14 131 14 113 31.5 c 128,-1,10
 95 49 95 49 83 80.5 c 128,-1,11
 71 112 71 112 71 156 c 2,12,-1
 71 484 l 2,13,14
 71 531 71 531 86 564.5 c 128,-1,15
 101 598 101 598 123 616.5 c 128,-1,16
 145 635 145 635 180.5 645 c 128,-1,17
 216 655 216 655 245 657.5 c 128,-1,18
 274 660 274 660 314 660 c 0,19,20
 375 660 375 660 478 651 c 1,21,-1
 478 583 l 1,22,23
 372 596 372 596 301 596 c 0,24,25
 223 596 223 596 191.5 576.5 c 128,-1,26
 160 557 160 557 160 486 c 2,27,-1
 160 384 l 1,28,-1
 307 384 l 2,29,30
 354 384 354 384 380 382.5 c 128,-1,31
 406 381 406 381 435 374 c 128,-1,32
 464 367 464 367 477.5 353 c 128,-1,33
 491 339 491 339 500 314 c 128,-1,34
 509 289 509 289 509 251 c 2,0,-1
420 151 m 2,35,-1
 420 248 l 2,36,37
 420 296 420 296 395.5 311 c 128,-1,38
 371 326 371 326 290 326 c 2,39,-1
 160 326 l 1,40,-1
 160 151 l 2,41,42
 160 86 160 86 188.5 67.5 c 128,-1,43
 217 49 217 49 291 49 c 128,-1,44
 365 49 365 49 392.5 67 c 128,-1,45
 420 85 420 85 420 151 c 2,35,-1
EndSplineSet
Substitution2: "'smcp' Lowercase to Small Capitals in Latin lookup 21 subtable" six.tscf
Substitution2: "'c2sc' Capitals to Small Capitals in Latin lookup 20 subtable" six.tscf
Substitution2: "'onum' Oldstyle Figures in Latin lookup 17 subtable" six.tosf
Substitution2: "'frac' Diagonal Fractions in Latin lookup 15 subtable" sixsuperior
Substitution2: "'subs' Subscript in Latin lookup 12 subtable" six.sinf
Substitution2: "'sups' Superscript in Latin lookup 11 subtable" six.sups
Substitution2: "'dnom' Denominators in Latin lookup 10 subtable" sixinferior
Substitution2: "'numr' Numerators in Latin lookup 9 subtable" sixsuperior
Substitution2: "'pnum' Proportional Numbers in Latin lookup 7 subtable" six.alt
AlternateSubs2: "'aalt' Access All Alternates in Latin lookup 1 subtable" six.alt sixsuperior sixinferior six.sups six.sinf six.tosf
EndChar

StartChar: seven
Encoding: 55 55 23
Width: 580
Flags: MW
HStem: 0 21G<174 270 174 174> 629 20G<62 518 518 518>
LayerCount: 2
Fore
SplineSet
518 584 m 1,0,-1
 270 0 l 1,1,-1
 174 0 l 1,2,-1
 434 584 l 1,3,-1
 62 584 l 1,4,-1
 62 649 l 1,5,-1
 518 649 l 1,6,-1
 518 584 l 1,0,-1
EndSplineSet
Substitution2: "'smcp' Lowercase to Small Capitals in Latin lookup 21 subtable" seven.tscf
Substitution2: "'c2sc' Capitals to Small Capitals in Latin lookup 20 subtable" seven.tscf
Substitution2: "'onum' Oldstyle Figures in Latin lookup 17 subtable" seven.tosf
Substitution2: "'frac' Diagonal Fractions in Latin lookup 15 subtable" sevensuperior
Substitution2: "'subs' Subscript in Latin lookup 12 subtable" seven.sinf
Substitution2: "'sups' Superscript in Latin lookup 11 subtable" seven.sups
Substitution2: "'dnom' Denominators in Latin lookup 10 subtable" seveninferior
Substitution2: "'numr' Numerators in Latin lookup 9 subtable" sevensuperior
Substitution2: "'pnum' Proportional Numbers in Latin lookup 7 subtable" seven.alt
AlternateSubs2: "'aalt' Access All Alternates in Latin lookup 1 subtable" seven.alt sevensuperior seveninferior seven.sups seven.sinf seven.tosf
EndChar

StartChar: eight
Encoding: 56 56 24
Width: 580
Flags: MW
HStem: -10 58<240 338 240 368.5> 602 58<247 331>
LayerCount: 2
Fore
SplineSet
520 119 m 2,0,1
 520 48 520 48 465.5 19 c 128,-1,2
 411 -10 411 -10 289 -10 c 0,3,4
 168 -10 168 -10 113.5 19 c 128,-1,5
 59 48 59 48 59 117 c 2,6,-1
 59 238 l 2,7,8
 59 279 59 279 91 305 c 128,-1,9
 123 331 123 331 171 342 c 1,10,-1
 171 346 l 1,11,12
 127 356 127 356 104 377.5 c 128,-1,13
 81 399 81 399 81 439 c 2,14,-1
 81 540 l 2,15,16
 81 568 81 568 89.5 588 c 128,-1,17
 98 608 98 608 120 625.5 c 128,-1,18
 142 643 142 643 184 651.5 c 128,-1,19
 226 660 226 660 289 660 c 128,-1,20
 352 660 352 660 394 651.5 c 128,-1,21
 436 643 436 643 458 625.5 c 128,-1,22
 480 608 480 608 488.5 588 c 128,-1,23
 497 568 497 568 497 540 c 2,24,-1
 497 439 l 2,25,26
 497 399 497 399 474.5 377.5 c 128,-1,27
 452 356 452 356 408 346 c 1,28,-1
 408 342 l 1,29,30
 456 331 456 331 488 305 c 128,-1,31
 520 279 520 279 520 238 c 2,32,-1
 520 119 l 2,0,1
406 430 m 2,33,-1
 406 535 l 2,34,35
 406 572 406 572 379 587 c 128,-1,36
 352 602 352 602 289 602 c 128,-1,37
 226 602 226 602 199 587 c 128,-1,38
 172 572 172 572 172 535 c 2,39,-1
 172 430 l 2,40,41
 172 391 172 391 198 377.5 c 128,-1,42
 224 364 224 364 289 364 c 128,-1,43
 354 364 354 364 380 377.5 c 128,-1,44
 406 391 406 391 406 430 c 2,33,-1
422 114 m 2,45,-1
 422 235 l 2,46,47
 422 260 422 260 411.5 276 c 128,-1,48
 401 292 401 292 378.5 298.5 c 128,-1,49
 356 305 356 305 338 306.5 c 128,-1,50
 320 308 320 308 289 308 c 128,-1,51
 258 308 258 308 240 306.5 c 128,-1,52
 222 305 222 305 199.5 298.5 c 128,-1,53
 177 292 177 292 166.5 276 c 128,-1,54
 156 260 156 260 156 235 c 2,55,-1
 156 114 l 2,56,57
 156 78 156 78 186 63 c 128,-1,58
 216 48 216 48 289 48 c 128,-1,59
 362 48 362 48 392 63 c 128,-1,60
 422 78 422 78 422 114 c 2,45,-1
EndSplineSet
Substitution2: "'smcp' Lowercase to Small Capitals in Latin lookup 21 subtable" eight.tscf
Substitution2: "'c2sc' Capitals to Small Capitals in Latin lookup 20 subtable" eight.tscf
Substitution2: "'onum' Oldstyle Figures in Latin lookup 17 subtable" eight.tosf
Substitution2: "'frac' Diagonal Fractions in Latin lookup 15 subtable" eightsuperior
Substitution2: "'subs' Subscript in Latin lookup 12 subtable" eight.sinf
Substitution2: "'sups' Superscript in Latin lookup 11 subtable" eight.sups
Substitution2: "'dnom' Denominators in Latin lookup 10 subtable" eightinferior
Substitution2: "'numr' Numerators in Latin lookup 9 subtable" eightsuperior
Substitution2: "'pnum' Proportional Numbers in Latin lookup 7 subtable" eight.alt
AlternateSubs2: "'aalt' Access All Alternates in Latin lookup 1 subtable" eight.alt eightsuperior eightinferior eight.sups eight.sinf eight.tosf
EndChar

StartChar: nine
Encoding: 57 57 25
Width: 580
Flags: MW
HStem: -10 61<246.5 325 242 352.5> 265 58<206 420 290 420 290 420> 601 59<244 333.5>
LayerCount: 2
Fore
SplineSet
509 494 m 2,0,-1
 509 166 l 2,1,2
 509 70 509 70 452.5 30 c 128,-1,3
 396 -10 396 -10 271 -10 c 0,4,5
 186 -10 186 -10 102 1 c 1,6,-1
 102 68 l 1,7,8
 195 51 195 51 268 51 c 0,9,10
 354 51 354 51 387 78.5 c 128,-1,11
 420 106 420 106 420 180 c 2,12,-1
 420 265 l 1,13,-1
 273 265 l 2,14,15
 226 265 226 265 200 266.5 c 128,-1,16
 174 268 174 268 145 275 c 128,-1,17
 116 282 116 282 102.5 296 c 128,-1,18
 89 310 89 310 80 335 c 128,-1,19
 71 360 71 360 71 398 c 2,20,-1
 71 494 l 2,21,22
 71 548 71 548 88 583 c 128,-1,23
 105 618 105 618 139 634 c 128,-1,24
 173 650 173 650 207 655 c 128,-1,25
 241 660 241 660 291 660 c 0,26,27
 332 660 332 660 359.5 657.5 c 128,-1,28
 387 655 387 655 418 645.5 c 128,-1,29
 449 636 449 636 467 618.5 c 128,-1,30
 485 601 485 601 497 569.5 c 128,-1,31
 509 538 509 538 509 494 c 2,0,-1
420 499 m 2,32,33
 420 564 420 564 391.5 582.5 c 128,-1,34
 363 601 363 601 289 601 c 128,-1,35
 215 601 215 601 187.5 583 c 128,-1,36
 160 565 160 565 160 499 c 2,37,-1
 160 401 l 2,38,39
 160 353 160 353 184.5 338 c 128,-1,40
 209 323 209 323 290 323 c 2,41,-1
 420 323 l 1,42,-1
 420 499 l 2,32,33
EndSplineSet
Substitution2: "'smcp' Lowercase to Small Capitals in Latin lookup 21 subtable" nine.tscf
Substitution2: "'c2sc' Capitals to Small Capitals in Latin lookup 20 subtable" nine.tscf
Substitution2: "'onum' Oldstyle Figures in Latin lookup 17 subtable" nine.tosf
Substitution2: "'frac' Diagonal Fractions in Latin lookup 15 subtable" ninesuperior
Substitution2: "'subs' Subscript in Latin lookup 12 subtable" nine.sinf
Substitution2: "'sups' Superscript in Latin lookup 11 subtable" nine.sups
Substitution2: "'dnom' Denominators in Latin lookup 10 subtable" nineinferior
Substitution2: "'numr' Numerators in Latin lookup 9 subtable" ninesuperior
Substitution2: "'pnum' Proportional Numbers in Latin lookup 7 subtable" nine.alt
AlternateSubs2: "'aalt' Access All Alternates in Latin lookup 1 subtable" nine.alt ninesuperior nineinferior nine.sups nine.sinf nine.tosf
EndChar

StartChar: colon
Encoding: 58 58 26
Width: 256
Flags: MW
HStem: 0 21G<70 186 70 70> 464 20G<70 186 186 186>
LayerCount: 2
Fore
SplineSet
186 376 m 1,0,-1
 70 376 l 1,1,-1
 70 484 l 1,2,-1
 186 484 l 1,3,-1
 186 376 l 1,0,-1
186 0 m 1,4,-1
 70 0 l 1,5,-1
 70 108 l 1,6,-1
 186 108 l 1,7,-1
 186 0 l 1,4,-1
EndSplineSet
EndChar

StartChar: semicolon
Encoding: 59 59 27
Width: 256
Flags: MW
HStem: -112 21G<39 97 39 39> 464 20G<70 186 186 186>
LayerCount: 2
Fore
SplineSet
186 376 m 1,0,-1
 70 376 l 1,1,-1
 70 484 l 1,2,-1
 186 484 l 1,3,-1
 186 376 l 1,0,-1
191 108 m 1,4,-1
 97 -112 l 1,5,-1
 39 -112 l 1,6,-1
 85 108 l 1,7,-1
 191 108 l 1,4,-1
EndSplineSet
EndChar

StartChar: less
Encoding: 60 60 28
Width: 500
Flags: MW
HStem: 62 21G<440 440> 540 20G<440 440>
LayerCount: 2
Fore
SplineSet
440 143 m 1,0,-1
 440 62 l 1,1,-1
 60 275 l 1,2,-1
 60 347 l 1,3,-1
 440 560 l 1,4,-1
 440 479 l 1,5,-1
 138 308 l 1,6,-1
 440 143 l 1,0,-1
EndSplineSet
EndChar

StartChar: equal
Encoding: 61 61 29
Width: 500
Flags: MW
HStem: 202 21G<60 440 60 60> 409 20G<60 440 440 440>
LayerCount: 2
Fore
SplineSet
440 362 m 1,0,-1
 60 362 l 1,1,-1
 60 429 l 1,2,-1
 440 429 l 1,3,-1
 440 362 l 1,0,-1
440 202 m 1,4,-1
 60 202 l 1,5,-1
 60 269 l 1,6,-1
 440 269 l 1,7,-1
 440 202 l 1,4,-1
EndSplineSet
EndChar

StartChar: greater
Encoding: 62 62 30
Width: 500
Flags: MW
HStem: 62 21G<60 60> 540 20G<60 60>
LayerCount: 2
Fore
SplineSet
60 62 m 1,0,-1
 60 143 l 1,1,-1
 362 308 l 1,2,-1
 60 479 l 1,3,-1
 60 560 l 1,4,-1
 440 347 l 1,5,-1
 440 275 l 1,6,-1
 60 62 l 1,0,-1
EndSplineSet
EndChar

StartChar: question
Encoding: 63 63 31
Width: 533
Flags: MW
HStem: 0 21G<190 306 190 190> 639 20G<229 339.5>
LayerCount: 2
Fore
SplineSet
207 171 m 1,0,-1
 207 195 l 2,1,2
 207 249 207 249 224.5 285.5 c 128,-1,3
 242 322 242 322 267 341 c 128,-1,4
 292 360 292 360 317 376.5 c 128,-1,5
 342 393 342 393 359.5 418.5 c 128,-1,6
 377 444 377 444 377 481 c 2,7,-1
 377 511 l 2,8,9
 377 558 377 558 347 573 c 128,-1,10
 317 588 317 588 251 588 c 0,11,12
 181 588 181 588 60 567 c 1,13,-1
 60 640 l 1,14,15
 165 659 165 659 270 659 c 0,16,17
 377 659 377 659 425 627 c 128,-1,18
 473 595 473 595 473 518 c 2,19,-1
 473 468 l 2,20,21
 473 430 473 430 459.5 400.5 c 128,-1,22
 446 371 446 371 426 353.5 c 128,-1,23
 406 336 406 336 382 319 c 128,-1,24
 358 302 358 302 338 289.5 c 128,-1,25
 318 277 318 277 304.5 257.5 c 128,-1,26
 291 238 291 238 291 214 c 2,27,-1
 291 171 l 1,28,-1
 207 171 l 1,0,-1
306 0 m 1,29,-1
 190 0 l 1,30,-1
 190 108 l 1,31,-1
 306 108 l 1,32,-1
 306 0 l 1,29,-1
EndSplineSet
Substitution2: "'smcp' Lowercase to Small Capitals in Latin lookup 21 subtable" question.smcp
Substitution2: "'c2sc' Capitals to Small Capitals in Latin lookup 20 subtable" question.smcp
EndChar

StartChar: at
Encoding: 64 64 32
Width: 737
Flags: MW
HStem: -90 57<320 407 320 412> 559 20G<306 420.5>
LayerCount: 2
Fore
SplineSet
677 394 m 2,0,-1
 677 145 l 2,1,2
 677 96 677 96 652 76 c 128,-1,3
 627 56 627 56 578 56 c 2,4,-1
 547 56 l 2,5,6
 513 56 513 56 490.5 66.5 c 128,-1,7
 468 77 468 77 463 93 c 1,8,9
 453 71 453 71 432 63.5 c 128,-1,10
 411 56 411 56 349 56 c 0,11,12
 268 56 268 56 234 83.5 c 128,-1,13
 200 111 200 111 200 198 c 2,14,-1
 200 308 l 2,15,16
 200 382 200 382 236 410.5 c 128,-1,17
 272 439 272 439 369 439 c 0,18,19
 467 439 467 439 497.5 410.5 c 128,-1,20
 528 382 528 382 528 308 c 2,21,-1
 528 129 l 2,22,23
 528 115 528 115 537 110 c 128,-1,24
 546 105 546 105 567 105 c 128,-1,25
 588 105 588 105 596 109.5 c 128,-1,26
 604 114 604 114 604 129 c 2,27,-1
 604 406 l 2,28,29
 604 442 604 442 579.5 467.5 c 128,-1,30
 555 493 555 493 515.5 504.5 c 128,-1,31
 476 516 476 516 439 521 c 128,-1,32
 402 526 402 526 363 526 c 128,-1,33
 324 526 324 526 289 521 c 128,-1,34
 254 516 254 516 217.5 504.5 c 128,-1,35
 181 493 181 493 159.5 467.5 c 128,-1,36
 138 442 138 442 138 406 c 2,37,-1
 138 79 l 2,38,39
 138 46 138 46 160 22.5 c 128,-1,40
 182 -1 182 -1 219 -12.5 c 128,-1,41
 256 -24 256 -24 291 -28.5 c 128,-1,42
 326 -33 326 -33 364 -33 c 0,43,44
 421 -33 421 -33 497 -23.5 c 128,-1,45
 573 -14 573 -14 600 -7 c 1,46,-1
 600 -65 l 1,47,48
 575 -73 575 -73 503 -81.5 c 128,-1,49
 431 -90 431 -90 362 -90 c 0,50,51
 321 -90 321 -90 284 -86.5 c 128,-1,52
 247 -83 247 -83 204.5 -71.5 c 128,-1,53
 162 -60 162 -60 131.5 -41.5 c 128,-1,54
 101 -23 101 -23 80.5 10 c 128,-1,55
 60 43 60 43 60 86 c 2,56,-1
 60 393 l 2,57,58
 60 450 60 450 90 489.5 c 128,-1,59
 120 529 120 529 170.5 547 c 128,-1,60
 221 565 221 565 266.5 572 c 128,-1,61
 312 579 312 579 362 579 c 0,62,63
 415 579 415 579 462 572.5 c 128,-1,64
 509 566 509 566 561.5 548 c 128,-1,65
 614 530 614 530 645.5 490.5 c 128,-1,66
 677 451 677 451 677 394 c 2,0,-1
455 184 m 2,67,-1
 455 304 l 2,68,69
 455 361 455 361 440.5 374 c 128,-1,70
 426 387 426 387 366 387 c 0,71,72
 308 387 308 387 293 373.5 c 128,-1,73
 278 360 278 360 278 304 c 2,74,-1
 278 184 l 2,75,76
 278 133 278 133 293.5 120 c 128,-1,77
 309 107 309 107 366 107 c 128,-1,78
 423 107 423 107 439 121 c 128,-1,79
 455 135 455 135 455 184 c 2,67,-1
EndSplineSet
Substitution2: "'smcp' Lowercase to Small Capitals in Latin lookup 21 subtable" at.smcp
Substitution2: "'c2sc' Capitals to Small Capitals in Latin lookup 20 subtable" at.smcp
Substitution2: "'ss03' Style Set 3 in Latin lookup 2 subtable" at.alt
EndChar

StartChar: A
Encoding: 65 65 33
Width: 652
Flags: MW
HStem: 0 21G<15 111 15 15 536 637 536 536> 629 20G<273 385 385 385>
LayerCount: 2
Fore
SplineSet
637 0 m 1,0,-1
 536 0 l 1,1,-1
 462 197 l 1,2,-1
 184 197 l 1,3,-1
 111 0 l 1,4,-1
 15 0 l 1,5,-1
 273 649 l 1,6,-1
 385 649 l 1,7,-1
 637 0 l 1,0,-1
438 264 m 1,8,-1
 328 557 l 1,9,-1
 319 557 l 1,10,-1
 209 264 l 1,11,-1
 438 264 l 1,8,-1
EndSplineSet
EndChar

StartChar: B
Encoding: 66 66 34
Width: 613
Flags: MW
HStem: 0 21G<84 323 84 84> 304 61<181 319 319 323 181 319> 629 20G<84 316 316 404>
LayerCount: 2
Fore
SplineSet
553 238 m 2,0,-1
 553 129 l 2,1,2
 553 58 553 58 499 29 c 128,-1,3
 445 0 445 0 323 0 c 2,4,-1
 84 0 l 1,5,-1
 84 649 l 1,6,-1
 316 649 l 2,7,8
 400 649 400 649 447.5 632 c 128,-1,9
 495 615 495 615 509.5 590 c 128,-1,10
 524 565 524 565 524 526 c 2,11,-1
 524 439 l 2,12,13
 524 399 524 399 501.5 378 c 128,-1,14
 479 357 479 357 435 347 c 1,15,-1
 435 343 l 1,16,17
 487 334 487 334 520 307 c 128,-1,18
 553 280 553 280 553 238 c 2,0,-1
433 442 m 2,19,-1
 433 518 l 2,20,21
 433 555 433 555 406 570 c 128,-1,22
 379 585 379 585 316 585 c 2,23,-1
 181 585 l 1,24,-1
 181 365 l 1,25,-1
 319 365 l 2,26,27
 381 365 381 365 407 383.5 c 128,-1,28
 433 402 433 402 433 442 c 2,19,-1
456 133 m 2,29,-1
 456 231 l 2,30,31
 456 257 456 257 445.5 272.5 c 128,-1,32
 435 288 435 288 412.5 294.5 c 128,-1,33
 390 301 390 301 372.5 302.5 c 128,-1,34
 355 304 355 304 323 304 c 2,35,-1
 181 304 l 1,36,-1
 181 67 l 1,37,-1
 323 67 l 2,38,39
 396 67 396 67 426 82 c 128,-1,40
 456 97 456 97 456 133 c 2,29,-1
EndSplineSet
EndChar

StartChar: C
Encoding: 67 67 35
Width: 564
Flags: MW
HStem: -10 21G<277.5 379.5> 640 20G<280.5 379.5>
LayerCount: 2
Fore
SplineSet
519 9 m 1,0,1
 432 -10 432 -10 337 -10 c 0,2,3
 64 -10 64 -10 64 166 c 2,4,-1
 64 474 l 2,5,6
 64 660 64 660 337 660 c 0,7,8
 428 660 428 660 515 641 c 1,9,-1
 515 569 l 1,10,11
 419 593 419 593 339 593 c 0,12,13
 301 593 301 593 272 588.5 c 128,-1,14
 243 584 243 584 215 572.5 c 128,-1,15
 187 561 187 561 172 536.5 c 128,-1,16
 157 512 157 512 157 475 c 2,17,-1
 157 171 l 2,18,19
 157 59 157 59 343 59 c 0,20,21
 423 59 423 59 519 83 c 1,22,-1
 519 9 l 1,0,1
EndSplineSet
EndChar

StartChar: D
Encoding: 68 68 36
Width: 679
Flags: MW
HStem: 0 21G<84 343 84 84> 629 20G<84 342 342 398.5>
LayerCount: 2
Fore
SplineSet
615 463 m 2,0,-1
 615 176 l 2,1,2
 615 0 615 0 343 0 c 2,3,-1
 84 0 l 1,4,-1
 84 649 l 1,5,-1
 342 649 l 2,6,7
 615 649 615 649 615 463 c 2,0,-1
522 178 m 2,8,-1
 522 464 l 2,9,10
 522 501 522 501 507 525.5 c 128,-1,11
 492 550 492 550 464.5 561.5 c 128,-1,12
 437 573 437 573 408 577.5 c 128,-1,13
 379 582 379 582 341 582 c 2,14,-1
 181 582 l 1,15,-1
 181 66 l 1,16,-1
 336 66 l 2,17,18
 522 66 522 66 522 178 c 2,8,-1
EndSplineSet
EndChar

StartChar: E
Encoding: 69 69 37
Width: 580
Flags: MW
HStem: 0 21G<84 530 84 84> 629 20G<84 520 520 520>
LayerCount: 2
Fore
SplineSet
530 0 m 1,0,-1
 84 0 l 1,1,-1
 84 649 l 1,2,-1
 520 649 l 1,3,-1
 520 581 l 1,4,-1
 181 581 l 1,5,-1
 181 369 l 1,6,-1
 487 369 l 1,7,-1
 487 301 l 1,8,-1
 181 301 l 1,9,-1
 181 68 l 1,10,-1
 530 68 l 1,11,-1
 530 0 l 1,0,-1
EndSplineSet
EndChar

StartChar: F
Encoding: 70 70 38
Width: 560
Flags: MW
HStem: 0 21G<84 181 84 84> 629 20G<84 530 530 530>
LayerCount: 2
Fore
SplineSet
530 581 m 1,0,-1
 181 581 l 1,1,-1
 181 369 l 1,2,-1
 497 369 l 1,3,-1
 497 301 l 1,4,-1
 181 301 l 1,5,-1
 181 0 l 1,6,-1
 84 0 l 1,7,-1
 84 649 l 1,8,-1
 530 649 l 1,9,-1
 530 581 l 1,0,-1
EndSplineSet
EndChar

StartChar: G
Encoding: 71 71 39
Width: 666
Flags: MW
HStem: -10 21G<303.5 409.5> 639 20G<307 405.5>
LayerCount: 2
Fore
SplineSet
602 20 m 1,0,1
 472 -10 472 -10 363 -10 c 0,2,3
 322 -10 322 -10 285.5 -6.5 c 128,-1,4
 249 -3 249 -3 207 8.5 c 128,-1,5
 165 20 165 20 134.5 38.5 c 128,-1,6
 104 57 104 57 84 90 c 128,-1,7
 64 123 64 123 64 166 c 2,8,-1
 64 473 l 2,9,10
 64 530 64 530 93.5 569.5 c 128,-1,11
 123 609 123 609 173 627 c 128,-1,12
 223 645 223 645 268 652 c 128,-1,13
 313 659 313 659 363 659 c 0,14,15
 483 659 483 659 587 643 c 1,16,-1
 587 568 l 1,17,18
 549 577 549 577 478 584.5 c 128,-1,19
 407 592 407 592 365 592 c 0,20,21
 160 592 160 592 160 474 c 2,22,-1
 160 168 l 2,23,24
 160 135 160 135 179.5 111.5 c 128,-1,25
 199 88 199 88 232.5 76.5 c 128,-1,26
 266 65 266 65 298.5 60.5 c 128,-1,27
 331 56 331 56 369 56 c 0,28,29
 436 56 436 56 512 74 c 1,30,-1
 512 301 l 1,31,-1
 360 301 l 1,32,-1
 360 369 l 1,33,-1
 602 369 l 1,34,-1
 602 20 l 1,0,1
EndSplineSet
EndChar

StartChar: H
Encoding: 72 72 40
Width: 707
Flags: MW
HStem: 0 21G<84 181 84 84 526 623 526 526> 629 20G<84 181 181 181 526 623 623 623>
LayerCount: 2
Fore
SplineSet
623 0 m 1,0,-1
 526 0 l 1,1,-1
 526 301 l 1,2,-1
 181 301 l 1,3,-1
 181 0 l 1,4,-1
 84 0 l 1,5,-1
 84 649 l 1,6,-1
 181 649 l 1,7,-1
 181 369 l 1,8,-1
 526 369 l 1,9,-1
 526 649 l 1,10,-1
 623 649 l 1,11,-1
 623 0 l 1,0,-1
EndSplineSet
EndChar

StartChar: I
Encoding: 73 73 41
Width: 265
Flags: MW
HStem: 0 21G<84 181 84 84> 629 20G<84 181 181 181>
LayerCount: 2
Fore
SplineSet
181 0 m 1,0,-1
 84 0 l 1,1,-1
 84 649 l 1,2,-1
 181 649 l 1,3,-1
 181 0 l 1,0,-1
EndSplineSet
EndChar

StartChar: J
Encoding: 74 74 42
Width: 403
Flags: MW
HStem: -10 60<115 162.5 109.5 198.5> 629 20G<222 319 319 319>
LayerCount: 2
Fore
SplineSet
319 649 m 1,0,-1
 319 143 l 2,1,2
 319 50 319 50 277.5 20 c 128,-1,3
 236 -10 236 -10 139 -10 c 0,4,5
 57 -10 57 -10 20 1 c 1,6,-1
 20 66 l 1,7,8
 81 50 81 50 127 50 c 0,9,10
 183 50 183 50 202.5 66.5 c 128,-1,11
 222 83 222 83 222 139 c 2,12,-1
 222 649 l 1,13,-1
 319 649 l 1,0,-1
EndSplineSet
EndChar

StartChar: K
Encoding: 75 75 43
Width: 609
Flags: MW
HStem: 0 21G<84 181 84 84 493 619 493 493> 629 20G<84 181 181 181 473 590 590 590>
LayerCount: 2
Fore
SplineSet
619 0 m 1,0,-1
 493 0 l 1,1,-1
 183 345 l 1,2,-1
 473 649 l 1,3,-1
 590 649 l 1,4,-1
 298 349 l 1,5,-1
 619 0 l 1,0,-1
181 0 m 1,6,-1
 84 0 l 1,7,-1
 84 649 l 1,8,-1
 181 649 l 1,9,-1
 181 0 l 1,6,-1
EndSplineSet
Substitution2: "'ss01' Style Set 1 in Latin lookup 4 subtable" K.alt
EndChar

StartChar: L
Encoding: 76 76 44
Width: 520
Flags: MW
HStem: 0 21G<84 500 84 84> 629 20G<84 181 181 181>
LayerCount: 2
Fore
SplineSet
500 0 m 1,0,-1
 84 0 l 1,1,-1
 84 649 l 1,2,-1
 181 649 l 1,3,-1
 181 68 l 1,4,-1
 500 68 l 1,5,-1
 500 0 l 1,0,-1
EndSplineSet
EndChar

StartChar: M
Encoding: 77 77 45
Width: 861
Flags: MW
HStem: 0 21G<84 171 84 84 391 478 391 391 692 777 692 692> 629 20G<84 229 229 229 637 777 777 777>
LayerCount: 2
Fore
SplineSet
777 0 m 1,0,-1
 692 0 l 1,1,-1
 692 549 l 1,2,-1
 687 549 l 1,3,-1
 478 0 l 1,4,-1
 391 0 l 1,5,-1
 176 549 l 1,6,-1
 171 549 l 1,7,-1
 171 0 l 1,8,-1
 84 0 l 1,9,-1
 84 649 l 1,10,-1
 229 649 l 1,11,-1
 437 109 l 1,12,-1
 440 108 l 1,13,-1
 637 649 l 1,14,-1
 777 649 l 1,15,-1
 777 0 l 1,0,-1
EndSplineSet
EndChar

StartChar: N
Encoding: 78 78 46
Width: 723
Flags: MW
HStem: 0 21G<84 169 84 84 522 639 522 522> 629 20G<84 201 201 201 554 639 639 639>
LayerCount: 2
Fore
SplineSet
639 0 m 1,0,-1
 522 0 l 1,1,-1
 169 545 l 1,2,-1
 169 0 l 1,3,-1
 84 0 l 1,4,-1
 84 649 l 1,5,-1
 201 649 l 1,6,-1
 554 113 l 1,7,-1
 554 649 l 1,8,-1
 639 649 l 1,9,-1
 639 0 l 1,0,-1
EndSplineSet
EndChar

StartChar: O
Encoding: 79 79 47
Width: 679
Flags: MW
HStem: -10 21G<278.5 396> 639 20G<282 396.5>
LayerCount: 2
Fore
SplineSet
613 474 m 2,0,-1
 613 166 l 2,1,2
 613 113 613 113 587.5 76 c 128,-1,3
 562 39 562 39 518 21.5 c 128,-1,4
 474 4 474 4 431 -3 c 128,-1,5
 388 -10 388 -10 338 -10 c 0,6,7
 66 -10 66 -10 66 166 c 2,8,-1
 66 473 l 2,9,10
 66 659 66 659 338 659 c 0,11,12
 613 659 613 659 613 474 c 2,0,-1
519 167 m 2,13,-1
 519 476 l 2,14,15
 519 596 519 596 339 596 c 0,16,17
 301 596 301 596 272 591.5 c 128,-1,18
 243 587 243 587 216 574.5 c 128,-1,19
 189 562 189 562 174 537.5 c 128,-1,20
 159 513 159 513 159 476 c 2,21,-1
 159 167 l 2,22,23
 159 55 159 55 340 55 c 0,24,25
 519 55 519 55 519 167 c 2,13,-1
EndSplineSet
EndChar

StartChar: P
Encoding: 80 80 48
Width: 570
Flags: MW
HStem: 0 21G<84 181 84 84> 234 61<181 278 181 181> 588 61<180 289 180 180>
LayerCount: 2
Fore
SplineSet
525 521 m 2,0,-1
 525 386 l 2,1,2
 525 303 525 303 460.5 268.5 c 128,-1,3
 396 234 396 234 278 234 c 2,4,-1
 181 234 l 1,5,-1
 181 0 l 1,6,-1
 84 0 l 1,7,-1
 84 649 l 1,8,-1
 296 649 l 2,9,10
 336 649 336 649 365 647 c 128,-1,11
 394 645 394 645 426.5 637.5 c 128,-1,12
 459 630 459 630 478.5 616.5 c 128,-1,13
 498 603 498 603 511.5 579 c 128,-1,14
 525 555 525 555 525 521 c 2,0,-1
430 391 m 2,15,-1
 430 509 l 2,16,17
 430 536 430 536 416 553.5 c 128,-1,18
 402 571 402 571 376 578 c 128,-1,19
 350 585 350 585 332.5 586.5 c 128,-1,20
 315 588 315 588 289 588 c 2,21,-1
 180 588 l 1,22,-1
 180 295 l 1,23,-1
 291 295 l 2,24,25
 349 295 349 295 389.5 316.5 c 128,-1,26
 430 338 430 338 430 391 c 2,15,-1
EndSplineSet
EndChar

StartChar: Q
Encoding: 81 81 49
Width: 676
Flags: MW
HStem: 0 21G<277.5 337 337 682> 639 20G<280.5 395.5>
LayerCount: 2
Fore
SplineSet
682 0 m 1,0,-1
 337 0 l 2,1,2
 64 0 64 0 64 176 c 2,3,-1
 64 473 l 2,4,5
 64 659 64 659 337 659 c 0,6,7
 611 659 611 659 611 474 c 2,8,-1
 611 206 l 2,9,10
 611 113 611 113 522 55 c 1,11,-1
 682 55 l 1,12,-1
 682 0 l 1,0,-1
518 177 m 2,13,-1
 518 476 l 2,14,15
 518 596 518 596 338 596 c 0,16,17
 300 596 300 596 270.5 591.5 c 128,-1,18
 241 587 241 587 214 574.5 c 128,-1,19
 187 562 187 562 172 537.5 c 128,-1,20
 157 513 157 513 157 476 c 2,21,-1
 157 177 l 2,22,23
 157 65 157 65 339 65 c 0,24,25
 518 65 518 65 518 177 c 2,13,-1
EndSplineSet
Substitution2: "'ss01' Style Set 1 in Latin lookup 4 subtable" Q.alt
EndChar

StartChar: R
Encoding: 82 82 50
Width: 612
Flags: MW
HStem: 0 21G<84 181 84 84 461 580 461 461> 629 20G<84 312 312 386>
LayerCount: 2
Fore
SplineSet
580 0 m 1,0,-1
 461 0 l 1,1,-1
 275 277 l 1,2,-1
 181 277 l 1,3,-1
 181 0 l 1,4,-1
 84 0 l 1,5,-1
 84 649 l 1,6,-1
 312 649 l 2,7,8
 434 649 434 649 487 624.5 c 128,-1,9
 540 600 540 600 540 522 c 2,10,-1
 540 410 l 2,11,12
 540 350 540 350 491 319.5 c 128,-1,13
 442 289 442 289 372 289 c 1,14,-1
 580 0 l 1,0,-1
443 422 m 2,15,-1
 443 512 l 2,16,17
 443 585 443 585 317 585 c 2,18,-1
 181 585 l 1,19,-1
 181 341 l 1,20,-1
 308 341 l 2,21,22
 377 341 377 341 410 358 c 128,-1,23
 443 375 443 375 443 422 c 2,15,-1
EndSplineSet
EndChar

StartChar: S
Encoding: 83 83 51
Width: 569
Flags: MW
HStem: -10 21G<235 349> 639 20G<212.5 345.5>
LayerCount: 2
Fore
SplineSet
514 220 m 2,0,-1
 514 173 l 2,1,2
 514 69 514 69 455 29.5 c 128,-1,3
 396 -10 396 -10 271 -10 c 0,4,5
 191 -10 191 -10 73 6 c 1,6,-1
 73 87 l 1,7,8
 191 62 191 62 277 62 c 0,9,10
 346 62 346 62 382.5 77.5 c 128,-1,11
 419 93 419 93 419 140 c 2,12,-1
 419 224 l 2,13,14
 419 265 419 265 395.5 282.5 c 128,-1,15
 372 300 372 300 311 300 c 2,16,-1
 235 300 l 2,17,18
 137 300 137 300 98.5 339.5 c 128,-1,19
 60 379 60 379 60 456 c 2,20,-1
 60 508 l 2,21,22
 60 585 60 585 114.5 622 c 128,-1,23
 169 659 169 659 315 659 c 0,24,25
 385 659 385 659 482 648 c 1,26,-1
 482 575 l 1,27,28
 371 592 371 592 308 592 c 0,29,30
 215 592 215 592 184.5 573.5 c 128,-1,31
 154 555 154 555 154 511 c 2,32,-1
 154 437 l 2,33,34
 154 403 154 403 178 387.5 c 128,-1,35
 202 372 202 372 263 372 c 2,36,-1
 341 372 l 2,37,38
 442 372 442 372 478 335.5 c 128,-1,39
 514 299 514 299 514 220 c 2,0,-1
EndSplineSet
EndChar

StartChar: T
Encoding: 84 84 52
Width: 585
Flags: MW
HStem: 0 21G<244 342 244 244> 629 20G<24 561 561 561>
LayerCount: 2
Fore
SplineSet
561 581 m 1,0,-1
 342 581 l 1,1,-1
 342 0 l 1,2,-1
 244 0 l 1,3,-1
 244 581 l 1,4,-1
 24 581 l 1,5,-1
 24 649 l 1,6,-1
 561 649 l 1,7,-1
 561 581 l 1,0,-1
EndSplineSet
EndChar

StartChar: U
Encoding: 85 85 53
Width: 676
Flags: MW
HStem: -10 21G<277.5 394.5> 629 20G<84 177 177 177 498 591 591 591>
LayerCount: 2
Fore
SplineSet
591 649 m 1,0,-1
 591 166 l 2,1,2
 591 -10 591 -10 337 -10 c 0,3,4
 286 -10 286 -10 246 -3.5 c 128,-1,5
 206 3 206 3 167 20.5 c 128,-1,6
 128 38 128 38 106 75 c 128,-1,7
 84 112 84 112 84 166 c 2,8,-1
 84 649 l 1,9,-1
 177 649 l 1,10,-1
 177 167 l 2,11,12
 177 103 177 103 220 79 c 128,-1,13
 263 55 263 55 339 55 c 128,-1,14
 415 55 415 55 456.5 79 c 128,-1,15
 498 103 498 103 498 167 c 2,16,-1
 498 649 l 1,17,-1
 591 649 l 1,0,-1
EndSplineSet
EndChar

StartChar: V
Encoding: 86 86 54
Width: 652
Flags: MW
HStem: 0 21G<267 379 267 267> 629 20G<15 116 116 116 541 637 637 637>
LayerCount: 2
Fore
SplineSet
637 649 m 1,0,-1
 379 0 l 1,1,-1
 267 0 l 1,2,-1
 15 649 l 1,3,-1
 116 649 l 1,4,-1
 324 92 l 1,5,-1
 333 92 l 1,6,-1
 541 649 l 1,7,-1
 637 649 l 1,0,-1
EndSplineSet
EndChar

StartChar: W
Encoding: 87 87 55
Width: 968
Flags: MW
HStem: 0 21G<211 324 211 211 638 751 638 638> 629 20G<8 111 111 111 435 538 538 538 862 960 960 960>
LayerCount: 2
Fore
SplineSet
960 649 m 1,0,-1
 751 0 l 1,1,-1
 638 0 l 1,2,-1
 483 540 l 1,3,-1
 324 0 l 1,4,-1
 211 0 l 1,5,-1
 8 649 l 1,6,-1
 111 649 l 1,7,-1
 272 92 l 1,8,-1
 274 92 l 1,9,-1
 435 649 l 1,10,-1
 538 649 l 1,11,-1
 699 92 l 1,12,-1
 701 92 l 1,13,-1
 862 649 l 1,14,-1
 960 649 l 1,0,-1
EndSplineSet
EndChar

StartChar: X
Encoding: 88 88 56
Width: 604
Flags: MW
HStem: 0 21G<8 119 8 8 485 596 485 485> 629 20G<18 129 129 129 475 586 586 586>
LayerCount: 2
Fore
SplineSet
596 0 m 1,0,-1
 485 0 l 1,1,-1
 302 264 l 1,2,-1
 119 0 l 1,3,-1
 8 0 l 1,4,-1
 247 331 l 1,5,-1
 18 649 l 1,6,-1
 129 649 l 1,7,-1
 302 398 l 1,8,-1
 475 649 l 1,9,-1
 586 649 l 1,10,-1
 357 331 l 1,11,-1
 596 0 l 1,0,-1
EndSplineSet
EndChar

StartChar: Y
Encoding: 89 89 57
Width: 584
Flags: MW
HStem: 0 21G<243 340 243 243> 629 20G<8 119 119 119 465 576 576 576>
LayerCount: 2
Fore
SplineSet
576 649 m 1,0,-1
 340 265 l 1,1,-1
 340 0 l 1,2,-1
 243 0 l 1,3,-1
 243 262 l 1,4,-1
 8 649 l 1,5,-1
 119 649 l 1,6,-1
 292 344 l 1,7,-1
 465 649 l 1,8,-1
 576 649 l 1,0,-1
EndSplineSet
EndChar

StartChar: Z
Encoding: 90 90 58
Width: 580
Flags: MW
HStem: 0 21G<40 540 40 40> 629 20G<50 534 534 534>
LayerCount: 2
Fore
SplineSet
540 0 m 1,0,-1
 40 0 l 1,1,-1
 40 68 l 1,2,-1
 422 581 l 1,3,-1
 50 581 l 1,4,-1
 50 649 l 1,5,-1
 534 649 l 1,6,-1
 534 581 l 1,7,-1
 152 68 l 1,8,-1
 540 68 l 1,9,-1
 540 0 l 1,0,-1
EndSplineSet
EndChar

StartChar: bracketleft
Encoding: 91 91 59
Width: 330
Flags: MW
HStem: -190 21G<84 310 84 84> 716 20G<84 310 310 310>
LayerCount: 2
Fore
SplineSet
310 -190 m 1,0,-1
 84 -190 l 1,1,-1
 84 736 l 1,2,-1
 310 736 l 1,3,-1
 310 688 l 1,4,-1
 171 688 l 1,5,-1
 171 -142 l 1,6,-1
 310 -142 l 1,7,-1
 310 -190 l 1,0,-1
EndSplineSet
Substitution2: "'smcp' Lowercase to Small Capitals in Latin lookup 21 subtable" bracketleft.smcp
Substitution2: "'c2sc' Capitals to Small Capitals in Latin lookup 20 subtable" bracketleft.smcp
EndChar

StartChar: backslash
Encoding: 92 92 60
Width: 421
Flags: MW
HStem: -10 21G<334 411 334 334> 639 20G<10 87 87 87>
LayerCount: 2
Fore
SplineSet
411 -10 m 1,0,-1
 334 -10 l 1,1,-1
 10 659 l 1,2,-1
 87 659 l 1,3,-1
 411 -10 l 1,0,-1
EndSplineSet
Substitution2: "'smcp' Lowercase to Small Capitals in Latin lookup 21 subtable" backslash.smcp
Substitution2: "'c2sc' Capitals to Small Capitals in Latin lookup 20 subtable" backslash.smcp
EndChar

StartChar: bracketright
Encoding: 93 93 61
Width: 330
Flags: MW
HStem: -190 21G<20 246 20 20> 716 20G<20 246 246 246>
LayerCount: 2
Fore
SplineSet
246 -190 m 1,0,-1
 20 -190 l 1,1,-1
 20 -142 l 1,2,-1
 159 -142 l 1,3,-1
 159 688 l 1,4,-1
 20 688 l 1,5,-1
 20 736 l 1,6,-1
 246 736 l 1,7,-1
 246 -190 l 1,0,-1
EndSplineSet
Substitution2: "'smcp' Lowercase to Small Capitals in Latin lookup 21 subtable" bracketright.smcp
Substitution2: "'c2sc' Capitals to Small Capitals in Latin lookup 20 subtable" bracketright.smcp
EndChar

StartChar: asciicircum
Encoding: 94 94 62
Width: 321
Flags: MW
HStem: 453 21G<20 88 20 20 233 301 233 233> 660 20G<96 223 223 223>
LayerCount: 2
Fore
SplineSet
223 680 m 1,0,-1
 301 453 l 1,1,-1
 233 453 l 1,2,-1
 160 640 l 1,3,-1
 88 453 l 1,4,-1
 20 453 l 1,5,-1
 96 680 l 1,6,-1
 223 680 l 1,0,-1
EndSplineSet
EndChar

StartChar: underscore
Encoding: 95 95 63
Width: 580
Flags: MW
HStem: -141 21G<71 509 71 71> -90 20G<71 509 509 509>
LayerCount: 2
Fore
SplineSet
509 -141 m 1,0,-1
 71 -141 l 1,1,-1
 71 -70 l 1,2,-1
 509 -70 l 1,3,-1
 509 -141 l 1,0,-1
EndSplineSet
EndChar

StartChar: grave
Encoding: 96 96 64
Width: 239
Flags: MW
HStem: 553 21G<145 219 145 145> 660 20G<20 129 129 129>
LayerCount: 2
Fore
SplineSet
219 553 m 1,0,-1
 145 553 l 1,1,-1
 20 680 l 1,2,-1
 129 680 l 1,3,-1
 219 553 l 1,0,-1
EndSplineSet
EndChar

StartChar: a
Encoding: 97 97 65
Width: 538
Flags: MW
HStem: -10 59<224 242 242 263> 0 21G<373 460 373 373> 474 20G<243.5 348.5>
LayerCount: 2
Fore
SplineSet
460 0 m 1,0,-1
 373 0 l 1,1,-1
 373 46 l 1,2,3
 362 -10 362 -10 227 -10 c 0,4,5
 127 -10 127 -10 88.5 20.5 c 128,-1,6
 50 51 50 51 50 144 c 0,7,8
 50 225 50 225 86 255.5 c 128,-1,9
 122 286 122 286 225 286 c 2,10,-1
 370 286 l 1,11,-1
 370 363 l 2,12,13
 370 403 370 403 345.5 417 c 128,-1,14
 321 431 321 431 253 431 c 0,15,16
 179 431 179 431 87 419 c 1,17,-1
 87 485 l 1,18,19
 186 494 186 494 266 494 c 0,20,21
 388 494 388 494 424 464.5 c 128,-1,22
 460 435 460 435 460 342 c 2,23,-1
 460 0 l 1,0,-1
370 98 m 2,24,-1
 370 230 l 1,25,-1
 231 230 l 2,26,27
 169 230 169 230 153.5 214 c 128,-1,28
 138 198 138 198 138 141 c 0,29,30
 138 90 138 90 154.5 69.5 c 128,-1,31
 171 49 171 49 224 49 c 2,32,-1
 242 49 l 2,33,34
 268 49 268 49 285.5 50 c 128,-1,35
 303 51 303 51 325 55.5 c 128,-1,36
 347 60 347 60 358.5 70.5 c 128,-1,37
 370 81 370 81 370 98 c 2,24,-1
EndSplineSet
Substitution2: "'smcp' Lowercase to Small Capitals in Latin lookup 21 subtable" a.smcp
Substitution2: "'c2sc' Capitals to Small Capitals in Latin lookup 20 subtable" a.smcp
EndChar

StartChar: b
Encoding: 98 98 66
Width: 579
Flags: MW
HStem: -10 59<251.5 340.5 251.5 351> 474 20G<266.5 404> 673 20G
LayerCount: 2
Fore
SplineSet
519 357 m 2,0,-1
 519 158 l 2,1,2
 519 114 519 114 506 82 c 128,-1,3
 493 50 493 50 473.5 32.5 c 128,-1,4
 454 15 454 15 422 5 c 128,-1,5
 390 -5 390 -5 362 -7.5 c 128,-1,6
 334 -10 334 -10 294 -10 c 0,7,8
 242 -10 242 -10 209 -5 c 128,-1,9
 176 0 176 0 143 16 c 128,-1,10
 110 32 110 32 94 67.5 c 128,-1,11
 78 103 78 103 78 158 c 2,12,-1
 78 700 l 1,13,-1
 168 700 l 1,14,-1
 168 555 l 2,15,16
 168 536 168 536 167.5 497.5 c 128,-1,17
 167 459 167 459 167 440 c 1,18,19
 171 463 171 463 208.5 478.5 c 128,-1,20
 246 494 246 494 319 494 c 0,21,22
 519 494 519 494 519 357 c 2,0,-1
427 145 m 2,23,-1
 427 335 l 2,24,25
 427 397 427 397 398 413.5 c 128,-1,26
 369 430 369 430 295 430 c 0,27,28
 224 430 224 430 196 411 c 128,-1,29
 168 392 168 392 168 335 c 2,30,-1
 168 145 l 2,31,32
 168 84 168 84 195.5 66.5 c 128,-1,33
 223 49 223 49 296 49 c 0,34,35
 370 49 370 49 398.5 66.5 c 128,-1,36
 427 84 427 84 427 145 c 2,23,-1
EndSplineSet
Substitution2: "'smcp' Lowercase to Small Capitals in Latin lookup 21 subtable" b.smcp
Substitution2: "'c2sc' Capitals to Small Capitals in Latin lookup 20 subtable" b.smcp
EndChar

StartChar: c
Encoding: 99 99 67
Width: 464
Flags: MW
HStem: -10 21G<214.5 293> 433 61<222 299>
LayerCount: 2
Fore
SplineSet
428 4 m 1,0,1
 362 -10 362 -10 273 -10 c 0,2,3
 229 -10 229 -10 204.5 -8.5 c 128,-1,4
 180 -7 180 -7 148.5 1.5 c 128,-1,5
 117 10 117 10 100.5 26 c 128,-1,6
 84 42 84 42 72 72.5 c 128,-1,7
 60 103 60 103 60 148 c 2,8,-1
 60 326 l 2,9,10
 60 366 60 366 67.5 395 c 128,-1,11
 75 424 75 424 91 442 c 128,-1,12
 107 460 107 460 124 471 c 128,-1,13
 141 482 141 482 170.5 486.5 c 128,-1,14
 200 491 200 491 222.5 492.5 c 128,-1,15
 245 494 245 494 283 494 c 0,16,17
 352 494 352 494 421 479 c 1,18,-1
 421 413 l 1,19,20
 343 433 343 433 272 433 c 0,21,22
 197 433 197 433 174.5 415 c 128,-1,23
 152 397 152 397 152 339 c 2,24,-1
 152 141 l 2,25,26
 152 88 152 88 177.5 70.5 c 128,-1,27
 203 53 203 53 282 53 c 0,28,29
 353 53 353 53 428 72 c 1,30,-1
 428 4 l 1,0,1
EndSplineSet
Substitution2: "'smcp' Lowercase to Small Capitals in Latin lookup 21 subtable" c.smcp
Substitution2: "'c2sc' Capitals to Small Capitals in Latin lookup 20 subtable" c.smcp
EndChar

StartChar: d
Encoding: 100 100 68
Width: 571
Flags: MW
HStem: -10 62<226 304.5> 0 21G<413 501 413 413> 474 20G<184.5 287> 673 20G
LayerCount: 2
Fore
SplineSet
501 0 m 1,0,-1
 413 0 l 1,1,-1
 413 57 l 2,2,3
 413 31 413 31 369.5 10.5 c 128,-1,4
 326 -10 326 -10 251 -10 c 0,5,6
 146 -10 146 -10 103 23 c 128,-1,7
 60 56 60 56 60 144 c 2,8,-1
 60 357 l 2,9,10
 60 430 60 430 105 462 c 128,-1,11
 150 494 150 494 256 494 c 0,12,13
 313 494 313 494 361.5 479 c 128,-1,14
 410 464 410 464 411 432 c 1,15,-1
 413 432 l 1,16,17
 411 514 411 514 411 555 c 2,18,-1
 411 700 l 1,19,-1
 501 700 l 1,20,-1
 501 0 l 1,0,-1
411 127 m 2,21,-1
 411 366 l 2,22,23
 411 431 411 431 278 431 c 0,24,25
 198 431 198 431 173.5 419 c 128,-1,26
 149 407 149 407 149 366 c 2,27,-1
 149 127 l 2,28,29
 149 86 149 86 176.5 69 c 128,-1,30
 204 52 204 52 270 52 c 0,31,32
 344 52 344 52 377.5 69 c 128,-1,33
 411 86 411 86 411 127 c 2,21,-1
EndSplineSet
Substitution2: "'smcp' Lowercase to Small Capitals in Latin lookup 21 subtable" d.smcp
Substitution2: "'c2sc' Capitals to Small Capitals in Latin lookup 20 subtable" d.smcp
EndChar

StartChar: e
Encoding: 101 101 69
Width: 535
Flags: MW
HStem: -10 21G<216.5 318.5> 222 59<151 386 151 476 151 386> 434 60<232.5 309.5>
LayerCount: 2
Fore
SplineSet
476 222 m 1,0,-1
 151 222 l 1,1,-1
 151 149 l 2,2,3
 151 98 151 98 187 76.5 c 128,-1,4
 223 55 223 55 294 55 c 0,5,6
 363 55 363 55 457 79 c 1,7,-1
 457 10 l 1,8,9
 367 -10 367 -10 282 -10 c 0,10,11
 60 -10 60 -10 60 138 c 2,12,-1
 60 329 l 2,13,14
 60 418 60 418 111 456 c 128,-1,15
 162 494 162 494 274 494 c 0,16,17
 379 494 379 494 427.5 457.5 c 128,-1,18
 476 421 476 421 476 329 c 2,19,-1
 476 222 l 1,0,-1
386 281 m 1,20,-1
 386 357 l 2,21,22
 386 401 386 401 359 417.5 c 128,-1,23
 332 434 332 434 269 434 c 0,24,25
 209 434 209 434 180 418 c 128,-1,26
 151 402 151 402 151 357 c 2,27,-1
 151 281 l 1,28,-1
 386 281 l 1,20,-1
EndSplineSet
Substitution2: "'smcp' Lowercase to Small Capitals in Latin lookup 21 subtable" e.smcp
Substitution2: "'c2sc' Capitals to Small Capitals in Latin lookup 20 subtable" e.smcp
EndChar

StartChar: f
Encoding: 102 102 70
Width: 380
Flags: MW
HStem: 0 21G<121 211 121 121> 425 59<10 121 10 121 211 372> 644 59
LayerCount: 2
Fore
SplineSet
372 425 m 1,0,-1
 211 425 l 1,1,-1
 211 0 l 1,2,-1
 121 0 l 1,3,-1
 121 425 l 1,4,-1
 10 425 l 1,5,-1
 10 484 l 1,6,-1
 121 484 l 1,7,-1
 121 562 l 2,8,9
 121 644 121 644 167 677 c 128,-1,10
 213 710 213 710 301 710 c 0,11,12
 340 710 340 710 382 705 c 1,13,-1
 382 646 l 1,14,15
 347 651 347 651 304 651 c 0,16,17
 255 651 255 651 233 634 c 128,-1,18
 211 617 211 617 211 568 c 2,19,-1
 211 484 l 1,20,-1
 372 484 l 1,21,-1
 372 425 l 1,0,-1
EndSplineSet
Substitution2: "'smcp' Lowercase to Small Capitals in Latin lookup 21 subtable" f.smcp
Substitution2: "'c2sc' Capitals to Small Capitals in Latin lookup 20 subtable" f.smcp
EndChar

StartChar: g
Encoding: 103 103 71
Width: 569
Flags: MW
HStem: -208 61 -10 60<223.5 283.5> 432 62<218 304.5 188.5 325> 464 20G<407 491 491 491>
LayerCount: 2
Fore
SplineSet
491 484 m 1,0,-1
 491 -46 l 2,1,2
 491 -149 491 -149 433.5 -184.5 c 128,-1,3
 376 -220 376 -220 261 -220 c 0,4,5
 158 -220 158 -220 94 -209 c 1,6,-1
 94 -145 l 1,7,8
 209 -159 209 -159 269 -159 c 0,9,10
 338 -159 338 -159 369.5 -137 c 128,-1,11
 401 -115 401 -115 401 -64 c 2,12,-1
 401 52 l 1,13,14
 399 18 399 18 354.5 4 c 128,-1,15
 310 -10 310 -10 253 -10 c 0,16,17
 141 -10 141 -10 100.5 23 c 128,-1,18
 60 56 60 56 60 137 c 2,19,-1
 60 334 l 2,20,21
 60 420 60 420 106.5 457 c 128,-1,22
 153 494 153 494 259 494 c 0,23,24
 385 494 385 494 407 437 c 1,25,-1
 407 484 l 1,26,-1
 491 484 l 1,0,-1
401 131 m 2,27,-1
 401 350 l 2,28,29
 401 397 401 397 375.5 414.5 c 128,-1,30
 350 432 350 432 270 432 c 0,31,32
 195 432 195 432 172 415 c 128,-1,33
 149 398 149 398 149 350 c 2,34,-1
 149 131 l 2,35,36
 149 81 149 81 173.5 65.5 c 128,-1,37
 198 50 198 50 272 50 c 0,38,39
 340 50 340 50 370.5 66.5 c 128,-1,40
 401 83 401 83 401 131 c 2,27,-1
EndSplineSet
Substitution2: "'smcp' Lowercase to Small Capitals in Latin lookup 21 subtable" g.smcp
Substitution2: "'c2sc' Capitals to Small Capitals in Latin lookup 20 subtable" g.smcp
Substitution2: "'ss02' Style Set 2 in Latin lookup 3 subtable" g.alt
EndChar

StartChar: h
Encoding: 104 104 72
Width: 573
Flags: MW
HStem: 0 21G<78 168 78 78 405 495 405 405> 474 20G<288.5 395> 673 20G
LayerCount: 2
Fore
SplineSet
495 0 m 1,0,-1
 405 0 l 1,1,-1
 405 349 l 2,2,3
 405 367 405 367 402 379 c 128,-1,4
 399 391 399 391 389.5 403.5 c 128,-1,5
 380 416 380 416 357.5 422.5 c 128,-1,6
 335 429 335 429 301 429 c 0,7,8
 218 429 218 429 193 411 c 128,-1,9
 168 393 168 393 168 349 c 2,10,-1
 168 0 l 1,11,-1
 78 0 l 1,12,-1
 78 700 l 1,13,-1
 168 700 l 1,14,-1
 168 425 l 1,15,16
 182 494 182 494 327 494 c 0,17,18
 423 494 423 494 459 459.5 c 128,-1,19
 495 425 495 425 495 355 c 2,20,-1
 495 0 l 1,0,-1
EndSplineSet
Substitution2: "'smcp' Lowercase to Small Capitals in Latin lookup 21 subtable" h.smcp
Substitution2: "'c2sc' Capitals to Small Capitals in Latin lookup 20 subtable" h.smcp
EndChar

StartChar: i
Encoding: 105 105 73
Width: 246
Flags: MW
HStem: 0 21G<78 168 78 78> 464 20G<78 168 168 168> 640 20G
LayerCount: 2
Fore
SplineSet
168 565 m 1,0,-1
 78 565 l 1,1,-1
 78 659 l 1,2,-1
 168 659 l 1,3,-1
 168 565 l 1,0,-1
168 0 m 1,4,-1
 78 0 l 1,5,-1
 78 484 l 1,6,-1
 168 484 l 1,7,-1
 168 0 l 1,4,-1
EndSplineSet
Substitution2: "'smcp' Lowercase to Small Capitals in Latin lookup 21 subtable" i.smcp
Substitution2: "'c2sc' Capitals to Small Capitals in Latin lookup 20 subtable" i.smcp
Substitution2: "'locl' Localized Forms in Latin lookup 5 subtable" i.locl
Substitution2: "'aalt' Access All Alternates in Latin lookup 0 subtable" i.locl
EndChar

StartChar: j
Encoding: 106 106 74
Width: 247
Flags: MW
HStem: -208 21G 464 20G<79 169 169 169> 640 20G
LayerCount: 2
Fore
SplineSet
169 565 m 1,0,-1
 79 565 l 1,1,-1
 79 659 l 1,2,-1
 169 659 l 1,3,-1
 169 565 l 1,0,-1
169 484 m 1,4,-1
 169 -73 l 2,5,6
 169 -156 169 -156 130 -188 c 128,-1,7
 91 -220 91 -220 8 -220 c 0,8,9
 -17 -220 -17 -220 -43 -216 c 1,10,-1
 -43 -157 l 1,11,12
 -19 -161 -19 -161 -5 -161 c 0,13,14
 37 -161 37 -161 58 -144.5 c 128,-1,15
 79 -128 79 -128 79 -80 c 2,16,-1
 79 484 l 1,17,-1
 169 484 l 1,4,-1
EndSplineSet
Substitution2: "'smcp' Lowercase to Small Capitals in Latin lookup 21 subtable" j.smcp
Substitution2: "'c2sc' Capitals to Small Capitals in Latin lookup 20 subtable" j.smcp
EndChar

StartChar: k
Encoding: 107 107 75
Width: 514
Flags: MW
HStem: 0 21G<78 168 78 78 400 512 400 400> 464 20G<383 493 493 493> 673 20G
LayerCount: 2
Fore
SplineSet
512 0 m 1,0,-1
 400 0 l 1,1,-1
 179 265 l 1,2,-1
 383 484 l 1,3,-1
 493 484 l 1,4,-1
 283 265 l 1,5,-1
 512 0 l 1,0,-1
168 0 m 1,6,-1
 78 0 l 1,7,-1
 78 700 l 1,8,-1
 168 700 l 1,9,-1
 168 0 l 1,6,-1
EndSplineSet
Substitution2: "'smcp' Lowercase to Small Capitals in Latin lookup 21 subtable" k.smcp
Substitution2: "'c2sc' Capitals to Small Capitals in Latin lookup 20 subtable" k.smcp
EndChar

StartChar: l
Encoding: 108 108 76
Width: 246
Flags: MW
HStem: 0 21G<78 168 78 78> 673 20G
LayerCount: 2
Fore
SplineSet
168 0 m 1,0,-1
 78 0 l 1,1,-1
 78 700 l 1,2,-1
 168 700 l 1,3,-1
 168 0 l 1,0,-1
EndSplineSet
Substitution2: "'smcp' Lowercase to Small Capitals in Latin lookup 21 subtable" l.smcp
Substitution2: "'c2sc' Capitals to Small Capitals in Latin lookup 20 subtable" l.smcp
EndChar

StartChar: m
Encoding: 109 109 77
Width: 890
Flags: MW
HStem: 0 21G<78 168 78 78 404 494 404 404 722 812 722 722> 464 20G<78 168 168 168> 474 20G<291 375 610.5 713.5>
LayerCount: 2
Fore
SplineSet
812 0 m 1,0,-1
 722 0 l 1,1,-1
 722 349 l 2,2,3
 722 367 722 367 719 379 c 128,-1,4
 716 391 716 391 706.5 403.5 c 128,-1,5
 697 416 697 416 674.5 422.5 c 128,-1,6
 652 429 652 429 618 429 c 0,7,8
 539 429 539 429 516.5 412 c 128,-1,9
 494 395 494 395 494 349 c 2,10,-1
 494 0 l 1,11,-1
 404 0 l 1,12,-1
 404 349 l 2,13,14
 404 367 404 367 401 379 c 128,-1,15
 398 391 398 391 388.5 403.5 c 128,-1,16
 379 416 379 416 357 422.5 c 128,-1,17
 335 429 335 429 301 429 c 0,18,19
 221 429 221 429 194.5 412.5 c 128,-1,20
 168 396 168 396 168 349 c 2,21,-1
 168 0 l 1,22,-1
 78 0 l 1,23,-1
 78 484 l 1,24,-1
 168 484 l 1,25,-1
 168 425 l 1,26,27
 182 494 182 494 331 494 c 0,28,29
 452 494 452 494 482 428 c 1,30,31
 492 462 492 462 538.5 478 c 128,-1,32
 585 494 585 494 648 494 c 0,33,34
 741 494 741 494 776.5 459.5 c 128,-1,35
 812 425 812 425 812 355 c 2,36,-1
 812 0 l 1,0,-1
EndSplineSet
Substitution2: "'smcp' Lowercase to Small Capitals in Latin lookup 21 subtable" m.smcp
Substitution2: "'c2sc' Capitals to Small Capitals in Latin lookup 20 subtable" m.smcp
EndChar

StartChar: n
Encoding: 110 110 78
Width: 573
Flags: MW
HStem: 0 21G<78 168 78 78 405 495 405 405> 464 20G<78 168 168 168> 474 20G<288.5 395>
LayerCount: 2
Fore
SplineSet
495 0 m 1,0,-1
 405 0 l 1,1,-1
 405 350 l 2,2,3
 405 368 405 368 402 380 c 128,-1,4
 399 392 399 392 389.5 404.5 c 128,-1,5
 380 417 380 417 357.5 423.5 c 128,-1,6
 335 430 335 430 301 430 c 0,7,8
 222 430 222 430 195 413 c 128,-1,9
 168 396 168 396 168 350 c 2,10,-1
 168 0 l 1,11,-1
 78 0 l 1,12,-1
 78 484 l 1,13,-1
 168 484 l 1,14,-1
 168 425 l 1,15,16
 182 494 182 494 327 494 c 0,17,18
 423 494 423 494 459 459.5 c 128,-1,19
 495 425 495 425 495 355 c 2,20,-1
 495 0 l 1,0,-1
EndSplineSet
Substitution2: "'smcp' Lowercase to Small Capitals in Latin lookup 21 subtable" n.smcp
Substitution2: "'c2sc' Capitals to Small Capitals in Latin lookup 20 subtable" n.smcp
EndChar

StartChar: o
Encoding: 111 111 79
Width: 568
Flags: MW
HStem: -10 59<238.5 327.5 238.5 350> 435 59<237.5 328.5>
LayerCount: 2
Fore
SplineSet
506 321 m 2,0,-1
 506 153 l 2,1,2
 506 108 506 108 495 77 c 128,-1,3
 484 46 484 46 467 29 c 128,-1,4
 450 12 450 12 418.5 3 c 128,-1,5
 387 -6 387 -6 358.5 -8 c 128,-1,6
 330 -10 330 -10 283 -10 c 0,7,8
 223 -10 223 -10 189.5 -6 c 128,-1,9
 156 -2 156 -2 122.5 13.5 c 128,-1,10
 89 29 89 29 74.5 63 c 128,-1,11
 60 97 60 97 60 153 c 2,12,-1
 60 321 l 2,13,14
 60 369 60 369 71.5 402 c 128,-1,15
 83 435 83 435 99.5 453 c 128,-1,16
 116 471 116 471 148 480.5 c 128,-1,17
 180 490 180 490 207.5 492 c 128,-1,18
 235 494 235 494 283 494 c 128,-1,19
 331 494 331 494 358.5 492 c 128,-1,20
 386 490 386 490 418 480.5 c 128,-1,21
 450 471 450 471 466.5 453 c 128,-1,22
 483 435 483 435 494.5 402 c 128,-1,23
 506 369 506 369 506 321 c 2,0,-1
414 140 m 2,24,-1
 414 336 l 2,25,26
 414 403 414 403 387 419 c 128,-1,27
 360 435 360 435 283 435 c 128,-1,28
 206 435 206 435 179 419 c 128,-1,29
 152 403 152 403 152 336 c 2,30,-1
 152 140 l 2,31,32
 152 108 152 108 159 89 c 128,-1,33
 166 70 166 70 185 61.5 c 128,-1,34
 204 53 204 53 224 51 c 128,-1,35
 244 49 244 49 283 49 c 128,-1,36
 322 49 322 49 342 51 c 128,-1,37
 362 53 362 53 381 61.5 c 128,-1,38
 400 70 400 70 407 89 c 128,-1,39
 414 108 414 108 414 140 c 2,24,-1
EndSplineSet
Substitution2: "'smcp' Lowercase to Small Capitals in Latin lookup 21 subtable" o.smcp
Substitution2: "'c2sc' Capitals to Small Capitals in Latin lookup 20 subtable" o.smcp
EndChar

StartChar: p
Encoding: 112 112 80
Width: 579
Flags: MW
HStem: -198 21G -10 61<272 340.5 251.5 351> 464 20G<78 167 167 167> 474 20G<287.5 403.5>
LayerCount: 2
Fore
SplineSet
519 158 m 2,0,1
 519 114 519 114 506 82 c 128,-1,2
 493 50 493 50 473.5 32.5 c 128,-1,3
 454 15 454 15 422 5 c 128,-1,4
 390 -5 390 -5 362 -7.5 c 128,-1,5
 334 -10 334 -10 294 -10 c 128,-1,6
 254 -10 254 -10 216 0 c 128,-1,7
 178 10 178 10 168 31 c 1,8,-1
 168 -208 l 1,9,-1
 78 -208 l 1,10,-1
 78 484 l 1,11,-1
 167 484 l 1,12,-1
 167 432 l 1,13,-1
 168 432 l 1,14,15
 179 494 179 494 333 494 c 0,16,17
 430 494 430 494 474.5 453.5 c 128,-1,18
 519 413 519 413 519 357 c 2,19,-1
 519 158 l 2,0,1
427 147 m 2,20,-1
 427 325 l 2,21,22
 427 392 427 392 398 410.5 c 128,-1,23
 369 429 369 429 295 429 c 128,-1,24
 221 429 221 429 194.5 411 c 128,-1,25
 168 393 168 393 168 325 c 2,26,-1
 168 147 l 2,27,28
 168 86 168 86 195.5 68.5 c 128,-1,29
 223 51 223 51 296 51 c 0,30,31
 370 51 370 51 398.5 68.5 c 128,-1,32
 427 86 427 86 427 147 c 2,20,-1
EndSplineSet
Substitution2: "'smcp' Lowercase to Small Capitals in Latin lookup 21 subtable" p.smcp
Substitution2: "'c2sc' Capitals to Small Capitals in Latin lookup 20 subtable" p.smcp
EndChar

StartChar: q
Encoding: 113 113 81
Width: 579
Flags: MW
HStem: -198 21G -10 62<256.5 318> 474 20G<221.5 384>
LayerCount: 2
Fore
SplineSet
519 -208 m 1,0,-1
 429 -208 l 1,1,-1
 429 31 l 1,2,3
 409 -10 409 -10 283 -10 c 0,4,5
 240 -10 240 -10 212.5 -7.5 c 128,-1,6
 185 -5 185 -5 157 5 c 128,-1,7
 129 15 129 15 113.5 33 c 128,-1,8
 98 51 98 51 88 82 c 128,-1,9
 78 113 78 113 78 158 c 2,10,-1
 78 337 l 2,11,12
 78 420 78 420 130 457 c 128,-1,13
 182 494 182 494 305 494 c 0,14,15
 422 494 422 494 470.5 457.5 c 128,-1,16
 519 421 519 421 519 337 c 2,17,-1
 519 -208 l 1,0,-1
429 148 m 2,18,-1
 429 325 l 2,19,20
 429 393 429 393 402.5 411 c 128,-1,21
 376 429 376 429 302 429 c 0,22,23
 213 429 213 429 191.5 411 c 128,-1,24
 170 393 170 393 170 325 c 2,25,-1
 170 148 l 2,26,27
 170 87 170 87 198.5 69.5 c 128,-1,28
 227 52 227 52 301 52 c 0,29,30
 377 52 377 52 403 70.5 c 128,-1,31
 429 89 429 89 429 148 c 2,18,-1
EndSplineSet
Substitution2: "'smcp' Lowercase to Small Capitals in Latin lookup 21 subtable" q.smcp
Substitution2: "'c2sc' Capitals to Small Capitals in Latin lookup 20 subtable" q.smcp
EndChar

StartChar: r
Encoding: 114 114 82
Width: 351
Flags: MW
HStem: 0 21G<78 168 78 78> 464 20G<78 163 163 163> 474 20G<295 339 339 339>
LayerCount: 2
Fore
SplineSet
339 417 m 1,0,-1
 289 417 l 2,1,2
 227 417 227 417 197.5 401 c 128,-1,3
 168 385 168 385 168 341 c 2,4,-1
 168 0 l 1,5,-1
 78 0 l 1,6,-1
 78 484 l 1,7,-1
 163 484 l 1,8,-1
 163 405 l 2,9,10
 163 440 163 440 206.5 467 c 128,-1,11
 250 494 250 494 295 494 c 2,12,-1
 339 494 l 1,13,-1
 339 417 l 1,0,-1
EndSplineSet
Substitution2: "'smcp' Lowercase to Small Capitals in Latin lookup 21 subtable" r.smcp
Substitution2: "'c2sc' Capitals to Small Capitals in Latin lookup 20 subtable" r.smcp
Substitution2: "'ss02' Style Set 2 in Latin lookup 3 subtable" r.alt
EndChar

StartChar: s
Encoding: 115 115 83
Width: 483
Flags: MW
HStem: -10 62<203 262 195 287.5> 435 59<212 287.5>
LayerCount: 2
Fore
SplineSet
437 170 m 2,0,-1
 437 128 l 2,1,2
 437 50 437 50 382.5 20 c 128,-1,3
 328 -10 328 -10 226 -10 c 0,4,5
 148 -10 148 -10 60 2 c 1,6,-1
 60 71 l 1,7,8
 180 52 180 52 228 52 c 0,9,10
 288 52 288 52 318 63.5 c 128,-1,11
 348 75 348 75 348 111 c 2,12,-1
 348 160 l 2,13,14
 348 191 348 191 327 204 c 128,-1,15
 306 217 306 217 259 217 c 2,16,-1
 204 217 l 2,17,18
 128 217 128 217 89 248.5 c 128,-1,19
 50 280 50 280 50 335 c 2,20,-1
 50 380 l 2,21,22
 50 494 50 494 266 494 c 0,23,24
 290 494 290 494 413 486 c 1,25,-1
 413 421 l 1,26,27
 327 435 327 435 262 435 c 0,28,29
 190 435 190 435 164.5 421 c 128,-1,30
 139 407 139 407 139 374 c 2,31,-1
 139 333 l 2,32,33
 139 284 139 284 228 284 c 2,34,-1
 284 284 l 2,35,36
 437 284 437 284 437 170 c 2,0,-1
EndSplineSet
Substitution2: "'smcp' Lowercase to Small Capitals in Latin lookup 21 subtable" s.smcp
Substitution2: "'c2sc' Capitals to Small Capitals in Latin lookup 20 subtable" s.smcp
EndChar

StartChar: t
Encoding: 116 116 84
Width: 402
Flags: MW
HStem: -10 59<269.5 294> 425 59<10 118 10 118 209 382> 614 20G<118 209 209 209>
LayerCount: 2
Fore
SplineSet
382 -2 m 1,0,1
 334 -10 334 -10 281 -10 c 0,2,3
 190 -10 190 -10 154 21.5 c 128,-1,4
 118 53 118 53 118 141 c 2,5,-1
 118 425 l 1,6,-1
 10 425 l 1,7,-1
 10 484 l 1,8,-1
 118 484 l 1,9,-1
 118 634 l 1,10,-1
 209 634 l 1,11,-1
 209 484 l 1,12,-1
 382 484 l 1,13,-1
 382 425 l 1,14,-1
 209 425 l 1,15,-1
 209 136 l 2,16,17
 209 84 209 84 229 66.5 c 128,-1,18
 249 49 249 49 310 49 c 0,19,20
 326 49 326 49 382 57 c 1,21,-1
 382 -2 l 1,0,1
EndSplineSet
Substitution2: "'smcp' Lowercase to Small Capitals in Latin lookup 21 subtable" t.smcp
Substitution2: "'c2sc' Capitals to Small Capitals in Latin lookup 20 subtable" t.smcp
EndChar

StartChar: u
Encoding: 117 117 85
Width: 573
Flags: MW
HStem: -10 21G<178 284.5> 0 21G<405 495 405 405> 464 20G<78 168 168 168 405 495 495 495>
LayerCount: 2
Fore
SplineSet
495 0 m 1,0,-1
 405 0 l 1,1,-1
 405 59 l 1,2,3
 391 -10 391 -10 246 -10 c 0,4,5
 150 -10 150 -10 114 24.5 c 128,-1,6
 78 59 78 59 78 129 c 2,7,-1
 78 484 l 1,8,-1
 168 484 l 1,9,-1
 168 134 l 2,10,11
 168 116 168 116 171 104 c 128,-1,12
 174 92 174 92 183.5 79.5 c 128,-1,13
 193 67 193 67 215.5 60.5 c 128,-1,14
 238 54 238 54 272 54 c 0,15,16
 347 54 347 54 376 68 c 128,-1,17
 405 82 405 82 405 119 c 2,18,-1
 405 484 l 1,19,-1
 495 484 l 1,20,-1
 495 0 l 1,0,-1
EndSplineSet
Substitution2: "'smcp' Lowercase to Small Capitals in Latin lookup 21 subtable" u.smcp
Substitution2: "'c2sc' Capitals to Small Capitals in Latin lookup 20 subtable" u.smcp
EndChar

StartChar: v
Encoding: 118 118 86
Width: 463
Flags: MW
HStem: 0 21G<180 288 180 180> 464 20G<6 101 101 101 370 457 457 457>
LayerCount: 2
Fore
SplineSet
457 484 m 1,0,-1
 288 0 l 1,1,-1
 180 0 l 1,2,-1
 6 484 l 1,3,-1
 101 484 l 1,4,-1
 235 78 l 1,5,-1
 240 78 l 1,6,-1
 370 484 l 1,7,-1
 457 484 l 1,0,-1
EndSplineSet
Substitution2: "'smcp' Lowercase to Small Capitals in Latin lookup 21 subtable" v.smcp
Substitution2: "'c2sc' Capitals to Small Capitals in Latin lookup 20 subtable" v.smcp
EndChar

StartChar: w
Encoding: 119 119 87
Width: 792
Flags: MW
HStem: 0 21G<175 282 175 175 514 621 514 514> 464 20G<12 111 111 111 349 450 450 450 688 780 780 780>
LayerCount: 2
Fore
SplineSet
780 484 m 1,0,-1
 621 0 l 1,1,-1
 514 0 l 1,2,-1
 397 391 l 1,3,-1
 282 0 l 1,4,-1
 175 0 l 1,5,-1
 12 484 l 1,6,-1
 111 484 l 1,7,-1
 229 86 l 1,8,-1
 235 86 l 1,9,-1
 349 484 l 1,10,-1
 450 484 l 1,11,-1
 568 86 l 1,12,-1
 574 86 l 1,13,-1
 688 484 l 1,14,-1
 780 484 l 1,0,-1
EndSplineSet
Substitution2: "'smcp' Lowercase to Small Capitals in Latin lookup 21 subtable" w.smcp
Substitution2: "'c2sc' Capitals to Small Capitals in Latin lookup 20 subtable" w.smcp
EndChar

StartChar: x
Encoding: 120 120 88
Width: 479
Flags: MW
HStem: 0 21G<10 109 10 10 370 469 370 370> 464 20G<20 119 119 119 360 459 459 459>
LayerCount: 2
Fore
SplineSet
469 0 m 1,0,-1
 370 0 l 1,1,-1
 239 191 l 1,2,-1
 109 0 l 1,3,-1
 10 0 l 1,4,-1
 190 249 l 1,5,-1
 20 484 l 1,6,-1
 119 484 l 1,7,-1
 239 307 l 1,8,-1
 360 484 l 1,9,-1
 459 484 l 1,10,-1
 289 249 l 1,11,-1
 469 0 l 1,0,-1
EndSplineSet
Substitution2: "'smcp' Lowercase to Small Capitals in Latin lookup 21 subtable" x.smcp
Substitution2: "'c2sc' Capitals to Small Capitals in Latin lookup 20 subtable" x.smcp
EndChar

StartChar: y
Encoding: 121 121 89
Width: 460
Flags: MW
HStem: -198 21G 464 20G<6 104 104 104 363 454 454 454>
LayerCount: 2
Fore
SplineSet
454 484 m 1,0,-1
 211 -208 l 1,1,-1
 117 -208 l 1,2,-1
 193 -7 l 1,3,-1
 6 484 l 1,4,-1
 104 484 l 1,5,-1
 239 89 l 1,6,-1
 241 89 l 1,7,-1
 363 484 l 1,8,-1
 454 484 l 1,0,-1
EndSplineSet
Substitution2: "'smcp' Lowercase to Small Capitals in Latin lookup 21 subtable" y.smcp
Substitution2: "'c2sc' Capitals to Small Capitals in Latin lookup 20 subtable" y.smcp
EndChar

StartChar: z
Encoding: 122 122 90
Width: 454
Flags: MW
HStem: 0 61<142 420 40 40> 423 61<50 312 50 414 50 414>
LayerCount: 2
Fore
SplineSet
420 0 m 1,0,-1
 40 0 l 1,1,-1
 40 61 l 1,2,-1
 312 423 l 1,3,-1
 50 423 l 1,4,-1
 50 484 l 1,5,-1
 414 484 l 1,6,-1
 414 423 l 1,7,-1
 142 61 l 1,8,-1
 420 61 l 1,9,-1
 420 0 l 1,0,-1
EndSplineSet
Substitution2: "'smcp' Lowercase to Small Capitals in Latin lookup 21 subtable" z.smcp
Substitution2: "'c2sc' Capitals to Small Capitals in Latin lookup 20 subtable" z.smcp
EndChar

StartChar: braceleft
Encoding: 123 123 91
Width: 330
Flags: MW
HStem: -190 21G<230 267 267 286> 716 20G<267 286 286 286>
LayerCount: 2
Fore
SplineSet
286 -190 m 1,0,-1
 267 -190 l 2,1,2
 246 -190 246 -190 235.5 -189.5 c 128,-1,3
 225 -189 225 -189 207.5 -186 c 128,-1,4
 190 -183 190 -183 180.5 -177.5 c 128,-1,5
 171 -172 171 -172 159 -161 c 128,-1,6
 147 -150 147 -150 141 -134 c 128,-1,7
 135 -118 135 -118 130.5 -94 c 128,-1,8
 126 -70 126 -70 126 -38 c 2,9,-1
 126 192 l 2,10,11
 126 248 126 248 117 260.5 c 128,-1,12
 108 273 108 273 64 273 c 1,13,-1
 64 325 l 1,14,15
 108 325 108 325 117 337.5 c 128,-1,16
 126 350 126 350 126 406 c 2,17,-1
 126 584 l 2,18,19
 126 616 126 616 130.5 640 c 128,-1,20
 135 664 135 664 141 680 c 128,-1,21
 147 696 147 696 159 707 c 128,-1,22
 171 718 171 718 180.5 723.5 c 128,-1,23
 190 729 190 729 207.5 732 c 128,-1,24
 225 735 225 735 235.5 735.5 c 128,-1,25
 246 736 246 736 267 736 c 2,26,-1
 286 736 l 1,27,-1
 286 688 l 1,28,-1
 276 688 l 2,29,30
 251 688 251 688 233 671 c 128,-1,31
 215 654 215 654 215 623 c 2,32,-1
 215 441 l 2,33,34
 215 380 215 380 198.5 348.5 c 128,-1,35
 182 317 182 317 136 301 c 1,36,-1
 136 297 l 1,37,38
 182 282 182 282 198.5 250.5 c 128,-1,39
 215 219 215 219 215 157 c 2,40,-1
 215 -77 l 2,41,42
 215 -108 215 -108 233 -125 c 128,-1,43
 251 -142 251 -142 276 -142 c 2,44,-1
 286 -142 l 1,45,-1
 286 -190 l 1,0,-1
EndSplineSet
Substitution2: "'smcp' Lowercase to Small Capitals in Latin lookup 21 subtable" braceleft.smcp
Substitution2: "'c2sc' Capitals to Small Capitals in Latin lookup 20 subtable" braceleft.smcp
EndChar

StartChar: bar
Encoding: 124 124 92
Width: 335
Flags: MW
HStem: -10 21G<140 195 140 140> 639 20G<140 195 195 195>
LayerCount: 2
Fore
SplineSet
195 -10 m 1,0,-1
 140 -10 l 1,1,-1
 140 659 l 1,2,-1
 195 659 l 1,3,-1
 195 -10 l 1,0,-1
EndSplineSet
EndChar

StartChar: braceright
Encoding: 125 125 93
Width: 330
Flags: MW
HStem: -190 21G<44 63 44 44> 716 20G<44 63 63 100>
LayerCount: 2
Fore
SplineSet
63 -190 m 2,0,-1
 44 -190 l 1,1,-1
 44 -142 l 1,2,-1
 54 -142 l 2,3,4
 79 -142 79 -142 97 -125 c 128,-1,5
 115 -108 115 -108 115 -77 c 2,6,-1
 115 157 l 2,7,8
 115 219 115 219 131.5 250.5 c 128,-1,9
 148 282 148 282 194 297 c 1,10,-1
 194 301 l 1,11,12
 148 317 148 317 131.5 348.5 c 128,-1,13
 115 380 115 380 115 441 c 2,14,-1
 115 623 l 2,15,16
 115 654 115 654 97 671 c 128,-1,17
 79 688 79 688 54 688 c 2,18,-1
 44 688 l 1,19,-1
 44 736 l 1,20,-1
 63 736 l 2,21,22
 84 736 84 736 94.5 735.5 c 128,-1,23
 105 735 105 735 122.5 732 c 128,-1,24
 140 729 140 729 149.5 723.5 c 128,-1,25
 159 718 159 718 171 707 c 128,-1,26
 183 696 183 696 189 680 c 128,-1,27
 195 664 195 664 199.5 640 c 128,-1,28
 204 616 204 616 204 584 c 2,29,-1
 204 406 l 2,30,31
 204 350 204 350 213 337.5 c 128,-1,32
 222 325 222 325 266 325 c 1,33,-1
 266 273 l 1,34,35
 222 273 222 273 213 260.5 c 128,-1,36
 204 248 204 248 204 192 c 2,37,-1
 204 -38 l 2,38,39
 204 -70 204 -70 199.5 -94 c 128,-1,40
 195 -118 195 -118 189 -134 c 128,-1,41
 183 -150 183 -150 171 -161 c 128,-1,42
 159 -172 159 -172 149.5 -177.5 c 128,-1,43
 140 -183 140 -183 122.5 -186 c 128,-1,44
 105 -189 105 -189 94.5 -189.5 c 128,-1,45
 84 -190 84 -190 63 -190 c 2,0,-1
EndSplineSet
Substitution2: "'smcp' Lowercase to Small Capitals in Latin lookup 21 subtable" braceright.smcp
Substitution2: "'c2sc' Capitals to Small Capitals in Latin lookup 20 subtable" braceright.smcp
EndChar

StartChar: asciitilde
Encoding: 126 126 94
Width: 580
Flags: MW
HStem: 235 21G<68 68> 344 20G<512 512>
LayerCount: 2
Fore
SplineSet
190 361 m 0,0,1
 228 361 228 361 298.5 331.5 c 128,-1,2
 369 302 369 302 393 302 c 0,3,4
 474 302 474 302 512 364 c 1,5,-1
 512 283 l 1,6,7
 476 237 476 237 389 237 c 0,8,9
 357 237 357 237 286.5 266.5 c 128,-1,10
 216 296 216 296 186 296 c 0,11,12
 144 296 144 296 116.5 281.5 c 128,-1,13
 89 267 89 267 68 235 c 1,14,-1
 68 316 l 1,15,16
 105 361 105 361 190 361 c 0,0,1
EndSplineSet
EndChar

StartChar: exclamdown
Encoding: 161 161 95
Width: 280
Flags: MW
HStem: -165 21G<80 80 80 200> 464 20G<82 198 198 198>
LayerCount: 2
Fore
SplineSet
80 -165 m 1,0,-1
 115 305 l 1,1,-1
 165 305 l 1,2,-1
 200 -165 l 1,3,-1
 80 -165 l 1,0,-1
82 484 m 1,4,-1
 198 484 l 1,5,-1
 198 376 l 1,6,-1
 82 376 l 1,7,-1
 82 484 l 1,4,-1
EndSplineSet
Substitution2: "'smcp' Lowercase to Small Capitals in Latin lookup 21 subtable" exclamdown.smcp
Substitution2: "'c2sc' Capitals to Small Capitals in Latin lookup 20 subtable" exclamdown.smcp
Substitution2: "'ss03' Style Set 3 in Latin lookup 2 subtable" exclamdown.alt
EndChar

StartChar: cent
Encoding: 162 162 96
Width: 580
Flags: MW
HStem: -10 21G<295 352 295 295> 516 60<295 295 295 350> 639 20G<295 352 352 352>
VStem: 295 57<-10 73 576 659>
LayerCount: 2
Fore
SplineSet
352 -10 m 1,0,-1
 295 -10 l 1,1,-1
 295 73 l 1,2,3
 251 73 251 73 222 78.5 c 128,-1,4
 193 84 193 84 165.5 99.5 c 128,-1,5
 138 115 138 115 124.5 147.5 c 128,-1,6
 111 180 111 180 111 231 c 2,7,-1
 111 409 l 2,8,9
 111 461 111 461 124 495 c 128,-1,10
 137 529 137 529 164.5 545.5 c 128,-1,11
 192 562 192 562 221 568.5 c 128,-1,12
 250 575 250 575 295 576 c 1,13,-1
 295 659 l 1,14,-1
 352 659 l 1,15,-1
 352 576 l 1,16,17
 416 573 416 573 472 562 c 1,18,-1
 472 496 l 1,19,20
 387 516 387 516 323 516 c 0,21,22
 247 516 247 516 225 499.5 c 128,-1,23
 203 483 203 483 203 422 c 2,24,-1
 203 222 l 2,25,26
 203 168 203 168 228 152 c 128,-1,27
 253 136 253 136 333 136 c 0,28,29
 404 136 404 136 479 155 c 1,30,-1
 479 87 l 1,31,32
 430 75 430 75 352 73 c 1,33,-1
 352 -10 l 1,0,-1
EndSplineSet
Substitution2: "'smcp' Lowercase to Small Capitals in Latin lookup 21 subtable" cent.smcp
Substitution2: "'c2sc' Capitals to Small Capitals in Latin lookup 20 subtable" cent.smcp
EndChar

StartChar: sterling
Encoding: 163 163 97
Width: 580
Flags: MW
HStem: 0 21G<76 536 76 76> 317 62<76 187 76 187 277 448> 599 60<356 400 320.5 411 320.5 420>
LayerCount: 2
Fore
SplineSet
536 0 m 1,0,-1
 76 0 l 1,1,-1
 76 65 l 1,2,-1
 187 65 l 1,3,-1
 187 317 l 1,4,-1
 76 317 l 1,5,-1
 76 379 l 1,6,-1
 187 379 l 1,7,-1
 187 471 l 2,8,9
 187 531 187 531 199 568.5 c 128,-1,10
 211 606 211 606 238 626 c 128,-1,11
 265 646 265 646 299 652.5 c 128,-1,12
 333 659 333 659 387 659 c 0,13,14
 446 659 446 659 488 654 c 1,15,-1
 488 594 l 1,16,17
 453 599 453 599 420 599 c 2,18,-1
 411 599 l 2,19,20
 328 599 328 599 302.5 576.5 c 128,-1,21
 277 554 277 554 277 477 c 2,22,-1
 277 379 l 1,23,-1
 448 379 l 1,24,-1
 448 317 l 1,25,-1
 277 317 l 1,26,-1
 277 65 l 1,27,-1
 536 65 l 1,28,-1
 536 0 l 1,0,-1
EndSplineSet
Substitution2: "'smcp' Lowercase to Small Capitals in Latin lookup 21 subtable" sterling.smcp
Substitution2: "'c2sc' Capitals to Small Capitals in Latin lookup 20 subtable" sterling.smcp
EndChar

StartChar: currency
Encoding: 164 164 98
Width: 580
Flags: MW
HStem: 89 21G<262 316.5> 565 20G<262 316.5>
LayerCount: 2
Fore
SplineSet
539 339 m 128,-1,1
 539 253 539 253 477 176 c 1,2,-1
 531 122 l 1,3,-1
 505 96 l 1,4,-1
 451 150 l 1,5,6
 373 89 373 89 288 89 c 0,7,8
 206 89 206 89 130 148 c 1,9,-1
 76 94 l 1,10,-1
 50 120 l 1,11,-1
 104 174 l 1,12,13
 42 251 42 251 42 337 c 128,-1,14
 42 423 42 423 104 500 c 1,15,-1
 50 554 l 1,16,-1
 76 580 l 1,17,-1
 130 526 l 1,18,19
 206 585 206 585 288 585 c 0,20,21
 378 585 378 585 451 528 c 1,22,-1
 505 582 l 1,23,-1
 531 556 l 1,24,-1
 477 502 l 1,25,0
 539 425 539 425 539 339 c 128,-1,1
499 339 m 0,26,27
 499 423 499 423 438.5 484 c 128,-1,28
 378 545 378 545 293 545 c 0,29,30
 205 545 205 545 143.5 485.5 c 128,-1,31
 82 426 82 426 82 337 c 0,32,33
 82 250 82 250 143.5 189.5 c 128,-1,34
 205 129 205 129 292 129 c 0,35,36
 378 129 378 129 438.5 191 c 128,-1,37
 499 253 499 253 499 339 c 0,26,27
EndSplineSet
EndChar

StartChar: yen
Encoding: 165 165 99
Width: 580
Flags: MW
HStem: 0 21G<243 340 243 243> 629 20G<8 119 119 119 465 576 576 576>
LayerCount: 2
Fore
SplineSet
509 113 m 1,0,-1
 340 113 l 1,1,-1
 340 0 l 1,2,-1
 243 0 l 1,3,-1
 243 113 l 1,4,-1
 71 113 l 1,5,-1
 71 184 l 1,6,-1
 243 184 l 1,7,-1
 243 262 l 1,8,-1
 235 275 l 1,9,-1
 71 275 l 1,10,-1
 71 346 l 1,11,-1
 192 346 l 1,12,-1
 8 649 l 1,13,-1
 119 649 l 1,14,-1
 291 346 l 1,15,-1
 293 346 l 1,16,-1
 465 649 l 1,17,-1
 576 649 l 1,18,-1
 390 346 l 1,19,-1
 509 346 l 1,20,-1
 509 275 l 1,21,-1
 346 275 l 1,22,-1
 340 265 l 1,23,-1
 340 184 l 1,24,-1
 509 184 l 1,25,-1
 509 113 l 1,0,-1
EndSplineSet
Substitution2: "'smcp' Lowercase to Small Capitals in Latin lookup 21 subtable" yen.smcp
Substitution2: "'c2sc' Capitals to Small Capitals in Latin lookup 20 subtable" yen.smcp
EndChar

StartChar: brokenbar
Encoding: 166 166 100
Width: 265
Flags: MW
HStem: -190 21G<105 160 105 105> 629 20G<105 160 160 160>
LayerCount: 2
Fore
SplineSet
160 298 m 1,0,-1
 105 298 l 1,1,-1
 105 649 l 1,2,-1
 160 649 l 1,3,-1
 160 298 l 1,0,-1
160 -190 m 1,4,-1
 105 -190 l 1,5,-1
 105 161 l 1,6,-1
 160 161 l 1,7,-1
 160 -190 l 1,4,-1
EndSplineSet
EndChar

StartChar: section
Encoding: 167 167 101
Width: 580
Flags: MW
HStem: -115 21G<249 333.5> 578 61<258 334>
LayerCount: 2
Fore
SplineSet
155 307 m 2,0,-1
 155 228 l 2,1,2
 155 179 155 179 265 179 c 2,3,-1
 342 179 l 2,4,5
 384 179 384 179 404.5 192 c 128,-1,6
 425 205 425 205 425 238 c 2,7,-1
 425 305 l 2,8,9
 425 362 425 362 326 362 c 2,10,-1
 241 362 l 2,11,12
 194 362 194 362 174.5 350 c 128,-1,13
 155 338 155 338 155 307 c 2,0,-1
494 74 m 2,14,-1
 494 23 l 2,15,16
 494 -55 494 -55 435 -85 c 128,-1,17
 376 -115 376 -115 272 -115 c 0,18,19
 186 -115 186 -115 96 -103 c 1,20,-1
 96 -34 l 1,21,22
 188 -51 188 -51 274 -51 c 0,23,24
 336 -51 336 -51 370.5 -39.5 c 128,-1,25
 405 -28 405 -28 405 8 c 2,26,-1
 405 55 l 2,27,28
 405 86 405 86 384 99 c 128,-1,29
 363 112 363 112 316 112 c 2,30,-1
 229 112 l 2,31,32
 152 112 152 112 109 143.5 c 128,-1,33
 66 175 66 175 66 230 c 2,34,-1
 66 305 l 2,35,36
 66 363 66 363 132 390 c 1,37,38
 86 415 86 415 86 470 c 2,39,-1
 86 525 l 2,40,41
 86 639 86 639 312 639 c 0,42,43
 398 639 398 639 469 626 c 1,44,-1
 469 562 l 1,45,46
 391 578 391 578 308 578 c 0,47,48
 235 578 235 578 205 563.5 c 128,-1,49
 175 549 175 549 175 517 c 2,50,-1
 175 478 l 2,51,52
 175 429 175 429 265 429 c 2,53,-1
 360 429 l 2,54,55
 514 429 514 429 514 315 c 2,56,-1
 514 253 l 2,57,58
 514 215 514 215 495 188.5 c 128,-1,59
 476 162 476 162 448 154 c 1,60,61
 494 122 494 122 494 74 c 2,14,-1
EndSplineSet
EndChar

StartChar: dieresis
Encoding: 168 168 102
Width: 320
Flags: MW
HStem: 565 21G<30 120 30 30 200 200 200 290> 639 20G<30 120 120 120 200 290 290 290>
LayerCount: 2
Fore
SplineSet
120 565 m 1,0,-1
 30 565 l 1,1,-1
 30 659 l 1,2,-1
 120 659 l 1,3,-1
 120 565 l 1,0,-1
290 565 m 1,4,-1
 200 565 l 1,5,-1
 200 659 l 1,6,-1
 290 659 l 1,7,-1
 290 565 l 1,4,-1
EndSplineSet
EndChar

StartChar: copyright
Encoding: 169 169 103
Width: 717
Flags: MW
HStem: -10 62<330 411.5 330 430> 601 58<328 417>
LayerCount: 2
Fore
SplineSet
213 263 m 2,0,-1
 213 399 l 2,1,2
 213 460 213 460 250.5 490 c 128,-1,3
 288 520 288 520 372 520 c 128,-1,4
 456 520 456 520 488.5 493.5 c 128,-1,5
 521 467 521 467 521 409 c 2,6,-1
 521 382 l 1,7,-1
 448 382 l 1,8,-1
 448 401 l 2,9,10
 448 441 448 441 433.5 452.5 c 128,-1,11
 419 464 419 464 369 464 c 0,12,13
 322 464 322 464 306.5 450 c 128,-1,14
 291 436 291 436 291 391 c 2,15,-1
 291 271 l 2,16,17
 291 224 291 224 306 211 c 128,-1,18
 321 198 321 198 369 198 c 0,19,20
 424 198 424 198 436 208.5 c 128,-1,21
 448 219 448 219 448 261 c 2,22,-1
 448 281 l 1,23,-1
 521 281 l 1,24,-1
 521 253 l 2,25,26
 521 196 521 196 490 169 c 128,-1,27
 459 142 459 142 372 142 c 0,28,29
 283 142 283 142 248 167.5 c 128,-1,30
 213 193 213 193 213 263 c 2,0,-1
677 474 m 2,31,-1
 677 166 l 2,32,33
 677 113 677 113 647 76 c 128,-1,34
 617 39 617 39 567 21.5 c 128,-1,35
 517 4 517 4 470 -3 c 128,-1,36
 423 -10 423 -10 372 -10 c 0,37,38
 331 -10 331 -10 293 -6.5 c 128,-1,39
 255 -3 255 -3 211 8.5 c 128,-1,40
 167 20 167 20 135 38.5 c 128,-1,41
 103 57 103 57 81.5 90 c 128,-1,42
 60 123 60 123 60 166 c 2,43,-1
 60 473 l 2,44,45
 60 530 60 530 91.5 569.5 c 128,-1,46
 123 609 123 609 175.5 627 c 128,-1,47
 228 645 228 645 274.5 652 c 128,-1,48
 321 659 321 659 372 659 c 0,49,50
 412 659 412 659 449 655.5 c 128,-1,51
 486 652 486 652 529.5 640 c 128,-1,52
 573 628 573 628 604 609 c 128,-1,53
 635 590 635 590 656 555 c 128,-1,54
 677 520 677 520 677 474 c 2,31,-1
598 164 m 2,55,-1
 598 481 l 2,56,57
 598 517 598 517 576 542.5 c 128,-1,58
 554 568 554 568 517.5 579.5 c 128,-1,59
 481 591 481 591 446 596 c 128,-1,60
 411 601 411 601 373 601 c 0,61,62
 334 601 334 601 297.5 596 c 128,-1,63
 261 591 261 591 222.5 579.5 c 128,-1,64
 184 568 184 568 161 542.5 c 128,-1,65
 138 517 138 517 138 481 c 2,66,-1
 138 164 l 2,67,68
 138 131 138 131 161.5 107.5 c 128,-1,69
 185 84 185 84 224 72.5 c 128,-1,70
 263 61 263 61 299.5 56.5 c 128,-1,71
 336 52 336 52 374 52 c 0,72,73
 409 52 409 52 442 56 c 128,-1,74
 475 60 475 60 513 70.5 c 128,-1,75
 551 81 551 81 574.5 105 c 128,-1,76
 598 129 598 129 598 164 c 2,55,-1
EndSplineSet
EndChar

StartChar: ordfeminine
Encoding: 170 170 104
Width: 318
Flags: MW
HStem: 273 21G<35 35 35 283> 640 20G<152.5 214.5>
LayerCount: 2
Fore
SplineSet
283 376 m 1,0,-1
 218 376 l 1,1,-1
 218 403 l 1,2,3
 198 371 198 371 143 371 c 0,4,5
 83 371 83 371 59 388.5 c 128,-1,6
 35 406 35 406 35 460 c 0,7,8
 35 507 35 507 57.5 525.5 c 128,-1,9
 80 544 80 544 142 544 c 2,10,-1
 216 544 l 1,11,-1
 216 582 l 2,12,13
 216 601 216 601 203.5 608.5 c 128,-1,14
 191 616 191 616 158 616 c 0,15,16
 108 616 108 616 56 610 c 1,17,-1
 56 655 l 1,18,19
 118 660 118 660 165 660 c 0,20,21
 239 660 239 660 261 642.5 c 128,-1,22
 283 625 283 625 283 570 c 2,23,-1
 283 376 l 1,0,-1
216 433 m 2,24,-1
 216 505 l 1,25,-1
 145 505 l 2,26,27
 118 505 118 505 110.5 496 c 128,-1,28
 103 487 103 487 103 458 c 0,29,30
 103 432 103 432 110.5 421.5 c 128,-1,31
 118 411 118 411 141 411 c 2,32,-1
 152 411 l 2,33,34
 216 411 216 411 216 433 c 2,24,-1
35 273 m 1,35,-1
 35 329 l 1,36,-1
 283 329 l 1,37,-1
 283 273 l 1,38,-1
 35 273 l 1,35,-1
EndSplineSet
Substitution2: "'smcp' Lowercase to Small Capitals in Latin lookup 21 subtable" ordfeminine.smcp
Substitution2: "'c2sc' Capitals to Small Capitals in Latin lookup 20 subtable" ordfeminine.smcp
EndChar

StartChar: guillemotleft
Encoding: 171 171 105
Width: 426
Flags: MW
HStem: 50 21G 70 21G<140 216 140 140 310 310 310 386> 414 20G 434 20G<140 216 216 216 310 386 386 386>
LayerCount: 2
Fore
SplineSet
216 70 m 1,0,-1
 140 70 l 1,1,-1
 40 262 l 1,2,-1
 140 454 l 1,3,-1
 216 454 l 1,4,-1
 124 262 l 1,5,-1
 216 70 l 1,0,-1
386 70 m 1,6,-1
 310 70 l 1,7,-1
 210 262 l 1,8,-1
 310 454 l 1,9,-1
 386 454 l 1,10,-1
 294 262 l 1,11,-1
 386 70 l 1,6,-1
EndSplineSet
Substitution2: "'ss03' Style Set 3 in Latin lookup 2 subtable" guillemotleft.alt
EndChar

StartChar: logicalnot
Encoding: 172 172 106
Width: 500
Flags: MW
HStem: 115 21G<373 440 373 373> 329 20G<60 440 440 440>
LayerCount: 2
Fore
SplineSet
60 349 m 1,0,-1
 440 349 l 1,1,-1
 440 115 l 1,2,-1
 373 115 l 1,3,-1
 373 282 l 1,4,-1
 60 282 l 1,5,-1
 60 349 l 1,0,-1
EndSplineSet
EndChar

StartChar: uni00AD
Encoding: 173 173 107
Width: 240
Flags: MW
HStem: 233 21G<0 241 0 0> 276 20G<0 241 241 241>
LayerCount: 2
Fore
SplineSet
241 233 m 1,0,-1
 0 233 l 1,1,-1
 0 296 l 1,2,-1
 241 296 l 1,3,-1
 241 233 l 1,0,-1
EndSplineSet
EndChar

StartChar: registered
Encoding: 174 174 108
Width: 717
Flags: MW
HStem: -10 62<330 411.5 330 430> 601 58<328 417>
LayerCount: 2
Fore
SplineSet
677 474 m 2,0,-1
 677 166 l 2,1,2
 677 113 677 113 647 76 c 128,-1,3
 617 39 617 39 567 21.5 c 128,-1,4
 517 4 517 4 470 -3 c 128,-1,5
 423 -10 423 -10 372 -10 c 0,6,7
 331 -10 331 -10 293 -6.5 c 128,-1,8
 255 -3 255 -3 211 8.5 c 128,-1,9
 167 20 167 20 135 38.5 c 128,-1,10
 103 57 103 57 81.5 90 c 128,-1,11
 60 123 60 123 60 166 c 2,12,-1
 60 473 l 2,13,14
 60 530 60 530 91.5 569.5 c 128,-1,15
 123 609 123 609 175.5 627 c 128,-1,16
 228 645 228 645 274.5 652 c 128,-1,17
 321 659 321 659 372 659 c 0,18,19
 412 659 412 659 449 655.5 c 128,-1,20
 486 652 486 652 529.5 640 c 128,-1,21
 573 628 573 628 604 609 c 128,-1,22
 635 590 635 590 656 555 c 128,-1,23
 677 520 677 520 677 474 c 2,0,-1
598 164 m 2,24,-1
 598 481 l 2,25,26
 598 517 598 517 576 542.5 c 128,-1,27
 554 568 554 568 517.5 579.5 c 128,-1,28
 481 591 481 591 446 596 c 128,-1,29
 411 601 411 601 373 601 c 0,30,31
 334 601 334 601 297.5 596 c 128,-1,32
 261 591 261 591 222.5 579.5 c 128,-1,33
 184 568 184 568 161 542.5 c 128,-1,34
 138 517 138 517 138 481 c 2,35,-1
 138 164 l 2,36,37
 138 131 138 131 161.5 107.5 c 128,-1,38
 185 84 185 84 224 72.5 c 128,-1,39
 263 61 263 61 299.5 56.5 c 128,-1,40
 336 52 336 52 374 52 c 0,41,42
 409 52 409 52 442 56 c 128,-1,43
 475 60 475 60 513 70.5 c 128,-1,44
 551 81 551 81 574.5 105 c 128,-1,45
 598 129 598 129 598 164 c 2,24,-1
539 130 m 1,46,-1
 457 130 l 1,47,-1
 356 286 l 1,48,-1
 309 286 l 1,49,-1
 309 130 l 1,50,-1
 241 130 l 1,51,-1
 241 519 l 1,52,-1
 378 519 l 2,53,54
 454 519 454 519 484.5 504 c 128,-1,55
 515 489 515 489 515 443 c 2,56,-1
 515 368 l 2,57,58
 515 331 515 331 489.5 312 c 128,-1,59
 464 293 464 293 424 293 c 1,60,-1
 539 130 l 1,46,-1
446 373 m 2,61,-1
 446 437 l 2,62,63
 446 458 446 458 433 464.5 c 128,-1,64
 420 471 420 471 381 471 c 2,65,-1
 309 471 l 1,66,-1
 309 334 l 1,67,-1
 376 334 l 2,68,69
 419 334 419 334 432.5 340.5 c 128,-1,70
 446 347 446 347 446 373 c 2,61,-1
EndSplineSet
EndChar

StartChar: macron
Encoding: 175 175 109
Width: 298
Flags: MW
HStem: 590 59<40 258 40 258>
LayerCount: 2
Fore
SplineSet
258 590 m 1,0,-1
 40 590 l 1,1,-1
 40 649 l 1,2,-1
 258 649 l 1,3,-1
 258 590 l 1,0,-1
EndSplineSet
EndChar

StartChar: degree
Encoding: 176 176 110
Width: 407
Flags: MW
HStem: 373 21G<163.5 244> 639 20G<164 244>
LayerCount: 2
Fore
SplineSet
347 549 m 2,0,-1
 347 470 l 2,1,2
 347 443 347 443 339.5 424.5 c 128,-1,3
 332 406 332 406 320.5 396 c 128,-1,4
 309 386 309 386 288.5 380.5 c 128,-1,5
 268 375 268 375 250.5 374 c 128,-1,6
 233 373 233 373 204 373 c 128,-1,7
 175 373 175 373 157.5 374 c 128,-1,8
 140 375 140 375 119 380.5 c 128,-1,9
 98 386 98 386 87 396 c 128,-1,10
 76 406 76 406 68 424.5 c 128,-1,11
 60 443 60 443 60 470 c 2,12,-1
 60 549 l 2,13,14
 60 617 60 617 96.5 638 c 128,-1,15
 133 659 133 659 204 659 c 128,-1,16
 275 659 275 659 311 638 c 128,-1,17
 347 617 347 617 347 549 c 2,0,-1
277 470 m 2,18,-1
 277 557 l 2,19,20
 277 593 277 593 261.5 602 c 128,-1,21
 246 611 246 611 204 611 c 128,-1,22
 162 611 162 611 146 602 c 128,-1,23
 130 593 130 593 130 557 c 2,24,-1
 130 470 l 2,25,26
 130 447 130 447 139.5 436 c 128,-1,27
 149 425 149 425 162.5 423 c 128,-1,28
 176 421 176 421 204 421 c 128,-1,29
 232 421 232 421 245 423 c 128,-1,30
 258 425 258 425 267.5 436 c 128,-1,31
 277 447 277 447 277 470 c 2,18,-1
EndSplineSet
EndChar

StartChar: plusminus
Encoding: 177 177 111
Width: 500
Flags: MW
HStem: 0 21G<60 440 60 60> 495 20G<216 283 283 283>
LayerCount: 2
Fore
SplineSet
283 515 m 1,0,-1
 283 349 l 1,1,-1
 440 349 l 1,2,-1
 440 282 l 1,3,-1
 283 282 l 1,4,-1
 283 115 l 1,5,-1
 216 115 l 1,6,-1
 216 282 l 1,7,-1
 60 282 l 1,8,-1
 60 349 l 1,9,-1
 216 349 l 1,10,-1
 216 515 l 1,11,-1
 283 515 l 1,0,-1
440 0 m 1,12,-1
 60 0 l 1,13,-1
 60 67 l 1,14,-1
 440 67 l 1,15,-1
 440 0 l 1,12,-1
EndSplineSet
EndChar

StartChar: twosuperior
Encoding: 178 178 112
Width: 378
Flags: MW
HStem: 273 58<111 338 111 338> 638 20G<156.5 233.5>
LayerCount: 2
Fore
SplineSet
338 273 m 1,0,-1
 41 273 l 1,1,-1
 41 354 l 2,2,3
 41 389 41 389 64 412.5 c 128,-1,4
 87 436 87 436 119 448 c 128,-1,5
 151 460 151 460 183.5 469.5 c 128,-1,6
 216 479 216 479 239 493 c 128,-1,7
 262 507 262 507 262 527 c 2,8,-1
 262 571 l 2,9,10
 262 603 262 603 169 603 c 0,11,12
 123 603 123 603 52 590 c 1,13,-1
 52 647 l 1,14,15
 120 658 120 658 179 658 c 0,16,17
 263 658 263 658 299.5 640 c 128,-1,18
 336 622 336 622 336 576 c 2,19,-1
 336 516 l 2,20,21
 336 481 336 481 301 456 c 128,-1,22
 266 431 266 431 223.5 420 c 128,-1,23
 181 409 181 409 146 393.5 c 128,-1,24
 111 378 111 378 111 360 c 2,25,-1
 111 331 l 1,26,-1
 338 331 l 1,27,-1
 338 273 l 1,0,-1
EndSplineSet
Substitution2: "Single Substitution lookup 22 subtable" twoinferior
Substitution2: "'subs' Subscript in Latin lookup 12 subtable" two.sinf
Substitution2: "'sups' Superscript in Latin lookup 11 subtable" two.sups
Substitution2: "'dnom' Denominators in Latin lookup 10 subtable" twoinferior
AlternateSubs2: "'aalt' Access All Alternates in Latin lookup 1 subtable" twoinferior two.sups two.sinf
EndChar

StartChar: threesuperior
Encoding: 179 179 113
Width: 378
Flags: MW
HStem: 271 21G<169.5 240.5> 639 20G<172.5 242>
LayerCount: 2
Fore
SplineSet
189 448 m 2,0,-1
 112 448 l 1,1,-1
 112 497 l 1,2,-1
 189 497 l 2,3,4
 226 497 226 497 244.5 503.5 c 128,-1,5
 263 510 263 510 263 529 c 2,6,-1
 263 569 l 2,7,8
 263 589 263 589 243.5 596.5 c 128,-1,9
 224 604 224 604 180 604 c 0,10,11
 141 604 141 604 61 598 c 1,12,-1
 61 654 l 1,13,14
 131 659 131 659 189 659 c 0,15,16
 337 659 337 659 337 586 c 2,17,-1
 337 527 l 2,18,19
 337 488 337 488 283 476 c 1,20,-1
 284 475 l 1,21,22
 350 462 350 462 350 411 c 2,23,-1
 350 358 l 2,24,25
 350 310 350 310 310.5 290.5 c 128,-1,26
 271 271 271 271 189 271 c 0,27,28
 121 271 121 271 47 279 c 1,29,-1
 47 339 l 1,30,31
 117 325 117 325 189 325 c 0,32,33
 275 325 275 325 275 365 c 2,34,-1
 275 408 l 2,35,36
 275 430 275 430 254.5 439 c 128,-1,37
 234 448 234 448 189 448 c 2,0,-1
EndSplineSet
Substitution2: "Single Substitution lookup 22 subtable" threeinferior
Substitution2: "'subs' Subscript in Latin lookup 12 subtable" three.sinf
Substitution2: "'sups' Superscript in Latin lookup 11 subtable" three.sups
Substitution2: "'dnom' Denominators in Latin lookup 10 subtable" threeinferior
AlternateSubs2: "'aalt' Access All Alternates in Latin lookup 1 subtable" threeinferior three.sups three.sinf
EndChar

StartChar: acute
Encoding: 180 180 114
Width: 239
Flags: MW
HStem: 553 21G<20 94 20 20> 660 20G<110 219 219 219>
LayerCount: 2
Fore
SplineSet
219 680 m 1,0,-1
 94 553 l 1,1,-1
 20 553 l 1,2,-1
 110 680 l 1,3,-1
 219 680 l 1,0,-1
EndSplineSet
EndChar

StartChar: mu
Encoding: 181 181 115
Width: 573
Flags: MW
HStem: -209 21G<78 168 78 78> -10 21G<230.5 284.5> 0 21G<407 495 407 407> 464 20G<78 168 168 168 405 495 495 495>
LayerCount: 2
Fore
SplineSet
495 0 m 1,0,-1
 407 0 l 1,1,-1
 407 59 l 1,2,3
 390 -10 390 -10 246 -10 c 0,4,5
 202 -10 202 -10 168 -2 c 1,6,-1
 168 -209 l 1,7,-1
 78 -209 l 1,8,-1
 78 484 l 1,9,-1
 168 484 l 1,10,-1
 168 134 l 2,11,12
 168 116 168 116 171 104 c 128,-1,13
 174 92 174 92 183.5 79.5 c 128,-1,14
 193 67 193 67 215.5 60.5 c 128,-1,15
 238 54 238 54 272 54 c 0,16,17
 347 54 347 54 376 68 c 128,-1,18
 405 82 405 82 405 119 c 2,19,-1
 405 484 l 1,20,-1
 495 484 l 1,21,-1
 495 0 l 1,0,-1
EndSplineSet
EndChar

StartChar: paragraph
Encoding: 182 182 116
Width: 573
Flags: MW
HStem: -186 21G<199 252 199 199 402 455 402 402> 629 20G<147 499 499 499>
LayerCount: 2
Fore
SplineSet
499 633 m 1,0,-1
 476 616 l 2,1,2
 455 600 455 600 455 579 c 2,3,-1
 455 -186 l 1,4,-1
 402 -186 l 1,5,-1
 402 606 l 1,6,-1
 252 606 l 1,7,-1
 252 -186 l 1,8,-1
 199 -186 l 1,9,-1
 199 352 l 1,10,11
 99 352 99 352 69.5 379.5 c 128,-1,12
 40 407 40 407 40 501 c 0,13,14
 40 587 40 587 62.5 618 c 128,-1,15
 85 649 85 649 147 649 c 2,16,-1
 499 649 l 1,17,-1
 499 633 l 1,0,-1
EndSplineSet
EndChar

StartChar: periodcentered
Encoding: 183 183 117
Width: 256
Flags: MW
HStem: 280 21G<70 186 70 70> 368 20G<70 186 186 186>
LayerCount: 2
Fore
SplineSet
186 280 m 1,0,-1
 70 280 l 1,1,-1
 70 388 l 1,2,-1
 186 388 l 1,3,-1
 186 280 l 1,0,-1
EndSplineSet
EndChar

StartChar: cedilla
Encoding: 184 184 118
Width: 237
Flags: MW
HStem: -220 21G<92.5 134.5> -20 20G<91 154 154 154>
LayerCount: 2
Fore
SplineSet
91 0 m 1,0,-1
 154 0 l 1,1,-1
 128 -52 l 1,2,3
 165 -53 165 -53 193 -72.5 c 128,-1,4
 221 -92 221 -92 221 -130 c 0,5,6
 221 -174 221 -174 187 -197 c 128,-1,7
 153 -220 153 -220 108 -220 c 0,8,9
 59 -220 59 -220 27 -201 c 1,10,-1
 48 -156 l 1,11,12
 78 -173 78 -173 106 -173 c 0,13,14
 153 -173 153 -173 153 -133 c 0,15,16
 153 -114 153 -114 131 -103 c 128,-1,17
 109 -92 109 -92 75 -92 c 2,18,-1
 42 -92 l 1,19,20
 65 -53 65 -53 91 0 c 1,0,-1
EndSplineSet
EndChar

StartChar: onesuperior
Encoding: 185 185 119
Width: 378
Flags: MW
HStem: 273 21G<186 257 186 186> 629 20G<195 257 257 257>
LayerCount: 2
Fore
SplineSet
257 273 m 1,0,-1
 186 273 l 1,1,-1
 186 571 l 1,2,-1
 75 500 l 1,3,-1
 75 568 l 1,4,-1
 195 649 l 1,5,-1
 257 649 l 1,6,-1
 257 273 l 1,0,-1
EndSplineSet
Substitution2: "Single Substitution lookup 22 subtable" oneinferior
Substitution2: "'subs' Subscript in Latin lookup 12 subtable" one.sinf
Substitution2: "'sups' Superscript in Latin lookup 11 subtable" one.sups
Substitution2: "'dnom' Denominators in Latin lookup 10 subtable" oneinferior
AlternateSubs2: "'aalt' Access All Alternates in Latin lookup 1 subtable" oneinferior one.sups one.sinf
EndChar

StartChar: ordmasculine
Encoding: 186 186 120
Width: 336
Flags: MW
HStem: 273 21G<35 35 35 302> 640 20G<129 207>
LayerCount: 2
Fore
SplineSet
302 558 m 2,0,-1
 302 465 l 2,1,2
 302 433 302 433 293 413 c 128,-1,3
 284 393 284 393 263.5 384.5 c 128,-1,4
 243 376 243 376 223 373.5 c 128,-1,5
 203 371 203 371 168 371 c 0,6,7
 140 371 140 371 123 372 c 128,-1,8
 106 373 106 373 87 378.5 c 128,-1,9
 68 384 68 384 58 393.5 c 128,-1,10
 48 403 48 403 41 421 c 128,-1,11
 34 439 34 439 34 465 c 2,12,-1
 34 558 l 2,13,14
 34 593 34 593 43 614.5 c 128,-1,15
 52 636 52 636 72.5 645.5 c 128,-1,16
 93 655 93 655 113 657.5 c 128,-1,17
 133 660 133 660 168 660 c 128,-1,18
 203 660 203 660 223 657.5 c 128,-1,19
 243 655 243 655 263.5 645.5 c 128,-1,20
 284 636 284 636 293 614.5 c 128,-1,21
 302 593 302 593 302 558 c 2,0,-1
232 458 m 2,22,-1
 232 567 l 2,23,24
 232 602 232 602 218.5 610.5 c 128,-1,25
 205 619 205 619 168 619 c 0,26,27
 129 619 129 619 115.5 610.5 c 128,-1,28
 102 602 102 602 102 567 c 2,29,-1
 102 458 l 2,30,31
 102 427 102 427 116 419.5 c 128,-1,32
 130 412 130 412 168 412 c 0,33,34
 205 412 205 412 218.5 419.5 c 128,-1,35
 232 427 232 427 232 458 c 2,22,-1
35 273 m 1,36,-1
 35 329 l 1,37,-1
 302 329 l 1,38,-1
 302 273 l 1,39,-1
 35 273 l 1,36,-1
EndSplineSet
Substitution2: "'smcp' Lowercase to Small Capitals in Latin lookup 21 subtable" ordmasculine.smcp
Substitution2: "'c2sc' Capitals to Small Capitals in Latin lookup 20 subtable" ordmasculine.smcp
EndChar

StartChar: guillemotright
Encoding: 187 187 121
Width: 426
Flags: MW
HStem: 50 21G 70 21G<40 116 40 40 210 210 210 286> 414 20G 434 20G<40 116 116 116 210 286 286 286>
LayerCount: 2
Fore
SplineSet
216 262 m 1,0,-1
 116 70 l 1,1,-1
 40 70 l 1,2,-1
 132 262 l 1,3,-1
 40 454 l 1,4,-1
 116 454 l 1,5,-1
 216 262 l 1,0,-1
386 262 m 1,6,-1
 286 70 l 1,7,-1
 210 70 l 1,8,-1
 302 262 l 1,9,-1
 210 454 l 1,10,-1
 286 454 l 1,11,-1
 386 262 l 1,6,-1
EndSplineSet
Substitution2: "'ss03' Style Set 3 in Latin lookup 2 subtable" guillemotright.alt
EndChar

StartChar: questiondown
Encoding: 191 191 122
Width: 533
Flags: MW
HStem: -175 21G<193.5 304> 464 20G<232 348 348 348>
LayerCount: 2
Fore
SplineSet
334 313 m 1,0,-1
 334 289 l 2,1,2
 334 235 334 235 315.5 198.5 c 128,-1,3
 297 162 297 162 271 143 c 128,-1,4
 245 124 245 124 219 107.5 c 128,-1,5
 193 91 193 91 174.5 65.5 c 128,-1,6
 156 40 156 40 156 3 c 2,7,-1
 156 -27 l 2,8,9
 156 -74 156 -74 186 -89 c 128,-1,10
 216 -104 216 -104 282 -104 c 0,11,12
 352 -104 352 -104 473 -83 c 1,13,-1
 473 -156 l 1,14,15
 368 -175 368 -175 263 -175 c 0,16,17
 156 -175 156 -175 108 -143 c 128,-1,18
 60 -111 60 -111 60 -34 c 2,19,-1
 60 16 l 2,20,21
 60 61 60 61 79 94 c 128,-1,22
 98 127 98 127 125 146.5 c 128,-1,23
 152 166 152 166 179 182.5 c 128,-1,24
 206 199 206 199 225 220.5 c 128,-1,25
 244 242 244 242 244 270 c 2,26,-1
 244 313 l 1,27,-1
 334 313 l 1,0,-1
232 484 m 1,28,-1
 348 484 l 1,29,-1
 348 376 l 1,30,-1
 232 376 l 1,31,-1
 232 484 l 1,28,-1
EndSplineSet
Substitution2: "'smcp' Lowercase to Small Capitals in Latin lookup 21 subtable" questiondown.smcp
Substitution2: "'c2sc' Capitals to Small Capitals in Latin lookup 20 subtable" questiondown.smcp
Substitution2: "'ss03' Style Set 3 in Latin lookup 2 subtable" questiondown.alt
EndChar

StartChar: Agrave
Encoding: 192 192 123
Width: 652
Flags: MW
HStem: 0 21G<15 111 15 15 536 637 536 536> 629 20G<273 385 385 385> 693 21G<285 359 285 285> 800 20G<160 269 269 269>
LayerCount: 2
Fore
SplineSet
637 0 m 1,0,-1
 536 0 l 1,1,-1
 462 197 l 1,2,-1
 184 197 l 1,3,-1
 111 0 l 1,4,-1
 15 0 l 1,5,-1
 273 649 l 1,6,-1
 385 649 l 1,7,-1
 637 0 l 1,0,-1
438 264 m 1,8,-1
 328 557 l 1,9,-1
 319 557 l 1,10,-1
 209 264 l 1,11,-1
 438 264 l 1,8,-1
359 693 m 1,12,-1
 285 693 l 1,13,-1
 160 820 l 1,14,-1
 269 820 l 1,15,-1
 359 693 l 1,12,-1
EndSplineSet
EndChar

StartChar: Aacute
Encoding: 193 193 124
Width: 652
Flags: MW
HStem: 0 21G<15 111 15 15 536 637 536 536> 629 20G<273 385 385 385> 703 21G<270 344 270 270> 810 20G<360 469 469 469>
LayerCount: 2
Fore
SplineSet
637 0 m 1,0,-1
 536 0 l 1,1,-1
 462 197 l 1,2,-1
 184 197 l 1,3,-1
 111 0 l 1,4,-1
 15 0 l 1,5,-1
 273 649 l 1,6,-1
 385 649 l 1,7,-1
 637 0 l 1,0,-1
438 264 m 1,8,-1
 328 557 l 1,9,-1
 319 557 l 1,10,-1
 209 264 l 1,11,-1
 438 264 l 1,8,-1
469 830 m 1,12,-1
 344 703 l 1,13,-1
 270 703 l 1,14,-1
 360 830 l 1,15,-1
 469 830 l 1,12,-1
EndSplineSet
EndChar

StartChar: Acircumflex
Encoding: 194 194 125
Width: 652
Flags: MW
HStem: 0 21G<15 111 15 15 536 637 536 536> 629 20G<273 385 385 385> 703 21G<210 210 210 268 393 393 393 451> 810 20G<278 385 385 385>
LayerCount: 2
Fore
SplineSet
637 0 m 1,0,-1
 536 0 l 1,1,-1
 462 197 l 1,2,-1
 184 197 l 1,3,-1
 111 0 l 1,4,-1
 15 0 l 1,5,-1
 273 649 l 1,6,-1
 385 649 l 1,7,-1
 637 0 l 1,0,-1
438 264 m 1,8,-1
 328 557 l 1,9,-1
 319 557 l 1,10,-1
 209 264 l 1,11,-1
 438 264 l 1,8,-1
210 703 m 1,12,-1
 278 830 l 1,13,-1
 385 830 l 1,14,-1
 451 703 l 1,15,-1
 393 703 l 1,16,-1
 331 790 l 1,17,-1
 268 703 l 1,18,-1
 210 703 l 1,12,-1
EndSplineSet
EndChar

StartChar: Atilde
Encoding: 195 195 126
Width: 652
Flags: MW
HStem: 0 21G<15 111 15 15 536 637 536 536> 629 20G<273 385 385 385> 691 21G<190 190> 782 20G<445 445>
LayerCount: 2
Fore
SplineSet
637 0 m 1,0,-1
 536 0 l 1,1,-1
 462 197 l 1,2,-1
 184 197 l 1,3,-1
 111 0 l 1,4,-1
 15 0 l 1,5,-1
 273 649 l 1,6,-1
 385 649 l 1,7,-1
 637 0 l 1,0,-1
438 264 m 1,8,-1
 328 557 l 1,9,-1
 319 557 l 1,10,-1
 209 264 l 1,11,-1
 438 264 l 1,8,-1
255 793 m 0,12,13
 279 793 279 793 320 776 c 128,-1,14
 361 759 361 759 380 759 c 0,15,16
 402 759 402 759 416 769.5 c 128,-1,17
 430 780 430 780 445 802 c 1,18,-1
 445 733 l 1,19,20
 422 694 422 694 380 694 c 0,21,22
 354 694 354 694 314 712 c 128,-1,23
 274 730 274 730 255 730 c 0,24,25
 215 730 215 730 190 691 c 1,26,-1
 190 764 l 1,27,28
 214 793 214 793 255 793 c 0,12,13
EndSplineSet
EndChar

StartChar: Adieresis
Encoding: 196 196 127
Width: 652
Flags: MW
HStem: 0 21G<15 111 15 15 536 637 536 536> 629 20G<273 385 385 385> 715 21G<190 280 190 190 360 360 360 450> 789 20G<190 280 280 280 360 450 450 450>
LayerCount: 2
Fore
SplineSet
637 0 m 1,0,-1
 536 0 l 1,1,-1
 462 197 l 1,2,-1
 184 197 l 1,3,-1
 111 0 l 1,4,-1
 15 0 l 1,5,-1
 273 649 l 1,6,-1
 385 649 l 1,7,-1
 637 0 l 1,0,-1
438 264 m 1,8,-1
 328 557 l 1,9,-1
 319 557 l 1,10,-1
 209 264 l 1,11,-1
 438 264 l 1,8,-1
280 715 m 1,12,-1
 190 715 l 1,13,-1
 190 809 l 1,14,-1
 280 809 l 1,15,-1
 280 715 l 1,12,-1
450 715 m 1,16,-1
 360 715 l 1,17,-1
 360 809 l 1,18,-1
 450 809 l 1,19,-1
 450 715 l 1,16,-1
EndSplineSet
EndChar

StartChar: Aring
Encoding: 197 197 128
Width: 652
Flags: MW
HStem: 0 21G<15 111 15 15 536 637 536 536> 689 20G<302.5 349.5> 742 20G<286 366>
LayerCount: 2
Fore
SplineSet
637 0 m 1,0,-1
 536 0 l 1,1,-1
 462 198 l 1,2,-1
 185 198 l 1,3,-1
 111 0 l 1,4,-1
 15 0 l 1,5,-1
 242 560 l 1,6,7
 185 577 185 577 185 646 c 2,8,-1
 185 659 l 2,9,10
 185 688 185 688 192.5 707.5 c 128,-1,11
 200 727 200 727 211 738 c 128,-1,12
 222 749 222 749 242.5 754.5 c 128,-1,13
 263 760 263 760 280 761 c 128,-1,14
 297 762 297 762 326 762 c 128,-1,15
 355 762 355 762 372 761 c 128,-1,16
 389 760 389 760 409.5 754.5 c 128,-1,17
 430 749 430 749 441 738 c 128,-1,18
 452 727 452 727 459.5 707.5 c 128,-1,19
 467 688 467 688 467 659 c 2,20,-1
 467 646 l 2,21,22
 467 582 467 582 415 561 c 1,23,-1
 637 0 l 1,0,-1
400 643 m 2,24,-1
 400 657 l 2,25,26
 400 691 400 691 383.5 700 c 128,-1,27
 367 709 367 709 326 709 c 128,-1,28
 285 709 285 709 268.5 700 c 128,-1,29
 252 691 252 691 252 657 c 2,30,-1
 252 643 l 2,31,32
 252 612 252 612 269 604 c 128,-1,33
 286 596 286 596 326 596 c 0,34,35
 353 596 353 596 366.5 598 c 128,-1,36
 380 600 380 600 390 610.5 c 128,-1,37
 400 621 400 621 400 643 c 2,24,-1
438 264 m 1,38,-1
 332 545 l 1,39,-1
 315 545 l 1,40,-1
 209 264 l 1,41,-1
 438 264 l 1,38,-1
EndSplineSet
EndChar

StartChar: AE
Encoding: 198 198 129
Width: 923
Flags: MW
HStem: 0 21G<0 109 0 0 457 873 457 457> 629 20G<358 863 863 863>
LayerCount: 2
Fore
SplineSet
873 0 m 1,0,-1
 457 0 l 1,1,-1
 457 197 l 1,2,-1
 211 197 l 1,3,-1
 109 0 l 1,4,-1
 0 0 l 1,5,-1
 358 649 l 1,6,-1
 863 649 l 1,7,-1
 863 581 l 1,8,-1
 554 581 l 1,9,-1
 554 369 l 1,10,-1
 830 369 l 1,11,-1
 830 301 l 1,12,-1
 554 301 l 1,13,-1
 554 68 l 1,14,-1
 873 68 l 1,15,-1
 873 0 l 1,0,-1
457 264 m 1,16,-1
 457 581 l 1,17,-1
 409 581 l 1,18,-1
 245 264 l 1,19,-1
 457 264 l 1,16,-1
EndSplineSet
EndChar

StartChar: Egrave
Encoding: 200 200 130
Width: 580
Flags: MW
HStem: 0 21G<84 530 84 84> 629 20G<84 520 520 520> 703 21G<275 349 275 275> 810 20G<150 259 259 259>
LayerCount: 2
Fore
SplineSet
530 0 m 1,0,-1
 84 0 l 1,1,-1
 84 649 l 1,2,-1
 520 649 l 1,3,-1
 520 581 l 1,4,-1
 181 581 l 1,5,-1
 181 369 l 1,6,-1
 487 369 l 1,7,-1
 487 301 l 1,8,-1
 181 301 l 1,9,-1
 181 68 l 1,10,-1
 530 68 l 1,11,-1
 530 0 l 1,0,-1
349 703 m 1,12,-1
 275 703 l 1,13,-1
 150 830 l 1,14,-1
 259 830 l 1,15,-1
 349 703 l 1,12,-1
EndSplineSet
EndChar

StartChar: Eacute
Encoding: 201 201 131
Width: 580
Flags: MW
HStem: 0 21G<84 530 84 84> 629 20G<84 520 520 520> 703 21G<220 294 220 220> 810 20G<310 419 419 419>
LayerCount: 2
Fore
SplineSet
530 0 m 1,0,-1
 84 0 l 1,1,-1
 84 649 l 1,2,-1
 520 649 l 1,3,-1
 520 581 l 1,4,-1
 181 581 l 1,5,-1
 181 369 l 1,6,-1
 487 369 l 1,7,-1
 487 301 l 1,8,-1
 181 301 l 1,9,-1
 181 68 l 1,10,-1
 530 68 l 1,11,-1
 530 0 l 1,0,-1
419 830 m 1,12,-1
 294 703 l 1,13,-1
 220 703 l 1,14,-1
 310 830 l 1,15,-1
 419 830 l 1,12,-1
EndSplineSet
EndChar

StartChar: Ecircumflex
Encoding: 202 202 132
Width: 580
Flags: MW
HStem: 0 21G<84 530 84 84> 629 20G<84 520 520 520> 703 21G<180 180 180 238 363 363 363 421> 810 20G<248 355 355 355>
LayerCount: 2
Fore
SplineSet
530 0 m 1,0,-1
 84 0 l 1,1,-1
 84 649 l 1,2,-1
 520 649 l 1,3,-1
 520 581 l 1,4,-1
 181 581 l 1,5,-1
 181 369 l 1,6,-1
 487 369 l 1,7,-1
 487 301 l 1,8,-1
 181 301 l 1,9,-1
 181 68 l 1,10,-1
 530 68 l 1,11,-1
 530 0 l 1,0,-1
180 703 m 1,12,-1
 248 830 l 1,13,-1
 355 830 l 1,14,-1
 421 703 l 1,15,-1
 363 703 l 1,16,-1
 301 790 l 1,17,-1
 238 703 l 1,18,-1
 180 703 l 1,12,-1
EndSplineSet
EndChar

StartChar: Edieresis
Encoding: 203 203 133
Width: 580
Flags: MW
HStem: 0 21G<84 530 84 84> 629 20G<84 520 520 520> 715 21G<176 266 176 176 346 346 346 436> 789 20G<176 266 266 266 346 436 436 436>
LayerCount: 2
Fore
SplineSet
530 0 m 1,0,-1
 84 0 l 1,1,-1
 84 649 l 1,2,-1
 520 649 l 1,3,-1
 520 581 l 1,4,-1
 181 581 l 1,5,-1
 181 369 l 1,6,-1
 487 369 l 1,7,-1
 487 301 l 1,8,-1
 181 301 l 1,9,-1
 181 68 l 1,10,-1
 530 68 l 1,11,-1
 530 0 l 1,0,-1
266 715 m 1,12,-1
 176 715 l 1,13,-1
 176 809 l 1,14,-1
 266 809 l 1,15,-1
 266 715 l 1,12,-1
436 715 m 1,16,-1
 346 715 l 1,17,-1
 346 809 l 1,18,-1
 436 809 l 1,19,-1
 436 715 l 1,16,-1
EndSplineSet
EndChar

StartChar: Igrave
Encoding: 204 204 134
Width: 265
Flags: MW
HStem: 0 21G<84 181 84 84> 629 20G<84 181 181 181> 703 21G<99 173 99 99> 810 20G<-26 83 83 83>
LayerCount: 2
Fore
SplineSet
181 0 m 1,0,-1
 84 0 l 1,1,-1
 84 649 l 1,2,-1
 181 649 l 1,3,-1
 181 0 l 1,0,-1
173 703 m 1,4,-1
 99 703 l 1,5,-1
 -26 830 l 1,6,-1
 83 830 l 1,7,-1
 173 703 l 1,4,-1
EndSplineSet
EndChar

StartChar: Iacute
Encoding: 205 205 135
Width: 265
Flags: MW
HStem: 0 21G<84 181 84 84> 629 20G<84 181 181 181> 703 21G<84 158 84 84> 810 20G<174 283 283 283>
LayerCount: 2
Fore
SplineSet
181 0 m 1,0,-1
 84 0 l 1,1,-1
 84 649 l 1,2,-1
 181 649 l 1,3,-1
 181 0 l 1,0,-1
283 830 m 1,4,-1
 158 703 l 1,5,-1
 84 703 l 1,6,-1
 174 830 l 1,7,-1
 283 830 l 1,4,-1
EndSplineSet
EndChar

StartChar: Icircumflex
Encoding: 206 206 136
Width: 265
Flags: MW
HStem: 0 21G<84 181 84 84> 629 20G<84 181 181 181> 703 21G<11 11 11 69 194 194 194 252> 810 20G<79 186 186 186>
LayerCount: 2
Fore
SplineSet
181 0 m 1,0,-1
 84 0 l 1,1,-1
 84 649 l 1,2,-1
 181 649 l 1,3,-1
 181 0 l 1,0,-1
11 703 m 1,4,-1
 79 830 l 1,5,-1
 186 830 l 1,6,-1
 252 703 l 1,7,-1
 194 703 l 1,8,-1
 132 790 l 1,9,-1
 69 703 l 1,10,-1
 11 703 l 1,4,-1
EndSplineSet
EndChar

StartChar: Idieresis
Encoding: 207 207 137
Width: 265
Flags: MW
HStem: 0 21G<84 181 84 84> 629 20G<84 181 181 181> 715 21G<4 94 4 4 174 174 174 264> 789 20G<4 94 94 94 174 264 264 264>
LayerCount: 2
Fore
SplineSet
181 0 m 1,0,-1
 84 0 l 1,1,-1
 84 649 l 1,2,-1
 181 649 l 1,3,-1
 181 0 l 1,0,-1
94 715 m 1,4,-1
 4 715 l 1,5,-1
 4 809 l 1,6,-1
 94 809 l 1,7,-1
 94 715 l 1,4,-1
264 715 m 1,8,-1
 174 715 l 1,9,-1
 174 809 l 1,10,-1
 264 809 l 1,11,-1
 264 715 l 1,8,-1
EndSplineSet
EndChar

StartChar: Eth.001
Encoding: 65537 -1 138
Width: 649
Flags: MW
HStem: 0 21G<84 313 84 84> 629 20G<84 312 312 368.5>
LayerCount: 2
Fore
SplineSet
84 301 m 1,0,-1
 20 301 l 1,1,-1
 20 369 l 1,2,-1
 84 369 l 1,3,-1
 84 649 l 1,4,-1
 312 649 l 2,5,6
 585 649 585 649 585 463 c 2,7,-1
 585 176 l 2,8,9
 585 0 585 0 313 0 c 2,10,-1
 84 0 l 1,11,-1
 84 301 l 1,0,-1
287 301 m 1,12,-1
 181 301 l 1,13,-1
 181 66 l 1,14,-1
 306 66 l 2,15,16
 492 66 492 66 492 178 c 2,17,-1
 492 464 l 2,18,19
 492 501 492 501 477 525.5 c 128,-1,20
 462 550 462 550 434.5 561.5 c 128,-1,21
 407 573 407 573 378 577.5 c 128,-1,22
 349 582 349 582 311 582 c 2,23,-1
 181 582 l 1,24,-1
 181 369 l 1,25,-1
 287 369 l 1,26,-1
 287 301 l 1,12,-1
EndSplineSet
EndChar

StartChar: Ntilde
Encoding: 209 209 139
Width: 723
Flags: MW
HStem: 0 21G<84 169 84 84 522 639 522 522> 629 20G<84 201 201 201 554 639 639 639> 691 21G<234 234> 782 20G<489 489>
LayerCount: 2
Fore
SplineSet
639 0 m 1,0,-1
 522 0 l 1,1,-1
 169 545 l 1,2,-1
 169 0 l 1,3,-1
 84 0 l 1,4,-1
 84 649 l 1,5,-1
 201 649 l 1,6,-1
 554 113 l 1,7,-1
 554 649 l 1,8,-1
 639 649 l 1,9,-1
 639 0 l 1,0,-1
299 793 m 0,10,11
 323 793 323 793 364 776 c 128,-1,12
 405 759 405 759 424 759 c 0,13,14
 446 759 446 759 460 769.5 c 128,-1,15
 474 780 474 780 489 802 c 1,16,-1
 489 733 l 1,17,18
 466 694 466 694 424 694 c 0,19,20
 398 694 398 694 358 712 c 128,-1,21
 318 730 318 730 299 730 c 0,22,23
 259 730 259 730 234 691 c 1,24,-1
 234 764 l 1,25,26
 258 793 258 793 299 793 c 0,10,11
EndSplineSet
EndChar

StartChar: Ograve
Encoding: 210 210 140
Width: 679
Flags: MW
HStem: -10 21G<278.5 396> 639 20G<282 396.5> 703 21G<295 369 295 295> 810 20G<170 279 279 279>
LayerCount: 2
Fore
SplineSet
613 474 m 2,0,-1
 613 166 l 2,1,2
 613 113 613 113 587.5 76 c 128,-1,3
 562 39 562 39 518 21.5 c 128,-1,4
 474 4 474 4 431 -3 c 128,-1,5
 388 -10 388 -10 338 -10 c 0,6,7
 66 -10 66 -10 66 166 c 2,8,-1
 66 473 l 2,9,10
 66 659 66 659 338 659 c 0,11,12
 613 659 613 659 613 474 c 2,0,-1
519 167 m 2,13,-1
 519 476 l 2,14,15
 519 596 519 596 339 596 c 0,16,17
 301 596 301 596 272 591.5 c 128,-1,18
 243 587 243 587 216 574.5 c 128,-1,19
 189 562 189 562 174 537.5 c 128,-1,20
 159 513 159 513 159 476 c 2,21,-1
 159 167 l 2,22,23
 159 55 159 55 340 55 c 0,24,25
 519 55 519 55 519 167 c 2,13,-1
369 703 m 1,26,-1
 295 703 l 1,27,-1
 170 830 l 1,28,-1
 279 830 l 1,29,-1
 369 703 l 1,26,-1
EndSplineSet
EndChar

StartChar: Oacute
Encoding: 211 211 141
Width: 679
Flags: MW
HStem: -10 21G<278.5 396> 639 20G<282 396.5> 703 21G<270 344 270 270> 810 20G<360 469 469 469>
LayerCount: 2
Fore
SplineSet
613 474 m 2,0,-1
 613 166 l 2,1,2
 613 113 613 113 587.5 76 c 128,-1,3
 562 39 562 39 518 21.5 c 128,-1,4
 474 4 474 4 431 -3 c 128,-1,5
 388 -10 388 -10 338 -10 c 0,6,7
 66 -10 66 -10 66 166 c 2,8,-1
 66 473 l 2,9,10
 66 659 66 659 338 659 c 0,11,12
 613 659 613 659 613 474 c 2,0,-1
519 167 m 2,13,-1
 519 476 l 2,14,15
 519 596 519 596 339 596 c 0,16,17
 301 596 301 596 272 591.5 c 128,-1,18
 243 587 243 587 216 574.5 c 128,-1,19
 189 562 189 562 174 537.5 c 128,-1,20
 159 513 159 513 159 476 c 2,21,-1
 159 167 l 2,22,23
 159 55 159 55 340 55 c 0,24,25
 519 55 519 55 519 167 c 2,13,-1
469 830 m 1,26,-1
 344 703 l 1,27,-1
 270 703 l 1,28,-1
 360 830 l 1,29,-1
 469 830 l 1,26,-1
EndSplineSet
EndChar

StartChar: Ocircumflex
Encoding: 212 212 142
Width: 679
Flags: MW
HStem: -10 21G<278.5 396> 639 20G<282 396.5> 703 21G<220 220 220 278 403 403 403 461> 810 20G<288 395 395 395>
LayerCount: 2
Fore
SplineSet
613 474 m 2,0,-1
 613 166 l 2,1,2
 613 113 613 113 587.5 76 c 128,-1,3
 562 39 562 39 518 21.5 c 128,-1,4
 474 4 474 4 431 -3 c 128,-1,5
 388 -10 388 -10 338 -10 c 0,6,7
 66 -10 66 -10 66 166 c 2,8,-1
 66 473 l 2,9,10
 66 659 66 659 338 659 c 0,11,12
 613 659 613 659 613 474 c 2,0,-1
519 167 m 2,13,-1
 519 476 l 2,14,15
 519 596 519 596 339 596 c 0,16,17
 301 596 301 596 272 591.5 c 128,-1,18
 243 587 243 587 216 574.5 c 128,-1,19
 189 562 189 562 174 537.5 c 128,-1,20
 159 513 159 513 159 476 c 2,21,-1
 159 167 l 2,22,23
 159 55 159 55 340 55 c 0,24,25
 519 55 519 55 519 167 c 2,13,-1
220 703 m 1,26,-1
 288 830 l 1,27,-1
 395 830 l 1,28,-1
 461 703 l 1,29,-1
 403 703 l 1,30,-1
 341 790 l 1,31,-1
 278 703 l 1,32,-1
 220 703 l 1,26,-1
EndSplineSet
EndChar

StartChar: Otilde
Encoding: 213 213 143
Width: 679
Flags: MW
HStem: -10 21G<278.5 396> 639 20G<282 396.5> 691 21G<180 180> 782 20G<435 435>
LayerCount: 2
Fore
SplineSet
613 474 m 2,0,-1
 613 166 l 2,1,2
 613 113 613 113 587.5 76 c 128,-1,3
 562 39 562 39 518 21.5 c 128,-1,4
 474 4 474 4 431 -3 c 128,-1,5
 388 -10 388 -10 338 -10 c 0,6,7
 66 -10 66 -10 66 166 c 2,8,-1
 66 473 l 2,9,10
 66 659 66 659 338 659 c 0,11,12
 613 659 613 659 613 474 c 2,0,-1
519 167 m 2,13,-1
 519 476 l 2,14,15
 519 596 519 596 339 596 c 0,16,17
 301 596 301 596 272 591.5 c 128,-1,18
 243 587 243 587 216 574.5 c 128,-1,19
 189 562 189 562 174 537.5 c 128,-1,20
 159 513 159 513 159 476 c 2,21,-1
 159 167 l 2,22,23
 159 55 159 55 340 55 c 0,24,25
 519 55 519 55 519 167 c 2,13,-1
245 793 m 0,26,27
 269 793 269 793 310 776 c 128,-1,28
 351 759 351 759 370 759 c 0,29,30
 392 759 392 759 406 769.5 c 128,-1,31
 420 780 420 780 435 802 c 1,32,-1
 435 733 l 1,33,34
 412 694 412 694 370 694 c 0,35,36
 344 694 344 694 304 712 c 128,-1,37
 264 730 264 730 245 730 c 0,38,39
 205 730 205 730 180 691 c 1,40,-1
 180 764 l 1,41,42
 204 793 204 793 245 793 c 0,26,27
EndSplineSet
EndChar

StartChar: Odieresis
Encoding: 214 214 144
Width: 679
Flags: MW
HStem: -10 21G<278.5 396> 639 20G<282 396.5> 715 21G<200 290 200 200 370 370 370 460> 789 20G<200 290 290 290 370 460 460 460>
LayerCount: 2
Fore
SplineSet
613 474 m 2,0,-1
 613 166 l 2,1,2
 613 113 613 113 587.5 76 c 128,-1,3
 562 39 562 39 518 21.5 c 128,-1,4
 474 4 474 4 431 -3 c 128,-1,5
 388 -10 388 -10 338 -10 c 0,6,7
 66 -10 66 -10 66 166 c 2,8,-1
 66 473 l 2,9,10
 66 659 66 659 338 659 c 0,11,12
 613 659 613 659 613 474 c 2,0,-1
519 167 m 2,13,-1
 519 476 l 2,14,15
 519 596 519 596 339 596 c 0,16,17
 301 596 301 596 272 591.5 c 128,-1,18
 243 587 243 587 216 574.5 c 128,-1,19
 189 562 189 562 174 537.5 c 128,-1,20
 159 513 159 513 159 476 c 2,21,-1
 159 167 l 2,22,23
 159 55 159 55 340 55 c 0,24,25
 519 55 519 55 519 167 c 2,13,-1
290 715 m 1,26,-1
 200 715 l 1,27,-1
 200 809 l 1,28,-1
 290 809 l 1,29,-1
 290 715 l 1,26,-1
460 715 m 1,30,-1
 370 715 l 1,31,-1
 370 809 l 1,32,-1
 460 809 l 1,33,-1
 460 715 l 1,30,-1
EndSplineSet
EndChar

StartChar: multiply
Encoding: 215 215 145
Width: 500
Flags: MW
HStem: 135 21G<382 382> 475 20G<382 382>
LayerCount: 2
Fore
SplineSet
118 494 m 1,0,-1
 249 362 l 1,1,-1
 382 495 l 1,2,-1
 429 447 l 1,3,-1
 297 315 l 1,4,-1
 429 183 l 1,5,-1
 382 135 l 1,6,-1
 249 267 l 1,7,-1
 118 136 l 1,8,-1
 70 183 l 1,9,-1
 202 315 l 1,10,-1
 70 447 l 1,11,-1
 118 494 l 1,0,-1
EndSplineSet
EndChar

StartChar: Oslash
Encoding: 216 216 146
Width: 679
Flags: MW
HStem: -10 21G<278.5 396> 639 20G<282 396.5>
LayerCount: 2
Fore
SplineSet
613 474 m 2,0,-1
 613 166 l 2,1,2
 613 113 613 113 587.5 76 c 128,-1,3
 562 39 562 39 518 21.5 c 128,-1,4
 474 4 474 4 431 -3 c 128,-1,5
 388 -10 388 -10 338 -10 c 0,6,7
 66 -10 66 -10 66 166 c 2,8,-1
 66 473 l 2,9,10
 66 659 66 659 338 659 c 0,11,12
 613 659 613 659 613 474 c 2,0,-1
159 167 m 2,13,14
 159 148 159 148 161 140 c 1,15,-1
 475 566 l 1,16,17
 431 596 431 596 339 596 c 0,18,19
 301 596 301 596 272 591.5 c 128,-1,20
 243 587 243 587 216 574.5 c 128,-1,21
 189 562 189 562 174 537.5 c 128,-1,22
 159 513 159 513 159 476 c 2,23,-1
 159 167 l 2,13,14
519 167 m 2,24,-1
 519 476 l 2,25,26
 519 492 519 492 516 507 c 1,27,-1
 203 83 l 1,28,29
 246 55 246 55 340 55 c 0,30,31
 519 55 519 55 519 167 c 2,24,-1
EndSplineSet
EndChar

StartChar: Ugrave
Encoding: 217 217 147
Width: 676
Flags: MW
HStem: -10 21G<277.5 394.5> 629 20G<84 177 177 177 498 591 591 591> 703 21G<326 400 326 326> 810 20G<201 310 310 310>
LayerCount: 2
Fore
SplineSet
591 649 m 1,0,-1
 591 166 l 2,1,2
 591 -10 591 -10 337 -10 c 0,3,4
 286 -10 286 -10 246 -3.5 c 128,-1,5
 206 3 206 3 167 20.5 c 128,-1,6
 128 38 128 38 106 75 c 128,-1,7
 84 112 84 112 84 166 c 2,8,-1
 84 649 l 1,9,-1
 177 649 l 1,10,-1
 177 167 l 2,11,12
 177 103 177 103 220 79 c 128,-1,13
 263 55 263 55 339 55 c 128,-1,14
 415 55 415 55 456.5 79 c 128,-1,15
 498 103 498 103 498 167 c 2,16,-1
 498 649 l 1,17,-1
 591 649 l 1,0,-1
400 703 m 1,18,-1
 326 703 l 1,19,-1
 201 830 l 1,20,-1
 310 830 l 1,21,-1
 400 703 l 1,18,-1
EndSplineSet
EndChar

StartChar: Uacute
Encoding: 218 218 148
Width: 676
Flags: MW
HStem: -10 21G<277.5 394.5> 629 20G<84 177 177 177 498 591 591 591> 703 21G<261 335 261 261> 810 20G<351 460 460 460>
LayerCount: 2
Fore
SplineSet
591 649 m 1,0,-1
 591 166 l 2,1,2
 591 -10 591 -10 337 -10 c 0,3,4
 286 -10 286 -10 246 -3.5 c 128,-1,5
 206 3 206 3 167 20.5 c 128,-1,6
 128 38 128 38 106 75 c 128,-1,7
 84 112 84 112 84 166 c 2,8,-1
 84 649 l 1,9,-1
 177 649 l 1,10,-1
 177 167 l 2,11,12
 177 103 177 103 220 79 c 128,-1,13
 263 55 263 55 339 55 c 128,-1,14
 415 55 415 55 456.5 79 c 128,-1,15
 498 103 498 103 498 167 c 2,16,-1
 498 649 l 1,17,-1
 591 649 l 1,0,-1
460 830 m 1,18,-1
 335 703 l 1,19,-1
 261 703 l 1,20,-1
 351 830 l 1,21,-1
 460 830 l 1,18,-1
EndSplineSet
EndChar

StartChar: Ucircumflex
Encoding: 219 219 149
Width: 676
Flags: MW
HStem: -10 21G<277.5 394.5> 629 20G<84 177 177 177 498 591 591 591> 703 21G<211 211 211 269 394 394 394 452> 810 20G<279 386 386 386>
LayerCount: 2
Fore
SplineSet
591 649 m 1,0,-1
 591 166 l 2,1,2
 591 -10 591 -10 337 -10 c 0,3,4
 286 -10 286 -10 246 -3.5 c 128,-1,5
 206 3 206 3 167 20.5 c 128,-1,6
 128 38 128 38 106 75 c 128,-1,7
 84 112 84 112 84 166 c 2,8,-1
 84 649 l 1,9,-1
 177 649 l 1,10,-1
 177 167 l 2,11,12
 177 103 177 103 220 79 c 128,-1,13
 263 55 263 55 339 55 c 128,-1,14
 415 55 415 55 456.5 79 c 128,-1,15
 498 103 498 103 498 167 c 2,16,-1
 498 649 l 1,17,-1
 591 649 l 1,0,-1
211 703 m 1,18,-1
 279 830 l 1,19,-1
 386 830 l 1,20,-1
 452 703 l 1,21,-1
 394 703 l 1,22,-1
 332 790 l 1,23,-1
 269 703 l 1,24,-1
 211 703 l 1,18,-1
EndSplineSet
EndChar

StartChar: Udieresis
Encoding: 220 220 150
Width: 676
Flags: MW
HStem: -10 21G<277.5 394.5> 629 20G<84 177 177 177 498 591 591 591> 715 21G<201 291 201 201 371 371 371 461> 789 20G<201 291 291 291 371 461 461 461>
LayerCount: 2
Fore
SplineSet
591 649 m 1,0,-1
 591 166 l 2,1,2
 591 -10 591 -10 337 -10 c 0,3,4
 286 -10 286 -10 246 -3.5 c 128,-1,5
 206 3 206 3 167 20.5 c 128,-1,6
 128 38 128 38 106 75 c 128,-1,7
 84 112 84 112 84 166 c 2,8,-1
 84 649 l 1,9,-1
 177 649 l 1,10,-1
 177 167 l 2,11,12
 177 103 177 103 220 79 c 128,-1,13
 263 55 263 55 339 55 c 128,-1,14
 415 55 415 55 456.5 79 c 128,-1,15
 498 103 498 103 498 167 c 2,16,-1
 498 649 l 1,17,-1
 591 649 l 1,0,-1
291 715 m 1,18,-1
 201 715 l 1,19,-1
 201 809 l 1,20,-1
 291 809 l 1,21,-1
 291 715 l 1,18,-1
461 715 m 1,22,-1
 371 715 l 1,23,-1
 371 809 l 1,24,-1
 461 809 l 1,25,-1
 461 715 l 1,22,-1
EndSplineSet
EndChar

StartChar: Yacute
Encoding: 221 221 151
Width: 584
Flags: MW
HStem: 0 21G<243 340 243 243> 629 20G<8 119 119 119 465 576 576 576> 703 21G<220 294 220 220> 810 20G<310 419 419 419>
LayerCount: 2
Fore
SplineSet
576 649 m 1,0,-1
 340 265 l 1,1,-1
 340 0 l 1,2,-1
 243 0 l 1,3,-1
 243 262 l 1,4,-1
 8 649 l 1,5,-1
 119 649 l 1,6,-1
 292 344 l 1,7,-1
 465 649 l 1,8,-1
 576 649 l 1,0,-1
419 830 m 1,9,-1
 294 703 l 1,10,-1
 220 703 l 1,11,-1
 310 830 l 1,12,-1
 419 830 l 1,9,-1
EndSplineSet
EndChar

StartChar: Thorn
Encoding: 222 222 152
Width: 570
Flags: MW
HStem: 0 21G<84 181 84 84> 119 61<181 278 181 291> 473 61<181 296 181 289> 629 20G<84 181 181 181>
LayerCount: 2
Fore
SplineSet
181 473 m 1,0,-1
 181 180 l 1,1,-1
 291 180 l 2,2,3
 349 180 349 180 389.5 201.5 c 128,-1,4
 430 223 430 223 430 276 c 2,5,-1
 430 394 l 2,6,7
 430 421 430 421 416 438.5 c 128,-1,8
 402 456 402 456 376 463 c 128,-1,9
 350 470 350 470 332.5 471.5 c 128,-1,10
 315 473 315 473 289 473 c 2,11,-1
 181 473 l 1,0,-1
181 0 m 1,12,-1
 84 0 l 1,13,-1
 84 649 l 1,14,-1
 181 649 l 1,15,-1
 181 534 l 1,16,-1
 296 534 l 2,17,18
 336 534 336 534 365 532 c 128,-1,19
 394 530 394 530 426.5 522.5 c 128,-1,20
 459 515 459 515 478.5 501.5 c 128,-1,21
 498 488 498 488 511.5 464 c 128,-1,22
 525 440 525 440 525 406 c 2,23,-1
 525 271 l 2,24,25
 525 188 525 188 460.5 153.5 c 128,-1,26
 396 119 396 119 278 119 c 2,27,-1
 181 119 l 1,28,-1
 181 0 l 1,12,-1
EndSplineSet
EndChar

StartChar: germandbls
Encoding: 223 223 153
Width: 602
Flags: MW
HStem: 0 21G<78 170 78 78 252 312 252 252> 639 20G<218.5 393>
LayerCount: 2
Fore
SplineSet
542 238 m 2,0,-1
 542 129 l 2,1,2
 542 58 542 58 488 29 c 128,-1,3
 434 0 434 0 312 0 c 2,4,-1
 252 0 l 1,5,-1
 252 64 l 1,6,-1
 317 64 l 2,7,8
 390 64 390 64 420 79 c 128,-1,9
 450 94 450 94 450 130 c 2,10,-1
 450 231 l 2,11,12
 450 257 450 257 439.5 272.5 c 128,-1,13
 429 288 429 288 406.5 294.5 c 128,-1,14
 384 301 384 301 366.5 302.5 c 128,-1,15
 349 304 349 304 317 304 c 2,16,-1
 252 304 l 1,17,-1
 252 365 l 1,18,-1
 313 365 l 2,19,20
 375 365 375 365 401 383.5 c 128,-1,21
 427 402 427 402 427 442 c 2,22,-1
 427 528 l 2,23,24
 427 564 427 564 398 579.5 c 128,-1,25
 369 595 369 595 305 595 c 0,26,27
 221 595 221 595 195.5 577 c 128,-1,28
 170 559 170 559 170 494 c 2,29,-1
 170 0 l 1,30,-1
 78 0 l 1,31,-1
 78 474 l 2,32,33
 78 582 78 582 126 620.5 c 128,-1,34
 174 659 174 659 305 659 c 0,35,36
 389 659 389 659 436.5 642 c 128,-1,37
 484 625 484 625 498.5 600 c 128,-1,38
 513 575 513 575 513 536 c 2,39,-1
 513 439 l 2,40,41
 513 398 513 398 491.5 377.5 c 128,-1,42
 470 357 470 357 427 347 c 1,43,-1
 427 343 l 1,44,45
 479 334 479 334 510.5 307.5 c 128,-1,46
 542 281 542 281 542 238 c 2,0,-1
EndSplineSet
Substitution2: "'smcp' Lowercase to Small Capitals in Latin lookup 21 subtable" germandbls.smcp
Substitution2: "'c2sc' Capitals to Small Capitals in Latin lookup 20 subtable" germandbls.smcp
EndChar

StartChar: agrave
Encoding: 224 224 154
Width: 538
Flags: MW
HStem: -10 59<224 242 242 263> 0 21G<373 460 373 373> 474 20G<243.5 348.5> 553 21G<245 319 245 245> 660 20G<120 229 229 229>
LayerCount: 2
Fore
SplineSet
460 0 m 1,0,-1
 373 0 l 1,1,-1
 373 46 l 1,2,3
 362 -10 362 -10 227 -10 c 0,4,5
 127 -10 127 -10 88.5 20.5 c 128,-1,6
 50 51 50 51 50 144 c 0,7,8
 50 225 50 225 86 255.5 c 128,-1,9
 122 286 122 286 225 286 c 2,10,-1
 370 286 l 1,11,-1
 370 363 l 2,12,13
 370 403 370 403 345.5 417 c 128,-1,14
 321 431 321 431 253 431 c 0,15,16
 179 431 179 431 87 419 c 1,17,-1
 87 485 l 1,18,19
 186 494 186 494 266 494 c 0,20,21
 388 494 388 494 424 464.5 c 128,-1,22
 460 435 460 435 460 342 c 2,23,-1
 460 0 l 1,0,-1
370 98 m 2,24,-1
 370 230 l 1,25,-1
 231 230 l 2,26,27
 169 230 169 230 153.5 214 c 128,-1,28
 138 198 138 198 138 141 c 0,29,30
 138 90 138 90 154.5 69.5 c 128,-1,31
 171 49 171 49 224 49 c 2,32,-1
 242 49 l 2,33,34
 268 49 268 49 285.5 50 c 128,-1,35
 303 51 303 51 325 55.5 c 128,-1,36
 347 60 347 60 358.5 70.5 c 128,-1,37
 370 81 370 81 370 98 c 2,24,-1
319 553 m 1,38,-1
 245 553 l 1,39,-1
 120 680 l 1,40,-1
 229 680 l 1,41,-1
 319 553 l 1,38,-1
EndSplineSet
Substitution2: "'smcp' Lowercase to Small Capitals in Latin lookup 21 subtable" agrave.smcp
Substitution2: "'c2sc' Capitals to Small Capitals in Latin lookup 20 subtable" agrave.smcp
EndChar

StartChar: aacute
Encoding: 225 225 155
Width: 538
Flags: MW
HStem: -10 59<224 242 242 263> 0 21G<373 460 373 373> 474 20G<243.5 348.5> 553 21G<190 264 190 190> 660 20G<280 389 389 389>
LayerCount: 2
Fore
SplineSet
460 0 m 1,0,-1
 373 0 l 1,1,-1
 373 46 l 1,2,3
 362 -10 362 -10 227 -10 c 0,4,5
 127 -10 127 -10 88.5 20.5 c 128,-1,6
 50 51 50 51 50 144 c 0,7,8
 50 225 50 225 86 255.5 c 128,-1,9
 122 286 122 286 225 286 c 2,10,-1
 370 286 l 1,11,-1
 370 363 l 2,12,13
 370 403 370 403 345.5 417 c 128,-1,14
 321 431 321 431 253 431 c 0,15,16
 179 431 179 431 87 419 c 1,17,-1
 87 485 l 1,18,19
 186 494 186 494 266 494 c 0,20,21
 388 494 388 494 424 464.5 c 128,-1,22
 460 435 460 435 460 342 c 2,23,-1
 460 0 l 1,0,-1
370 98 m 2,24,-1
 370 230 l 1,25,-1
 231 230 l 2,26,27
 169 230 169 230 153.5 214 c 128,-1,28
 138 198 138 198 138 141 c 0,29,30
 138 90 138 90 154.5 69.5 c 128,-1,31
 171 49 171 49 224 49 c 2,32,-1
 242 49 l 2,33,34
 268 49 268 49 285.5 50 c 128,-1,35
 303 51 303 51 325 55.5 c 128,-1,36
 347 60 347 60 358.5 70.5 c 128,-1,37
 370 81 370 81 370 98 c 2,24,-1
389 680 m 1,38,-1
 264 553 l 1,39,-1
 190 553 l 1,40,-1
 280 680 l 1,41,-1
 389 680 l 1,38,-1
EndSplineSet
Substitution2: "'smcp' Lowercase to Small Capitals in Latin lookup 21 subtable" aacute.smcp
Substitution2: "'c2sc' Capitals to Small Capitals in Latin lookup 20 subtable" aacute.smcp
EndChar

StartChar: acircumflex
Encoding: 226 226 156
Width: 538
Flags: MW
HStem: -10 59<224 242 242 263> 0 21G<373 460 373 373> 474 20G<243.5 348.5> 553 21G<140 140 140 198 323 323 323 381> 660 20G<208 315 315 315>
LayerCount: 2
Fore
SplineSet
460 0 m 1,0,-1
 373 0 l 1,1,-1
 373 46 l 1,2,3
 362 -10 362 -10 227 -10 c 0,4,5
 127 -10 127 -10 88.5 20.5 c 128,-1,6
 50 51 50 51 50 144 c 0,7,8
 50 225 50 225 86 255.5 c 128,-1,9
 122 286 122 286 225 286 c 2,10,-1
 370 286 l 1,11,-1
 370 363 l 2,12,13
 370 403 370 403 345.5 417 c 128,-1,14
 321 431 321 431 253 431 c 0,15,16
 179 431 179 431 87 419 c 1,17,-1
 87 485 l 1,18,19
 186 494 186 494 266 494 c 0,20,21
 388 494 388 494 424 464.5 c 128,-1,22
 460 435 460 435 460 342 c 2,23,-1
 460 0 l 1,0,-1
370 98 m 2,24,-1
 370 230 l 1,25,-1
 231 230 l 2,26,27
 169 230 169 230 153.5 214 c 128,-1,28
 138 198 138 198 138 141 c 0,29,30
 138 90 138 90 154.5 69.5 c 128,-1,31
 171 49 171 49 224 49 c 2,32,-1
 242 49 l 2,33,34
 268 49 268 49 285.5 50 c 128,-1,35
 303 51 303 51 325 55.5 c 128,-1,36
 347 60 347 60 358.5 70.5 c 128,-1,37
 370 81 370 81 370 98 c 2,24,-1
140 553 m 1,38,-1
 208 680 l 1,39,-1
 315 680 l 1,40,-1
 381 553 l 1,41,-1
 323 553 l 1,42,-1
 261 640 l 1,43,-1
 198 553 l 1,44,-1
 140 553 l 1,38,-1
EndSplineSet
Substitution2: "'smcp' Lowercase to Small Capitals in Latin lookup 21 subtable" acircumflex.smcp
Substitution2: "'c2sc' Capitals to Small Capitals in Latin lookup 20 subtable" acircumflex.smcp
EndChar

StartChar: atilde
Encoding: 227 227 157
Width: 538
Flags: MW
HStem: -10 59<224 242 242 263> 0 21G<373 460 373 373> 474 20G<243.5 348.5> 541 21G<142 142> 632 20G<397 397>
LayerCount: 2
Fore
SplineSet
460 0 m 1,0,-1
 373 0 l 1,1,-1
 373 46 l 1,2,3
 362 -10 362 -10 227 -10 c 0,4,5
 127 -10 127 -10 88.5 20.5 c 128,-1,6
 50 51 50 51 50 144 c 0,7,8
 50 225 50 225 86 255.5 c 128,-1,9
 122 286 122 286 225 286 c 2,10,-1
 370 286 l 1,11,-1
 370 363 l 2,12,13
 370 403 370 403 345.5 417 c 128,-1,14
 321 431 321 431 253 431 c 0,15,16
 179 431 179 431 87 419 c 1,17,-1
 87 485 l 1,18,19
 186 494 186 494 266 494 c 0,20,21
 388 494 388 494 424 464.5 c 128,-1,22
 460 435 460 435 460 342 c 2,23,-1
 460 0 l 1,0,-1
370 98 m 2,24,-1
 370 230 l 1,25,-1
 231 230 l 2,26,27
 169 230 169 230 153.5 214 c 128,-1,28
 138 198 138 198 138 141 c 0,29,30
 138 90 138 90 154.5 69.5 c 128,-1,31
 171 49 171 49 224 49 c 2,32,-1
 242 49 l 2,33,34
 268 49 268 49 285.5 50 c 128,-1,35
 303 51 303 51 325 55.5 c 128,-1,36
 347 60 347 60 358.5 70.5 c 128,-1,37
 370 81 370 81 370 98 c 2,24,-1
207 643 m 0,38,39
 231 643 231 643 272 626 c 128,-1,40
 313 609 313 609 332 609 c 0,41,42
 354 609 354 609 368 619.5 c 128,-1,43
 382 630 382 630 397 652 c 1,44,-1
 397 583 l 1,45,46
 374 544 374 544 332 544 c 0,47,48
 306 544 306 544 266 562 c 128,-1,49
 226 580 226 580 207 580 c 0,50,51
 167 580 167 580 142 541 c 1,52,-1
 142 614 l 1,53,54
 166 643 166 643 207 643 c 0,38,39
EndSplineSet
Substitution2: "'smcp' Lowercase to Small Capitals in Latin lookup 21 subtable" atilde.smcp
Substitution2: "'c2sc' Capitals to Small Capitals in Latin lookup 20 subtable" atilde.smcp
EndChar

StartChar: adieresis
Encoding: 228 228 158
Width: 538
Flags: MW
HStem: -10 59<224 242 242 263> 0 21G<373 460 373 373> 474 20G<243.5 348.5> 565 21G<130 220 130 130 300 300 300 390> 639 20G<130 220 220 220 300 390 390 390>
LayerCount: 2
Fore
SplineSet
460 0 m 1,0,-1
 373 0 l 1,1,-1
 373 46 l 1,2,3
 362 -10 362 -10 227 -10 c 0,4,5
 127 -10 127 -10 88.5 20.5 c 128,-1,6
 50 51 50 51 50 144 c 0,7,8
 50 225 50 225 86 255.5 c 128,-1,9
 122 286 122 286 225 286 c 2,10,-1
 370 286 l 1,11,-1
 370 363 l 2,12,13
 370 403 370 403 345.5 417 c 128,-1,14
 321 431 321 431 253 431 c 0,15,16
 179 431 179 431 87 419 c 1,17,-1
 87 485 l 1,18,19
 186 494 186 494 266 494 c 0,20,21
 388 494 388 494 424 464.5 c 128,-1,22
 460 435 460 435 460 342 c 2,23,-1
 460 0 l 1,0,-1
370 98 m 2,24,-1
 370 230 l 1,25,-1
 231 230 l 2,26,27
 169 230 169 230 153.5 214 c 128,-1,28
 138 198 138 198 138 141 c 0,29,30
 138 90 138 90 154.5 69.5 c 128,-1,31
 171 49 171 49 224 49 c 2,32,-1
 242 49 l 2,33,34
 268 49 268 49 285.5 50 c 128,-1,35
 303 51 303 51 325 55.5 c 128,-1,36
 347 60 347 60 358.5 70.5 c 128,-1,37
 370 81 370 81 370 98 c 2,24,-1
220 565 m 1,38,-1
 130 565 l 1,39,-1
 130 659 l 1,40,-1
 220 659 l 1,41,-1
 220 565 l 1,38,-1
390 565 m 1,42,-1
 300 565 l 1,43,-1
 300 659 l 1,44,-1
 390 659 l 1,45,-1
 390 565 l 1,42,-1
EndSplineSet
Substitution2: "'smcp' Lowercase to Small Capitals in Latin lookup 21 subtable" adieresis.smcp
Substitution2: "'c2sc' Capitals to Small Capitals in Latin lookup 20 subtable" adieresis.smcp
EndChar

StartChar: aring
Encoding: 229 229 159
Width: 538
Flags: MW
HStem: -10 59<224 242 242 263> 0 21G<373 460 373 373> 474 20G<243.5 348.5> 553 21G<228 308.5> 747 20G<228 308>
LayerCount: 2
Fore
SplineSet
460 0 m 1,0,-1
 373 0 l 1,1,-1
 373 46 l 1,2,3
 362 -10 362 -10 227 -10 c 0,4,5
 127 -10 127 -10 88.5 20.5 c 128,-1,6
 50 51 50 51 50 144 c 0,7,8
 50 225 50 225 86 255.5 c 128,-1,9
 122 286 122 286 225 286 c 2,10,-1
 370 286 l 1,11,-1
 370 363 l 2,12,13
 370 403 370 403 345.5 417 c 128,-1,14
 321 431 321 431 253 431 c 0,15,16
 179 431 179 431 87 419 c 1,17,-1
 87 485 l 1,18,19
 186 494 186 494 266 494 c 0,20,21
 388 494 388 494 424 464.5 c 128,-1,22
 460 435 460 435 460 342 c 2,23,-1
 460 0 l 1,0,-1
370 98 m 2,24,-1
 370 230 l 1,25,-1
 231 230 l 2,26,27
 169 230 169 230 153.5 214 c 128,-1,28
 138 198 138 198 138 141 c 0,29,30
 138 90 138 90 154.5 69.5 c 128,-1,31
 171 49 171 49 224 49 c 2,32,-1
 242 49 l 2,33,34
 268 49 268 49 285.5 50 c 128,-1,35
 303 51 303 51 325 55.5 c 128,-1,36
 347 60 347 60 358.5 70.5 c 128,-1,37
 370 81 370 81 370 98 c 2,24,-1
402 663 m 2,38,-1
 402 651 l 2,39,40
 402 617 402 617 393.5 596.5 c 128,-1,41
 385 576 385 576 364.5 567 c 128,-1,42
 344 558 344 558 324 555.5 c 128,-1,43
 304 553 304 553 268 553 c 128,-1,44
 232 553 232 553 212.5 555.5 c 128,-1,45
 193 558 193 558 172.5 567 c 128,-1,46
 152 576 152 576 143.5 596.5 c 128,-1,47
 135 617 135 617 135 651 c 2,48,-1
 135 663 l 2,49,50
 135 699 135 699 143.5 721 c 128,-1,51
 152 743 152 743 172.5 752.5 c 128,-1,52
 193 762 193 762 212.5 764.5 c 128,-1,53
 232 767 232 767 268 767 c 0,54,55
 296 767 296 767 313 765.5 c 128,-1,56
 330 764 330 764 349 758.5 c 128,-1,57
 368 753 368 753 378 742.5 c 128,-1,58
 388 732 388 732 395 712 c 128,-1,59
 402 692 402 692 402 663 c 2,38,-1
339 644 m 2,60,-1
 339 671 l 2,61,62
 339 707 339 707 324 716 c 128,-1,63
 309 725 309 725 268 725 c 128,-1,64
 227 725 227 725 212.5 716 c 128,-1,65
 198 707 198 707 198 671 c 2,66,-1
 198 644 l 2,67,68
 198 611 198 611 212.5 603 c 128,-1,69
 227 595 227 595 268 595 c 128,-1,70
 309 595 309 595 324 603 c 128,-1,71
 339 611 339 611 339 644 c 2,60,-1
EndSplineSet
Substitution2: "'smcp' Lowercase to Small Capitals in Latin lookup 21 subtable" aring.smcp
Substitution2: "'c2sc' Capitals to Small Capitals in Latin lookup 20 subtable" aring.smcp
EndChar

StartChar: ae
Encoding: 230 230 160
Width: 840
Flags: MW
HStem: -10 21G<161.5 274.5 548.5 626.5> 474 20G<246 313.5 549 650.5>
LayerCount: 2
Fore
SplineSet
781 222 m 1,0,-1
 466 222 l 1,1,-1
 466 149 l 2,2,3
 466 98 466 98 499.5 76.5 c 128,-1,4
 533 55 533 55 604 55 c 0,5,6
 668 55 668 55 762 79 c 1,7,-1
 762 10 l 1,8,9
 671 -10 671 -10 589 -10 c 0,10,11
 462 -10 462 -10 408 47 c 1,12,13
 394 -10 394 -10 230 -10 c 0,14,15
 125 -10 125 -10 87.5 19.5 c 128,-1,16
 50 49 50 49 50 140 c 0,17,18
 50 224 50 224 85.5 255 c 128,-1,19
 121 286 121 286 225 286 c 2,20,-1
 375 286 l 1,21,-1
 375 361 l 2,22,23
 375 399 375 399 349.5 415 c 128,-1,24
 324 431 324 431 261 431 c 0,25,26
 151 431 151 431 87 414 c 1,27,-1
 87 480 l 1,28,29
 162 494 162 494 273 494 c 0,30,31
 392 494 392 494 431 459 c 1,32,33
 480 494 480 494 584 494 c 128,-1,34
 688 494 688 494 734.5 458 c 128,-1,35
 781 422 781 422 781 329 c 2,36,-1
 781 222 l 1,0,-1
691 281 m 1,37,-1
 691 357 l 2,38,39
 691 402 691 402 666.5 418 c 128,-1,40
 642 434 642 434 580 434 c 0,41,42
 521 434 521 434 493.5 418 c 128,-1,43
 466 402 466 402 466 357 c 2,44,-1
 466 281 l 1,45,-1
 691 281 l 1,37,-1
375 109 m 2,46,-1
 375 230 l 1,47,-1
 231 230 l 2,48,49
 169 230 169 230 153.5 214 c 128,-1,50
 138 198 138 198 138 141 c 0,51,52
 138 87 138 87 154.5 67 c 128,-1,53
 171 47 171 47 234 47 c 0,54,55
 262 47 262 47 277 47.5 c 128,-1,56
 292 48 292 48 314 51.5 c 128,-1,57
 336 55 336 55 347 61 c 128,-1,58
 358 67 358 67 366.5 79 c 128,-1,59
 375 91 375 91 375 109 c 2,46,-1
EndSplineSet
Substitution2: "'smcp' Lowercase to Small Capitals in Latin lookup 21 subtable" ae.smcp
Substitution2: "'c2sc' Capitals to Small Capitals in Latin lookup 20 subtable" ae.smcp
EndChar

StartChar: egrave
Encoding: 232 232 161
Width: 535
Flags: MW
HStem: -10 21G<216.5 318.5> 222 59<151 386 151 476 151 386> 434 60<232.5 309.5> 553 21G<245 319 245 245> 660 20G<120 229 229 229>
LayerCount: 2
Fore
SplineSet
476 222 m 1,0,-1
 151 222 l 1,1,-1
 151 149 l 2,2,3
 151 98 151 98 187 76.5 c 128,-1,4
 223 55 223 55 294 55 c 0,5,6
 363 55 363 55 457 79 c 1,7,-1
 457 10 l 1,8,9
 367 -10 367 -10 282 -10 c 0,10,11
 60 -10 60 -10 60 138 c 2,12,-1
 60 329 l 2,13,14
 60 418 60 418 111 456 c 128,-1,15
 162 494 162 494 274 494 c 0,16,17
 379 494 379 494 427.5 457.5 c 128,-1,18
 476 421 476 421 476 329 c 2,19,-1
 476 222 l 1,0,-1
386 281 m 1,20,-1
 386 357 l 2,21,22
 386 401 386 401 359 417.5 c 128,-1,23
 332 434 332 434 269 434 c 0,24,25
 209 434 209 434 180 418 c 128,-1,26
 151 402 151 402 151 357 c 2,27,-1
 151 281 l 1,28,-1
 386 281 l 1,20,-1
319 553 m 1,29,-1
 245 553 l 1,30,-1
 120 680 l 1,31,-1
 229 680 l 1,32,-1
 319 553 l 1,29,-1
EndSplineSet
Substitution2: "'smcp' Lowercase to Small Capitals in Latin lookup 21 subtable" egrave.smcp
Substitution2: "'c2sc' Capitals to Small Capitals in Latin lookup 20 subtable" egrave.smcp
EndChar

StartChar: eacute
Encoding: 233 233 162
Width: 535
Flags: MW
HStem: -10 21G<216.5 318.5> 222 59<151 386 151 476 151 386> 434 60<232.5 309.5> 553 21G<200 274 200 200> 660 20G<290 399 399 399>
LayerCount: 2
Fore
SplineSet
476 222 m 1,0,-1
 151 222 l 1,1,-1
 151 149 l 2,2,3
 151 98 151 98 187 76.5 c 128,-1,4
 223 55 223 55 294 55 c 0,5,6
 363 55 363 55 457 79 c 1,7,-1
 457 10 l 1,8,9
 367 -10 367 -10 282 -10 c 0,10,11
 60 -10 60 -10 60 138 c 2,12,-1
 60 329 l 2,13,14
 60 418 60 418 111 456 c 128,-1,15
 162 494 162 494 274 494 c 0,16,17
 379 494 379 494 427.5 457.5 c 128,-1,18
 476 421 476 421 476 329 c 2,19,-1
 476 222 l 1,0,-1
386 281 m 1,20,-1
 386 357 l 2,21,22
 386 401 386 401 359 417.5 c 128,-1,23
 332 434 332 434 269 434 c 0,24,25
 209 434 209 434 180 418 c 128,-1,26
 151 402 151 402 151 357 c 2,27,-1
 151 281 l 1,28,-1
 386 281 l 1,20,-1
399 680 m 1,29,-1
 274 553 l 1,30,-1
 200 553 l 1,31,-1
 290 680 l 1,32,-1
 399 680 l 1,29,-1
EndSplineSet
Substitution2: "'smcp' Lowercase to Small Capitals in Latin lookup 21 subtable" eacute.smcp
Substitution2: "'c2sc' Capitals to Small Capitals in Latin lookup 20 subtable" eacute.smcp
EndChar

StartChar: ecircumflex
Encoding: 234 234 163
Width: 535
Flags: MW
HStem: -10 21G<216.5 318.5> 222 59<151 386 151 476 151 386> 434 60<232.5 309.5> 553 21G<140 140 140 198 323 323 323 381> 660 20G<208 315 315 315>
LayerCount: 2
Fore
SplineSet
476 222 m 1,0,-1
 151 222 l 1,1,-1
 151 149 l 2,2,3
 151 98 151 98 187 76.5 c 128,-1,4
 223 55 223 55 294 55 c 0,5,6
 363 55 363 55 457 79 c 1,7,-1
 457 10 l 1,8,9
 367 -10 367 -10 282 -10 c 0,10,11
 60 -10 60 -10 60 138 c 2,12,-1
 60 329 l 2,13,14
 60 418 60 418 111 456 c 128,-1,15
 162 494 162 494 274 494 c 0,16,17
 379 494 379 494 427.5 457.5 c 128,-1,18
 476 421 476 421 476 329 c 2,19,-1
 476 222 l 1,0,-1
386 281 m 1,20,-1
 386 357 l 2,21,22
 386 401 386 401 359 417.5 c 128,-1,23
 332 434 332 434 269 434 c 0,24,25
 209 434 209 434 180 418 c 128,-1,26
 151 402 151 402 151 357 c 2,27,-1
 151 281 l 1,28,-1
 386 281 l 1,20,-1
140 553 m 1,29,-1
 208 680 l 1,30,-1
 315 680 l 1,31,-1
 381 553 l 1,32,-1
 323 553 l 1,33,-1
 261 640 l 1,34,-1
 198 553 l 1,35,-1
 140 553 l 1,29,-1
EndSplineSet
Substitution2: "'smcp' Lowercase to Small Capitals in Latin lookup 21 subtable" ecircumflex.smcp
Substitution2: "'c2sc' Capitals to Small Capitals in Latin lookup 20 subtable" ecircumflex.smcp
EndChar

StartChar: edieresis
Encoding: 235 235 164
Width: 535
Flags: MW
HStem: -10 21G<216.5 318.5> 222 59<151 386 151 476 151 386> 434 60<232.5 309.5> 565 21G<130 220 130 130 300 300 300 390> 639 20G<130 220 220 220 300 390 390 390>
LayerCount: 2
Fore
SplineSet
476 222 m 1,0,-1
 151 222 l 1,1,-1
 151 149 l 2,2,3
 151 98 151 98 187 76.5 c 128,-1,4
 223 55 223 55 294 55 c 0,5,6
 363 55 363 55 457 79 c 1,7,-1
 457 10 l 1,8,9
 367 -10 367 -10 282 -10 c 0,10,11
 60 -10 60 -10 60 138 c 2,12,-1
 60 329 l 2,13,14
 60 418 60 418 111 456 c 128,-1,15
 162 494 162 494 274 494 c 0,16,17
 379 494 379 494 427.5 457.5 c 128,-1,18
 476 421 476 421 476 329 c 2,19,-1
 476 222 l 1,0,-1
386 281 m 1,20,-1
 386 357 l 2,21,22
 386 401 386 401 359 417.5 c 128,-1,23
 332 434 332 434 269 434 c 0,24,25
 209 434 209 434 180 418 c 128,-1,26
 151 402 151 402 151 357 c 2,27,-1
 151 281 l 1,28,-1
 386 281 l 1,20,-1
220 565 m 1,29,-1
 130 565 l 1,30,-1
 130 659 l 1,31,-1
 220 659 l 1,32,-1
 220 565 l 1,29,-1
390 565 m 1,33,-1
 300 565 l 1,34,-1
 300 659 l 1,35,-1
 390 659 l 1,36,-1
 390 565 l 1,33,-1
EndSplineSet
Substitution2: "'smcp' Lowercase to Small Capitals in Latin lookup 21 subtable" edieresis.smcp
Substitution2: "'c2sc' Capitals to Small Capitals in Latin lookup 20 subtable" edieresis.smcp
EndChar

StartChar: igrave
Encoding: 236 236 165
Width: 246
Flags: MW
HStem: 0 21G<79 169 79 79> 464 20G<79 169 169 169> 553 21G<151 225 151 151> 660 20G<26 135 135 135>
LayerCount: 2
Fore
SplineSet
169 0 m 1,0,-1
 79 0 l 1,1,-1
 79 484 l 1,2,-1
 169 484 l 1,3,-1
 169 0 l 1,0,-1
225 553 m 1,4,-1
 151 553 l 1,5,-1
 26 680 l 1,6,-1
 135 680 l 1,7,-1
 225 553 l 1,4,-1
EndSplineSet
Substitution2: "'smcp' Lowercase to Small Capitals in Latin lookup 21 subtable" igrave.smcp
Substitution2: "'c2sc' Capitals to Small Capitals in Latin lookup 20 subtable" igrave.smcp
EndChar

StartChar: iacute
Encoding: 237 237 166
Width: 246
Flags: MW
HStem: 0 21G<79 169 79 79> 464 20G<79 169 169 169> 553 21G<79 153 79 79> 660 20G<169 278 278 278>
LayerCount: 2
Fore
SplineSet
169 0 m 1,0,-1
 79 0 l 1,1,-1
 79 484 l 1,2,-1
 169 484 l 1,3,-1
 169 0 l 1,0,-1
278 680 m 1,4,-1
 153 553 l 1,5,-1
 79 553 l 1,6,-1
 169 680 l 1,7,-1
 278 680 l 1,4,-1
EndSplineSet
Substitution2: "'smcp' Lowercase to Small Capitals in Latin lookup 21 subtable" iacute.smcp
Substitution2: "'c2sc' Capitals to Small Capitals in Latin lookup 20 subtable" iacute.smcp
EndChar

StartChar: icircumflex
Encoding: 238 238 167
Width: 246
Flags: MW
HStem: 0 21G<79 169 79 79> 464 20G<79 169 169 169> 553 21G<7 7 7 65 190 190 190 248> 660 20G<75 182 182 182>
LayerCount: 2
Fore
SplineSet
169 0 m 1,0,-1
 79 0 l 1,1,-1
 79 484 l 1,2,-1
 169 484 l 1,3,-1
 169 0 l 1,0,-1
7 553 m 1,4,-1
 75 680 l 1,5,-1
 182 680 l 1,6,-1
 248 553 l 1,7,-1
 190 553 l 1,8,-1
 128 640 l 1,9,-1
 65 553 l 1,10,-1
 7 553 l 1,4,-1
EndSplineSet
Substitution2: "'smcp' Lowercase to Small Capitals in Latin lookup 21 subtable" icircumflex.smcp
Substitution2: "'c2sc' Capitals to Small Capitals in Latin lookup 20 subtable" icircumflex.smcp
EndChar

StartChar: idieresis
Encoding: 239 239 168
Width: 246
Flags: MW
HStem: 0 21G<79 169 79 79> 464 20G<79 169 169 169> 565 21G<-5 85 -5 -5 165 165 165 255> 639 20G<-5 85 85 85 165 255 255 255>
LayerCount: 2
Fore
SplineSet
169 0 m 1,0,-1
 79 0 l 1,1,-1
 79 484 l 1,2,-1
 169 484 l 1,3,-1
 169 0 l 1,0,-1
85 565 m 1,4,-1
 -5 565 l 1,5,-1
 -5 659 l 1,6,-1
 85 659 l 1,7,-1
 85 565 l 1,4,-1
255 565 m 1,8,-1
 165 565 l 1,9,-1
 165 659 l 1,10,-1
 255 659 l 1,11,-1
 255 565 l 1,8,-1
EndSplineSet
Substitution2: "'smcp' Lowercase to Small Capitals in Latin lookup 21 subtable" idieresis.smcp
Substitution2: "'c2sc' Capitals to Small Capitals in Latin lookup 20 subtable" idieresis.smcp
EndChar

StartChar: eth
Encoding: 240 240 169
Width: 568
Flags: MW
HStem: -10 58<238.5 327.5 238.5 355> 436 58<237.5 300.5 211.5 328.5> 680 20G<212 318 318 318 450 450>
LayerCount: 2
Fore
SplineSet
189 565 m 1,0,-1
 189 622 l 1,1,-1
 265 645 l 1,2,3
 248 664 248 664 212 700 c 1,4,-1
 318 700 l 1,5,-1
 349 670 l 1,6,-1
 450 700 l 1,7,-1
 450 643 l 1,8,-1
 389 625 l 1,9,10
 504 485 504 485 504 321 c 2,11,-1
 504 153 l 2,12,13
 504 107 504 107 494 76.5 c 128,-1,14
 484 46 484 46 468.5 29 c 128,-1,15
 453 12 453 12 422 3 c 128,-1,16
 391 -6 391 -6 362 -8 c 128,-1,17
 333 -10 333 -10 283 -10 c 0,18,19
 232 -10 232 -10 203 -8 c 128,-1,20
 174 -6 174 -6 143 3 c 128,-1,21
 112 12 112 12 97 29 c 128,-1,22
 82 46 82 46 72 76.5 c 128,-1,23
 62 107 62 107 62 153 c 2,24,-1
 62 321 l 2,25,26
 62 368 62 368 72 400 c 128,-1,27
 82 432 82 432 98 450.5 c 128,-1,28
 114 469 114 469 144 478.5 c 128,-1,29
 174 488 174 488 204.5 491 c 128,-1,30
 235 494 235 494 283 494 c 0,31,32
 340 494 340 494 376 490 c 1,33,34
 345 550 345 550 305 599 c 1,35,-1
 189 565 l 1,0,-1
414 140 m 2,36,-1
 414 336 l 2,37,38
 414 403 414 403 387 419.5 c 128,-1,39
 360 436 360 436 283 436 c 128,-1,40
 206 436 206 436 179 419.5 c 128,-1,41
 152 403 152 403 152 336 c 2,42,-1
 152 140 l 2,43,44
 152 79 152 79 180 63.5 c 128,-1,45
 208 48 208 48 283 48 c 128,-1,46
 358 48 358 48 386 63.5 c 128,-1,47
 414 79 414 79 414 140 c 2,36,-1
EndSplineSet
Substitution2: "'smcp' Lowercase to Small Capitals in Latin lookup 21 subtable" eth.smcp
Substitution2: "'c2sc' Capitals to Small Capitals in Latin lookup 20 subtable" eth.smcp
EndChar

StartChar: ntilde
Encoding: 241 241 170
Width: 573
Flags: MW
HStem: 0 21G<78 168 78 78 405 495 405 405> 464 20G<78 168 168 168> 474 20G<288.5 395> 541 21G<150 150> 632 20G<405 405>
LayerCount: 2
Fore
SplineSet
495 0 m 1,0,-1
 405 0 l 1,1,-1
 405 350 l 2,2,3
 405 368 405 368 402 380 c 128,-1,4
 399 392 399 392 389.5 404.5 c 128,-1,5
 380 417 380 417 357.5 423.5 c 128,-1,6
 335 430 335 430 301 430 c 0,7,8
 222 430 222 430 195 413 c 128,-1,9
 168 396 168 396 168 350 c 2,10,-1
 168 0 l 1,11,-1
 78 0 l 1,12,-1
 78 484 l 1,13,-1
 168 484 l 1,14,-1
 168 425 l 1,15,16
 182 494 182 494 327 494 c 0,17,18
 423 494 423 494 459 459.5 c 128,-1,19
 495 425 495 425 495 355 c 2,20,-1
 495 0 l 1,0,-1
215 643 m 0,21,22
 239 643 239 643 280 626 c 128,-1,23
 321 609 321 609 340 609 c 0,24,25
 362 609 362 609 376 619.5 c 128,-1,26
 390 630 390 630 405 652 c 1,27,-1
 405 583 l 1,28,29
 382 544 382 544 340 544 c 0,30,31
 314 544 314 544 274 562 c 128,-1,32
 234 580 234 580 215 580 c 0,33,34
 175 580 175 580 150 541 c 1,35,-1
 150 614 l 1,36,37
 174 643 174 643 215 643 c 0,21,22
EndSplineSet
Substitution2: "'smcp' Lowercase to Small Capitals in Latin lookup 21 subtable" ntilde.smcp
Substitution2: "'c2sc' Capitals to Small Capitals in Latin lookup 20 subtable" ntilde.smcp
EndChar

StartChar: ograve
Encoding: 242 242 171
Width: 568
Flags: MW
HStem: -10 59<238.5 327.5 238.5 350> 435 59<237.5 328.5> 553 21G<255 329 255 255> 660 20G<130 239 239 239>
LayerCount: 2
Fore
SplineSet
506 321 m 2,0,-1
 506 153 l 2,1,2
 506 108 506 108 495 77 c 128,-1,3
 484 46 484 46 467 29 c 128,-1,4
 450 12 450 12 418.5 3 c 128,-1,5
 387 -6 387 -6 358.5 -8 c 128,-1,6
 330 -10 330 -10 283 -10 c 0,7,8
 223 -10 223 -10 189.5 -6 c 128,-1,9
 156 -2 156 -2 122.5 13.5 c 128,-1,10
 89 29 89 29 74.5 63 c 128,-1,11
 60 97 60 97 60 153 c 2,12,-1
 60 321 l 2,13,14
 60 369 60 369 71.5 402 c 128,-1,15
 83 435 83 435 99.5 453 c 128,-1,16
 116 471 116 471 148 480.5 c 128,-1,17
 180 490 180 490 207.5 492 c 128,-1,18
 235 494 235 494 283 494 c 128,-1,19
 331 494 331 494 358.5 492 c 128,-1,20
 386 490 386 490 418 480.5 c 128,-1,21
 450 471 450 471 466.5 453 c 128,-1,22
 483 435 483 435 494.5 402 c 128,-1,23
 506 369 506 369 506 321 c 2,0,-1
414 140 m 2,24,-1
 414 336 l 2,25,26
 414 403 414 403 387 419 c 128,-1,27
 360 435 360 435 283 435 c 128,-1,28
 206 435 206 435 179 419 c 128,-1,29
 152 403 152 403 152 336 c 2,30,-1
 152 140 l 2,31,32
 152 108 152 108 159 89 c 128,-1,33
 166 70 166 70 185 61.5 c 128,-1,34
 204 53 204 53 224 51 c 128,-1,35
 244 49 244 49 283 49 c 128,-1,36
 322 49 322 49 342 51 c 128,-1,37
 362 53 362 53 381 61.5 c 128,-1,38
 400 70 400 70 407 89 c 128,-1,39
 414 108 414 108 414 140 c 2,24,-1
329 553 m 1,40,-1
 255 553 l 1,41,-1
 130 680 l 1,42,-1
 239 680 l 1,43,-1
 329 553 l 1,40,-1
EndSplineSet
Substitution2: "'smcp' Lowercase to Small Capitals in Latin lookup 21 subtable" ograve.smcp
Substitution2: "'c2sc' Capitals to Small Capitals in Latin lookup 20 subtable" ograve.smcp
EndChar

StartChar: oacute
Encoding: 243 243 172
Width: 568
Flags: MW
HStem: -10 59<238.5 327.5 238.5 350> 435 59<237.5 328.5> 553 21G<210 284 210 210> 660 20G<300 409 409 409>
LayerCount: 2
Fore
SplineSet
506 321 m 2,0,-1
 506 153 l 2,1,2
 506 108 506 108 495 77 c 128,-1,3
 484 46 484 46 467 29 c 128,-1,4
 450 12 450 12 418.5 3 c 128,-1,5
 387 -6 387 -6 358.5 -8 c 128,-1,6
 330 -10 330 -10 283 -10 c 0,7,8
 223 -10 223 -10 189.5 -6 c 128,-1,9
 156 -2 156 -2 122.5 13.5 c 128,-1,10
 89 29 89 29 74.5 63 c 128,-1,11
 60 97 60 97 60 153 c 2,12,-1
 60 321 l 2,13,14
 60 369 60 369 71.5 402 c 128,-1,15
 83 435 83 435 99.5 453 c 128,-1,16
 116 471 116 471 148 480.5 c 128,-1,17
 180 490 180 490 207.5 492 c 128,-1,18
 235 494 235 494 283 494 c 128,-1,19
 331 494 331 494 358.5 492 c 128,-1,20
 386 490 386 490 418 480.5 c 128,-1,21
 450 471 450 471 466.5 453 c 128,-1,22
 483 435 483 435 494.5 402 c 128,-1,23
 506 369 506 369 506 321 c 2,0,-1
414 140 m 2,24,-1
 414 336 l 2,25,26
 414 403 414 403 387 419 c 128,-1,27
 360 435 360 435 283 435 c 128,-1,28
 206 435 206 435 179 419 c 128,-1,29
 152 403 152 403 152 336 c 2,30,-1
 152 140 l 2,31,32
 152 108 152 108 159 89 c 128,-1,33
 166 70 166 70 185 61.5 c 128,-1,34
 204 53 204 53 224 51 c 128,-1,35
 244 49 244 49 283 49 c 128,-1,36
 322 49 322 49 342 51 c 128,-1,37
 362 53 362 53 381 61.5 c 128,-1,38
 400 70 400 70 407 89 c 128,-1,39
 414 108 414 108 414 140 c 2,24,-1
409 680 m 1,40,-1
 284 553 l 1,41,-1
 210 553 l 1,42,-1
 300 680 l 1,43,-1
 409 680 l 1,40,-1
EndSplineSet
Substitution2: "'smcp' Lowercase to Small Capitals in Latin lookup 21 subtable" oacute.smcp
Substitution2: "'c2sc' Capitals to Small Capitals in Latin lookup 20 subtable" oacute.smcp
EndChar

StartChar: ocircumflex
Encoding: 244 244 173
Width: 568
Flags: MW
HStem: -10 59<238.5 327.5 238.5 350> 435 59<237.5 328.5> 553 21G<164 164 164 222 347 347 347 405> 660 20G<232 339 339 339>
LayerCount: 2
Fore
SplineSet
506 321 m 2,0,-1
 506 153 l 2,1,2
 506 108 506 108 495 77 c 128,-1,3
 484 46 484 46 467 29 c 128,-1,4
 450 12 450 12 418.5 3 c 128,-1,5
 387 -6 387 -6 358.5 -8 c 128,-1,6
 330 -10 330 -10 283 -10 c 0,7,8
 223 -10 223 -10 189.5 -6 c 128,-1,9
 156 -2 156 -2 122.5 13.5 c 128,-1,10
 89 29 89 29 74.5 63 c 128,-1,11
 60 97 60 97 60 153 c 2,12,-1
 60 321 l 2,13,14
 60 369 60 369 71.5 402 c 128,-1,15
 83 435 83 435 99.5 453 c 128,-1,16
 116 471 116 471 148 480.5 c 128,-1,17
 180 490 180 490 207.5 492 c 128,-1,18
 235 494 235 494 283 494 c 128,-1,19
 331 494 331 494 358.5 492 c 128,-1,20
 386 490 386 490 418 480.5 c 128,-1,21
 450 471 450 471 466.5 453 c 128,-1,22
 483 435 483 435 494.5 402 c 128,-1,23
 506 369 506 369 506 321 c 2,0,-1
414 140 m 2,24,-1
 414 336 l 2,25,26
 414 403 414 403 387 419 c 128,-1,27
 360 435 360 435 283 435 c 128,-1,28
 206 435 206 435 179 419 c 128,-1,29
 152 403 152 403 152 336 c 2,30,-1
 152 140 l 2,31,32
 152 108 152 108 159 89 c 128,-1,33
 166 70 166 70 185 61.5 c 128,-1,34
 204 53 204 53 224 51 c 128,-1,35
 244 49 244 49 283 49 c 128,-1,36
 322 49 322 49 342 51 c 128,-1,37
 362 53 362 53 381 61.5 c 128,-1,38
 400 70 400 70 407 89 c 128,-1,39
 414 108 414 108 414 140 c 2,24,-1
164 553 m 1,40,-1
 232 680 l 1,41,-1
 339 680 l 1,42,-1
 405 553 l 1,43,-1
 347 553 l 1,44,-1
 285 640 l 1,45,-1
 222 553 l 1,46,-1
 164 553 l 1,40,-1
EndSplineSet
Substitution2: "'smcp' Lowercase to Small Capitals in Latin lookup 21 subtable" ocircumflex.smcp
Substitution2: "'c2sc' Capitals to Small Capitals in Latin lookup 20 subtable" ocircumflex.smcp
EndChar

StartChar: otilde
Encoding: 245 245 174
Width: 568
Flags: MW
HStem: -10 59<238.5 327.5 238.5 350> 435 59<237.5 328.5> 541 21G<157 157> 632 20G<412 412>
LayerCount: 2
Fore
SplineSet
506 321 m 2,0,-1
 506 153 l 2,1,2
 506 108 506 108 495 77 c 128,-1,3
 484 46 484 46 467 29 c 128,-1,4
 450 12 450 12 418.5 3 c 128,-1,5
 387 -6 387 -6 358.5 -8 c 128,-1,6
 330 -10 330 -10 283 -10 c 0,7,8
 223 -10 223 -10 189.5 -6 c 128,-1,9
 156 -2 156 -2 122.5 13.5 c 128,-1,10
 89 29 89 29 74.5 63 c 128,-1,11
 60 97 60 97 60 153 c 2,12,-1
 60 321 l 2,13,14
 60 369 60 369 71.5 402 c 128,-1,15
 83 435 83 435 99.5 453 c 128,-1,16
 116 471 116 471 148 480.5 c 128,-1,17
 180 490 180 490 207.5 492 c 128,-1,18
 235 494 235 494 283 494 c 128,-1,19
 331 494 331 494 358.5 492 c 128,-1,20
 386 490 386 490 418 480.5 c 128,-1,21
 450 471 450 471 466.5 453 c 128,-1,22
 483 435 483 435 494.5 402 c 128,-1,23
 506 369 506 369 506 321 c 2,0,-1
414 140 m 2,24,-1
 414 336 l 2,25,26
 414 403 414 403 387 419 c 128,-1,27
 360 435 360 435 283 435 c 128,-1,28
 206 435 206 435 179 419 c 128,-1,29
 152 403 152 403 152 336 c 2,30,-1
 152 140 l 2,31,32
 152 108 152 108 159 89 c 128,-1,33
 166 70 166 70 185 61.5 c 128,-1,34
 204 53 204 53 224 51 c 128,-1,35
 244 49 244 49 283 49 c 128,-1,36
 322 49 322 49 342 51 c 128,-1,37
 362 53 362 53 381 61.5 c 128,-1,38
 400 70 400 70 407 89 c 128,-1,39
 414 108 414 108 414 140 c 2,24,-1
222 643 m 0,40,41
 246 643 246 643 287 626 c 128,-1,42
 328 609 328 609 347 609 c 0,43,44
 369 609 369 609 383 619.5 c 128,-1,45
 397 630 397 630 412 652 c 1,46,-1
 412 583 l 1,47,48
 389 544 389 544 347 544 c 0,49,50
 321 544 321 544 281 562 c 128,-1,51
 241 580 241 580 222 580 c 0,52,53
 182 580 182 580 157 541 c 1,54,-1
 157 614 l 1,55,56
 181 643 181 643 222 643 c 0,40,41
EndSplineSet
Substitution2: "'smcp' Lowercase to Small Capitals in Latin lookup 21 subtable" otilde.smcp
Substitution2: "'c2sc' Capitals to Small Capitals in Latin lookup 20 subtable" otilde.smcp
EndChar

StartChar: odieresis
Encoding: 246 246 175
Width: 568
Flags: MW
HStem: -10 59<238.5 327.5 238.5 350> 435 59<237.5 328.5> 565 21G<154 244 154 154 324 324 324 414> 639 20G<154 244 244 244 324 414 414 414>
LayerCount: 2
Fore
SplineSet
506 321 m 2,0,-1
 506 153 l 2,1,2
 506 108 506 108 495 77 c 128,-1,3
 484 46 484 46 467 29 c 128,-1,4
 450 12 450 12 418.5 3 c 128,-1,5
 387 -6 387 -6 358.5 -8 c 128,-1,6
 330 -10 330 -10 283 -10 c 0,7,8
 223 -10 223 -10 189.5 -6 c 128,-1,9
 156 -2 156 -2 122.5 13.5 c 128,-1,10
 89 29 89 29 74.5 63 c 128,-1,11
 60 97 60 97 60 153 c 2,12,-1
 60 321 l 2,13,14
 60 369 60 369 71.5 402 c 128,-1,15
 83 435 83 435 99.5 453 c 128,-1,16
 116 471 116 471 148 480.5 c 128,-1,17
 180 490 180 490 207.5 492 c 128,-1,18
 235 494 235 494 283 494 c 128,-1,19
 331 494 331 494 358.5 492 c 128,-1,20
 386 490 386 490 418 480.5 c 128,-1,21
 450 471 450 471 466.5 453 c 128,-1,22
 483 435 483 435 494.5 402 c 128,-1,23
 506 369 506 369 506 321 c 2,0,-1
414 140 m 2,24,-1
 414 336 l 2,25,26
 414 403 414 403 387 419 c 128,-1,27
 360 435 360 435 283 435 c 128,-1,28
 206 435 206 435 179 419 c 128,-1,29
 152 403 152 403 152 336 c 2,30,-1
 152 140 l 2,31,32
 152 108 152 108 159 89 c 128,-1,33
 166 70 166 70 185 61.5 c 128,-1,34
 204 53 204 53 224 51 c 128,-1,35
 244 49 244 49 283 49 c 128,-1,36
 322 49 322 49 342 51 c 128,-1,37
 362 53 362 53 381 61.5 c 128,-1,38
 400 70 400 70 407 89 c 128,-1,39
 414 108 414 108 414 140 c 2,24,-1
244 565 m 1,40,-1
 154 565 l 1,41,-1
 154 659 l 1,42,-1
 244 659 l 1,43,-1
 244 565 l 1,40,-1
414 565 m 1,44,-1
 324 565 l 1,45,-1
 324 659 l 1,46,-1
 414 659 l 1,47,-1
 414 565 l 1,44,-1
EndSplineSet
Substitution2: "'smcp' Lowercase to Small Capitals in Latin lookup 21 subtable" odieresis.smcp
Substitution2: "'c2sc' Capitals to Small Capitals in Latin lookup 20 subtable" odieresis.smcp
EndChar

StartChar: divide
Encoding: 247 247 176
Width: 500
Flags: MW
HStem: 48 21G 71 21G<192 308 192 192> 282 21G<60 440 60 60> 329 20G<60 440 440 440> 500 20G 535 20G<192 308 308 308>
LayerCount: 2
Fore
SplineSet
440 282 m 1,0,-1
 60 282 l 1,1,-1
 60 349 l 1,2,-1
 440 349 l 1,3,-1
 440 282 l 1,0,-1
308 447 m 1,4,-1
 192 447 l 1,5,-1
 192 555 l 1,6,-1
 308 555 l 1,7,-1
 308 447 l 1,4,-1
308 71 m 1,8,-1
 192 71 l 1,9,-1
 192 179 l 1,10,-1
 308 179 l 1,11,-1
 308 71 l 1,8,-1
EndSplineSet
EndChar

StartChar: oslash
Encoding: 248 248 177
Width: 568
Flags: MW
HStem: -10 59<264 327.5 264 350> 435 59<237.5 302.5>
LayerCount: 2
Fore
SplineSet
506 321 m 2,0,-1
 506 153 l 2,1,2
 506 108 506 108 495 77 c 128,-1,3
 484 46 484 46 467 29 c 128,-1,4
 450 12 450 12 418.5 3 c 128,-1,5
 387 -6 387 -6 358.5 -8 c 128,-1,6
 330 -10 330 -10 283 -10 c 0,7,8
 223 -10 223 -10 189.5 -6 c 128,-1,9
 156 -2 156 -2 122.5 13.5 c 128,-1,10
 89 29 89 29 74.5 63 c 128,-1,11
 60 97 60 97 60 153 c 2,12,-1
 60 321 l 2,13,14
 60 369 60 369 71.5 402 c 128,-1,15
 83 435 83 435 99.5 453 c 128,-1,16
 116 471 116 471 148 480.5 c 128,-1,17
 180 490 180 490 207.5 492 c 128,-1,18
 235 494 235 494 283 494 c 128,-1,19
 331 494 331 494 358.5 492 c 128,-1,20
 386 490 386 490 418 480.5 c 128,-1,21
 450 471 450 471 466.5 453 c 128,-1,22
 483 435 483 435 494.5 402 c 128,-1,23
 506 369 506 369 506 321 c 2,0,-1
373 426 m 1,24,25
 349 435 349 435 283 435 c 0,26,27
 206 435 206 435 179 419 c 128,-1,28
 152 403 152 403 152 336 c 2,29,-1
 152 140 l 2,30,31
 152 109 152 109 159 92 c 1,32,-1
 373 426 l 1,24,25
414 140 m 2,33,-1
 414 336 l 2,34,35
 414 366 414 366 407 389 c 1,36,-1
 194 57 l 1,37,38
 218 49 218 49 283 49 c 0,39,40
 322 49 322 49 342 51 c 128,-1,41
 362 53 362 53 381 61.5 c 128,-1,42
 400 70 400 70 407 89 c 128,-1,43
 414 108 414 108 414 140 c 2,33,-1
EndSplineSet
Substitution2: "'smcp' Lowercase to Small Capitals in Latin lookup 21 subtable" oslash.smcp
Substitution2: "'c2sc' Capitals to Small Capitals in Latin lookup 20 subtable" oslash.smcp
EndChar

StartChar: ugrave
Encoding: 249 249 178
Width: 573
Flags: MW
HStem: -10 21G<178 284.5> 0 21G<405 495 405 405> 464 20G<78 168 168 168 405 495 495 495> 553 21G<265 339 265 265> 660 20G<140 249 249 249>
LayerCount: 2
Fore
SplineSet
495 0 m 1,0,-1
 405 0 l 1,1,-1
 405 59 l 1,2,3
 391 -10 391 -10 246 -10 c 0,4,5
 150 -10 150 -10 114 24.5 c 128,-1,6
 78 59 78 59 78 129 c 2,7,-1
 78 484 l 1,8,-1
 168 484 l 1,9,-1
 168 134 l 2,10,11
 168 116 168 116 171 104 c 128,-1,12
 174 92 174 92 183.5 79.5 c 128,-1,13
 193 67 193 67 215.5 60.5 c 128,-1,14
 238 54 238 54 272 54 c 0,15,16
 347 54 347 54 376 68 c 128,-1,17
 405 82 405 82 405 119 c 2,18,-1
 405 484 l 1,19,-1
 495 484 l 1,20,-1
 495 0 l 1,0,-1
339 553 m 1,21,-1
 265 553 l 1,22,-1
 140 680 l 1,23,-1
 249 680 l 1,24,-1
 339 553 l 1,21,-1
EndSplineSet
Substitution2: "'smcp' Lowercase to Small Capitals in Latin lookup 21 subtable" ugrave.smcp
Substitution2: "'c2sc' Capitals to Small Capitals in Latin lookup 20 subtable" ugrave.smcp
EndChar

StartChar: uacute
Encoding: 250 250 179
Width: 573
Flags: MW
HStem: -10 21G<178 284.5> 0 21G<405 495 405 405> 464 20G<78 168 168 168 405 495 495 495> 553 21G<220 294 220 220> 660 20G<310 419 419 419>
LayerCount: 2
Fore
SplineSet
495 0 m 1,0,-1
 405 0 l 1,1,-1
 405 59 l 1,2,3
 391 -10 391 -10 246 -10 c 0,4,5
 150 -10 150 -10 114 24.5 c 128,-1,6
 78 59 78 59 78 129 c 2,7,-1
 78 484 l 1,8,-1
 168 484 l 1,9,-1
 168 134 l 2,10,11
 168 116 168 116 171 104 c 128,-1,12
 174 92 174 92 183.5 79.5 c 128,-1,13
 193 67 193 67 215.5 60.5 c 128,-1,14
 238 54 238 54 272 54 c 0,15,16
 347 54 347 54 376 68 c 128,-1,17
 405 82 405 82 405 119 c 2,18,-1
 405 484 l 1,19,-1
 495 484 l 1,20,-1
 495 0 l 1,0,-1
419 680 m 1,21,-1
 294 553 l 1,22,-1
 220 553 l 1,23,-1
 310 680 l 1,24,-1
 419 680 l 1,21,-1
EndSplineSet
Substitution2: "'smcp' Lowercase to Small Capitals in Latin lookup 21 subtable" uacute.smcp
Substitution2: "'c2sc' Capitals to Small Capitals in Latin lookup 20 subtable" uacute.smcp
EndChar

StartChar: ucircumflex
Encoding: 251 251 180
Width: 573
Flags: MW
HStem: -10 21G<178 284.5> 0 21G<405 495 405 405> 464 20G<78 168 168 168 405 495 495 495> 553 21G<160 160 160 218 343 343 343 401> 660 20G<228 335 335 335>
LayerCount: 2
Fore
SplineSet
495 0 m 1,0,-1
 405 0 l 1,1,-1
 405 59 l 1,2,3
 391 -10 391 -10 246 -10 c 0,4,5
 150 -10 150 -10 114 24.5 c 128,-1,6
 78 59 78 59 78 129 c 2,7,-1
 78 484 l 1,8,-1
 168 484 l 1,9,-1
 168 134 l 2,10,11
 168 116 168 116 171 104 c 128,-1,12
 174 92 174 92 183.5 79.5 c 128,-1,13
 193 67 193 67 215.5 60.5 c 128,-1,14
 238 54 238 54 272 54 c 0,15,16
 347 54 347 54 376 68 c 128,-1,17
 405 82 405 82 405 119 c 2,18,-1
 405 484 l 1,19,-1
 495 484 l 1,20,-1
 495 0 l 1,0,-1
160 553 m 1,21,-1
 228 680 l 1,22,-1
 335 680 l 1,23,-1
 401 553 l 1,24,-1
 343 553 l 1,25,-1
 281 640 l 1,26,-1
 218 553 l 1,27,-1
 160 553 l 1,21,-1
EndSplineSet
Substitution2: "'smcp' Lowercase to Small Capitals in Latin lookup 21 subtable" ucircumflex.smcp
Substitution2: "'c2sc' Capitals to Small Capitals in Latin lookup 20 subtable" ucircumflex.smcp
EndChar

StartChar: udieresis
Encoding: 252 252 181
Width: 573
Flags: MW
HStem: -10 21G<178 284.5> 0 21G<405 495 405 405> 464 20G<78 168 168 168 405 495 495 495> 565 21G<150 240 150 150 320 320 320 410> 639 20G<150 240 240 240 320 410 410 410>
LayerCount: 2
Fore
SplineSet
495 0 m 1,0,-1
 405 0 l 1,1,-1
 405 59 l 1,2,3
 391 -10 391 -10 246 -10 c 0,4,5
 150 -10 150 -10 114 24.5 c 128,-1,6
 78 59 78 59 78 129 c 2,7,-1
 78 484 l 1,8,-1
 168 484 l 1,9,-1
 168 134 l 2,10,11
 168 116 168 116 171 104 c 128,-1,12
 174 92 174 92 183.5 79.5 c 128,-1,13
 193 67 193 67 215.5 60.5 c 128,-1,14
 238 54 238 54 272 54 c 0,15,16
 347 54 347 54 376 68 c 128,-1,17
 405 82 405 82 405 119 c 2,18,-1
 405 484 l 1,19,-1
 495 484 l 1,20,-1
 495 0 l 1,0,-1
240 565 m 1,21,-1
 150 565 l 1,22,-1
 150 659 l 1,23,-1
 240 659 l 1,24,-1
 240 565 l 1,21,-1
410 565 m 1,25,-1
 320 565 l 1,26,-1
 320 659 l 1,27,-1
 410 659 l 1,28,-1
 410 565 l 1,25,-1
EndSplineSet
Substitution2: "'smcp' Lowercase to Small Capitals in Latin lookup 21 subtable" udieresis.smcp
Substitution2: "'c2sc' Capitals to Small Capitals in Latin lookup 20 subtable" udieresis.smcp
EndChar

StartChar: yacute
Encoding: 253 253 182
Width: 460
Flags: MW
HStem: -198 21G 464 20G<6 104 104 104 363 454 454 454> 553 21G<160 234 160 160> 660 20G<250 359 359 359>
LayerCount: 2
Fore
SplineSet
454 484 m 1,0,-1
 211 -208 l 1,1,-1
 117 -208 l 1,2,-1
 193 -7 l 1,3,-1
 6 484 l 1,4,-1
 104 484 l 1,5,-1
 239 89 l 1,6,-1
 241 89 l 1,7,-1
 363 484 l 1,8,-1
 454 484 l 1,0,-1
359 680 m 1,9,-1
 234 553 l 1,10,-1
 160 553 l 1,11,-1
 250 680 l 1,12,-1
 359 680 l 1,9,-1
EndSplineSet
Substitution2: "'smcp' Lowercase to Small Capitals in Latin lookup 21 subtable" yacute.smcp
Substitution2: "'c2sc' Capitals to Small Capitals in Latin lookup 20 subtable" yacute.smcp
EndChar

StartChar: thorn
Encoding: 254 254 183
Width: 579
Flags: MW
HStem: -186 21G -10 61<272 340.5 251.5 351> 474 20G<287.5 403.5> 673 20G
LayerCount: 2
Fore
SplineSet
427 147 m 2,0,-1
 427 325 l 2,1,2
 427 392 427 392 398 410.5 c 128,-1,3
 369 429 369 429 295 429 c 0,4,5
 220 429 220 429 191.5 410.5 c 128,-1,6
 163 392 163 392 163 325 c 2,7,-1
 163 147 l 2,8,9
 163 86 163 86 192.5 68.5 c 128,-1,10
 222 51 222 51 296 51 c 128,-1,11
 370 51 370 51 398.5 68.5 c 128,-1,12
 427 86 427 86 427 147 c 2,0,-1
78 700 m 1,13,-1
 168 700 l 1,14,-1
 168 432 l 1,15,16
 179 494 179 494 333 494 c 0,17,18
 430 494 430 494 474.5 453.5 c 128,-1,19
 519 413 519 413 519 357 c 2,20,-1
 519 158 l 2,21,22
 519 114 519 114 506 82 c 128,-1,23
 493 50 493 50 473.5 32.5 c 128,-1,24
 454 15 454 15 422 5 c 128,-1,25
 390 -5 390 -5 362 -7.5 c 128,-1,26
 334 -10 334 -10 294 -10 c 128,-1,27
 254 -10 254 -10 216 0 c 128,-1,28
 178 10 178 10 168 31 c 1,29,-1
 168 -208 l 1,30,-1
 78 -208 l 1,31,-1
 78 700 l 1,13,-1
EndSplineSet
Substitution2: "'smcp' Lowercase to Small Capitals in Latin lookup 21 subtable" thorn.smcp
Substitution2: "'c2sc' Capitals to Small Capitals in Latin lookup 20 subtable" thorn.smcp
EndChar

StartChar: ydieresis
Encoding: 255 255 184
Width: 460
Flags: MW
HStem: -198 21G 464 20G<6 104 104 104 363 454 454 454> 565 21G<90 180 90 90 260 260 260 350> 639 20G<90 180 180 180 260 350 350 350>
LayerCount: 2
Fore
SplineSet
454 484 m 1,0,-1
 211 -208 l 1,1,-1
 117 -208 l 1,2,-1
 193 -7 l 1,3,-1
 6 484 l 1,4,-1
 104 484 l 1,5,-1
 239 89 l 1,6,-1
 241 89 l 1,7,-1
 363 484 l 1,8,-1
 454 484 l 1,0,-1
180 565 m 1,9,-1
 90 565 l 1,10,-1
 90 659 l 1,11,-1
 180 659 l 1,12,-1
 180 565 l 1,9,-1
350 565 m 1,13,-1
 260 565 l 1,14,-1
 260 659 l 1,15,-1
 350 659 l 1,16,-1
 350 565 l 1,13,-1
EndSplineSet
Substitution2: "'smcp' Lowercase to Small Capitals in Latin lookup 21 subtable" ydieresis.smcp
Substitution2: "'c2sc' Capitals to Small Capitals in Latin lookup 20 subtable" ydieresis.smcp
EndChar

StartChar: Amacron
Encoding: 256 256 185
Width: 652
Flags: MW
HStem: 0 21G<15 111 15 15 536 637 536 536> 629 20G<273 385 385 385> 739 59<215 433 215 433>
LayerCount: 2
Fore
SplineSet
637 0 m 1,0,-1
 536 0 l 1,1,-1
 462 197 l 1,2,-1
 184 197 l 1,3,-1
 111 0 l 1,4,-1
 15 0 l 1,5,-1
 273 649 l 1,6,-1
 385 649 l 1,7,-1
 637 0 l 1,0,-1
438 264 m 1,8,-1
 328 557 l 1,9,-1
 319 557 l 1,10,-1
 209 264 l 1,11,-1
 438 264 l 1,8,-1
433 739 m 1,12,-1
 215 739 l 1,13,-1
 215 798 l 1,14,-1
 433 798 l 1,15,-1
 433 739 l 1,12,-1
EndSplineSet
EndChar

StartChar: amacron
Encoding: 257 257 186
Width: 538
Flags: MW
HStem: -10 59<224 242 242 263> 0 21G<373 460 373 373> 474 20G<243.5 348.5> 590 59<160 378 160 378>
LayerCount: 2
Fore
SplineSet
460 0 m 1,0,-1
 373 0 l 1,1,-1
 373 46 l 1,2,3
 362 -10 362 -10 227 -10 c 0,4,5
 127 -10 127 -10 88.5 20.5 c 128,-1,6
 50 51 50 51 50 144 c 0,7,8
 50 225 50 225 86 255.5 c 128,-1,9
 122 286 122 286 225 286 c 2,10,-1
 370 286 l 1,11,-1
 370 363 l 2,12,13
 370 403 370 403 345.5 417 c 128,-1,14
 321 431 321 431 253 431 c 0,15,16
 179 431 179 431 87 419 c 1,17,-1
 87 485 l 1,18,19
 186 494 186 494 266 494 c 0,20,21
 388 494 388 494 424 464.5 c 128,-1,22
 460 435 460 435 460 342 c 2,23,-1
 460 0 l 1,0,-1
370 98 m 2,24,-1
 370 230 l 1,25,-1
 231 230 l 2,26,27
 169 230 169 230 153.5 214 c 128,-1,28
 138 198 138 198 138 141 c 0,29,30
 138 90 138 90 154.5 69.5 c 128,-1,31
 171 49 171 49 224 49 c 2,32,-1
 242 49 l 2,33,34
 268 49 268 49 285.5 50 c 128,-1,35
 303 51 303 51 325 55.5 c 128,-1,36
 347 60 347 60 358.5 70.5 c 128,-1,37
 370 81 370 81 370 98 c 2,24,-1
378 590 m 1,38,-1
 160 590 l 1,39,-1
 160 649 l 1,40,-1
 378 649 l 1,41,-1
 378 590 l 1,38,-1
EndSplineSet
Substitution2: "'smcp' Lowercase to Small Capitals in Latin lookup 21 subtable" amacron.smcp
Substitution2: "'c2sc' Capitals to Small Capitals in Latin lookup 20 subtable" amacron.smcp
EndChar

StartChar: Abreve
Encoding: 258 258 187
Width: 652
Flags: MW
HStem: 0 21G<15 111 15 15 536 637 536 536> 629 20G<273 385 385 385> 703 59<299.5 345 299.5 359.5> 810 20G<205 241 241 241 404 441 441 441>
LayerCount: 2
Fore
SplineSet
637 0 m 1,0,-1
 536 0 l 1,1,-1
 462 197 l 1,2,-1
 184 197 l 1,3,-1
 111 0 l 1,4,-1
 15 0 l 1,5,-1
 273 649 l 1,6,-1
 385 649 l 1,7,-1
 637 0 l 1,0,-1
438 264 m 1,8,-1
 328 557 l 1,9,-1
 319 557 l 1,10,-1
 209 264 l 1,11,-1
 438 264 l 1,8,-1
441 830 m 1,12,13
 437 772 437 772 406.5 737.5 c 128,-1,14
 376 703 376 703 323 703 c 0,15,16
 269 703 269 703 238.5 737.5 c 128,-1,17
 208 772 208 772 205 830 c 1,18,-1
 241 830 l 1,19,20
 254 793 254 793 271.5 777.5 c 128,-1,21
 289 762 289 762 323 762 c 0,22,23
 356 762 356 762 374.5 778 c 128,-1,24
 393 794 393 794 404 830 c 1,25,-1
 441 830 l 1,12,13
EndSplineSet
EndChar

StartChar: abreve
Encoding: 259 259 188
Width: 538
Flags: MW
HStem: -10 59<224 242 242 263> 0 21G<373 460 373 373> 474 20G<243.5 348.5> 553 59<244 286 244 302> 660 20G<147 201 201 201 329 383 383 383>
LayerCount: 2
Fore
SplineSet
460 0 m 1,0,-1
 373 0 l 1,1,-1
 373 46 l 1,2,3
 362 -10 362 -10 227 -10 c 0,4,5
 127 -10 127 -10 88.5 20.5 c 128,-1,6
 50 51 50 51 50 144 c 0,7,8
 50 225 50 225 86 255.5 c 128,-1,9
 122 286 122 286 225 286 c 2,10,-1
 370 286 l 1,11,-1
 370 363 l 2,12,13
 370 403 370 403 345.5 417 c 128,-1,14
 321 431 321 431 253 431 c 0,15,16
 179 431 179 431 87 419 c 1,17,-1
 87 485 l 1,18,19
 186 494 186 494 266 494 c 0,20,21
 388 494 388 494 424 464.5 c 128,-1,22
 460 435 460 435 460 342 c 2,23,-1
 460 0 l 1,0,-1
370 98 m 2,24,-1
 370 230 l 1,25,-1
 231 230 l 2,26,27
 169 230 169 230 153.5 214 c 128,-1,28
 138 198 138 198 138 141 c 0,29,30
 138 90 138 90 154.5 69.5 c 128,-1,31
 171 49 171 49 224 49 c 2,32,-1
 242 49 l 2,33,34
 268 49 268 49 285.5 50 c 128,-1,35
 303 51 303 51 325 55.5 c 128,-1,36
 347 60 347 60 358.5 70.5 c 128,-1,37
 370 81 370 81 370 98 c 2,24,-1
265 553 m 128,-1,39
 211 553 211 553 180 587.5 c 128,-1,40
 149 622 149 622 147 680 c 1,41,-1
 201 680 l 1,42,43
 207 612 207 612 265 612 c 128,-1,44
 323 612 323 612 329 680 c 1,45,-1
 383 680 l 1,46,47
 381 622 381 622 350 587.5 c 128,-1,38
 319 553 319 553 265 553 c 128,-1,39
EndSplineSet
Substitution2: "'smcp' Lowercase to Small Capitals in Latin lookup 21 subtable" abreve.smcp
Substitution2: "'c2sc' Capitals to Small Capitals in Latin lookup 20 subtable" abreve.smcp
EndChar

StartChar: Aogonek
Encoding: 260 260 189
Width: 652
Flags: MW
HStem: -186 21G<582.5 621.5> 0 21G<15 111 15 15 536 536 637 637> 629 20G<273 385 385 385>
LayerCount: 2
Fore
SplineSet
614 -186 m 0,0,1
 564 -186 564 -186 539.5 -167.5 c 128,-1,2
 515 -149 515 -149 515 -106 c 0,3,4
 515 -65 515 -65 536 0 c 1,5,-1
 462 197 l 1,6,-1
 184 197 l 1,7,-1
 111 0 l 1,8,-1
 15 0 l 1,9,-1
 273 649 l 1,10,-1
 385 649 l 1,11,-1
 637 0 l 1,12,13
 594 -52 594 -52 594 -97 c 0,14,15
 594 -130 594 -130 633 -130 c 0,16,17
 641 -130 641 -130 664 -123 c 1,18,-1
 664 -176 l 1,19,20
 643 -186 643 -186 614 -186 c 0,0,1
438 264 m 1,21,-1
 328 557 l 1,22,-1
 319 557 l 1,23,-1
 209 264 l 1,24,-1
 438 264 l 1,21,-1
EndSplineSet
EndChar

StartChar: aogonek
Encoding: 261 261 190
Width: 538
Flags: MW
HStem: -186 21G<404.5 443.5> -10 57<224 242 242 263> 474 20G<243.5 348.5>
LayerCount: 2
Fore
SplineSet
460 342 m 2,0,-1
 460 0 l 1,1,2
 416 -48 416 -48 416 -97 c 0,3,4
 416 -130 416 -130 455 -130 c 0,5,6
 463 -130 463 -130 486 -123 c 1,7,-1
 486 -176 l 1,8,9
 465 -186 465 -186 436 -186 c 0,10,11
 386 -186 386 -186 361.5 -167.5 c 128,-1,12
 337 -149 337 -149 337 -106 c 0,13,14
 337 -56 337 -56 373 0 c 1,15,-1
 373 46 l 1,16,17
 362 -10 362 -10 227 -10 c 0,18,19
 127 -10 127 -10 88.5 20.5 c 128,-1,20
 50 51 50 51 50 144 c 0,21,22
 50 225 50 225 86 255.5 c 128,-1,23
 122 286 122 286 225 286 c 2,24,-1
 370 286 l 1,25,-1
 370 363 l 2,26,27
 370 403 370 403 345.5 417 c 128,-1,28
 321 431 321 431 253 431 c 0,29,30
 179 431 179 431 87 419 c 1,31,-1
 87 485 l 1,32,33
 186 494 186 494 266 494 c 0,34,35
 388 494 388 494 424 464.5 c 128,-1,36
 460 435 460 435 460 342 c 2,0,-1
370 96 m 2,37,-1
 370 230 l 1,38,-1
 231 230 l 2,39,40
 169 230 169 230 153.5 214 c 128,-1,41
 138 198 138 198 138 141 c 0,42,43
 138 89 138 89 154.5 68 c 128,-1,44
 171 47 171 47 224 47 c 2,45,-1
 242 47 l 2,46,47
 268 47 268 47 285.5 48 c 128,-1,48
 303 49 303 49 325 53.5 c 128,-1,49
 347 58 347 58 358.5 68.5 c 128,-1,50
 370 79 370 79 370 96 c 2,37,-1
EndSplineSet
Substitution2: "'smcp' Lowercase to Small Capitals in Latin lookup 21 subtable" aogonek.smcp
Substitution2: "'c2sc' Capitals to Small Capitals in Latin lookup 20 subtable" aogonek.smcp
EndChar

StartChar: Cacute
Encoding: 262 262 191
Width: 564
Flags: MW
HStem: -10 21G<277.5 379.5> 683 20G<265 339 265 265> 810 20G<355 464 464 464>
LayerCount: 2
Fore
SplineSet
519 9 m 1,0,1
 432 -10 432 -10 337 -10 c 0,2,3
 64 -10 64 -10 64 166 c 2,4,-1
 64 474 l 2,5,6
 64 660 64 660 337 660 c 0,7,8
 428 660 428 660 515 641 c 1,9,-1
 515 569 l 1,10,11
 419 593 419 593 339 593 c 0,12,13
 301 593 301 593 272 588.5 c 128,-1,14
 243 584 243 584 215 572.5 c 128,-1,15
 187 561 187 561 172 536.5 c 128,-1,16
 157 512 157 512 157 475 c 2,17,-1
 157 171 l 2,18,19
 157 59 157 59 343 59 c 0,20,21
 423 59 423 59 519 83 c 1,22,-1
 519 9 l 1,0,1
464 830 m 1,23,-1
 339 703 l 1,24,-1
 265 703 l 1,25,-1
 355 830 l 1,26,-1
 464 830 l 1,23,-1
EndSplineSet
EndChar

StartChar: cacute
Encoding: 263 263 192
Width: 464
Flags: MW
HStem: -10 21G<214.5 293> 433 61<222 299> 553 21G<209 283 209 209> 660 20G<299 408 408 408>
LayerCount: 2
Fore
SplineSet
428 4 m 1,0,1
 362 -10 362 -10 273 -10 c 0,2,3
 229 -10 229 -10 204.5 -8.5 c 128,-1,4
 180 -7 180 -7 148.5 1.5 c 128,-1,5
 117 10 117 10 100.5 26 c 128,-1,6
 84 42 84 42 72 72.5 c 128,-1,7
 60 103 60 103 60 148 c 2,8,-1
 60 326 l 2,9,10
 60 366 60 366 67.5 395 c 128,-1,11
 75 424 75 424 91 442 c 128,-1,12
 107 460 107 460 124 471 c 128,-1,13
 141 482 141 482 170.5 486.5 c 128,-1,14
 200 491 200 491 222.5 492.5 c 128,-1,15
 245 494 245 494 283 494 c 0,16,17
 352 494 352 494 421 479 c 1,18,-1
 421 413 l 1,19,20
 343 433 343 433 272 433 c 0,21,22
 197 433 197 433 174.5 415 c 128,-1,23
 152 397 152 397 152 339 c 2,24,-1
 152 141 l 2,25,26
 152 88 152 88 177.5 70.5 c 128,-1,27
 203 53 203 53 282 53 c 0,28,29
 353 53 353 53 428 72 c 1,30,-1
 428 4 l 1,0,1
408 680 m 1,31,-1
 283 553 l 1,32,-1
 209 553 l 1,33,-1
 299 680 l 1,34,-1
 408 680 l 1,31,-1
EndSplineSet
Substitution2: "'smcp' Lowercase to Small Capitals in Latin lookup 21 subtable" cacute.smcp
Substitution2: "'c2sc' Capitals to Small Capitals in Latin lookup 20 subtable" cacute.smcp
EndChar

StartChar: Ccircumflex
Encoding: 264 264 193
Width: 564
Flags: MW
HStem: -10 21G<277.5 379.5> 683 20G<211 211 211 269 394 394 394 452> 810 20G<279 386 386 386>
LayerCount: 2
Fore
SplineSet
519 9 m 1,0,1
 432 -10 432 -10 337 -10 c 0,2,3
 64 -10 64 -10 64 166 c 2,4,-1
 64 474 l 2,5,6
 64 660 64 660 337 660 c 0,7,8
 428 660 428 660 515 641 c 1,9,-1
 515 569 l 1,10,11
 419 593 419 593 339 593 c 0,12,13
 301 593 301 593 272 588.5 c 128,-1,14
 243 584 243 584 215 572.5 c 128,-1,15
 187 561 187 561 172 536.5 c 128,-1,16
 157 512 157 512 157 475 c 2,17,-1
 157 171 l 2,18,19
 157 59 157 59 343 59 c 0,20,21
 423 59 423 59 519 83 c 1,22,-1
 519 9 l 1,0,1
211 703 m 1,23,-1
 279 830 l 1,24,-1
 386 830 l 1,25,-1
 452 703 l 1,26,-1
 394 703 l 1,27,-1
 332 790 l 1,28,-1
 269 703 l 1,29,-1
 211 703 l 1,23,-1
EndSplineSet
EndChar

StartChar: ccircumflex
Encoding: 265 265 194
Width: 464
Flags: MW
HStem: -10 21G<214.5 293> 433 61<222 299> 553 21G<152 152 152 210 335 335 335 393> 660 20G<220 327 327 327>
LayerCount: 2
Fore
SplineSet
428 4 m 1,0,1
 362 -10 362 -10 273 -10 c 0,2,3
 229 -10 229 -10 204.5 -8.5 c 128,-1,4
 180 -7 180 -7 148.5 1.5 c 128,-1,5
 117 10 117 10 100.5 26 c 128,-1,6
 84 42 84 42 72 72.5 c 128,-1,7
 60 103 60 103 60 148 c 2,8,-1
 60 326 l 2,9,10
 60 366 60 366 67.5 395 c 128,-1,11
 75 424 75 424 91 442 c 128,-1,12
 107 460 107 460 124 471 c 128,-1,13
 141 482 141 482 170.5 486.5 c 128,-1,14
 200 491 200 491 222.5 492.5 c 128,-1,15
 245 494 245 494 283 494 c 0,16,17
 352 494 352 494 421 479 c 1,18,-1
 421 413 l 1,19,20
 343 433 343 433 272 433 c 0,21,22
 197 433 197 433 174.5 415 c 128,-1,23
 152 397 152 397 152 339 c 2,24,-1
 152 141 l 2,25,26
 152 88 152 88 177.5 70.5 c 128,-1,27
 203 53 203 53 282 53 c 0,28,29
 353 53 353 53 428 72 c 1,30,-1
 428 4 l 1,0,1
152 553 m 1,31,-1
 220 680 l 1,32,-1
 327 680 l 1,33,-1
 393 553 l 1,34,-1
 335 553 l 1,35,-1
 273 640 l 1,36,-1
 210 553 l 1,37,-1
 152 553 l 1,31,-1
EndSplineSet
Substitution2: "'smcp' Lowercase to Small Capitals in Latin lookup 21 subtable" ccircumflex.smcp
Substitution2: "'c2sc' Capitals to Small Capitals in Latin lookup 20 subtable" ccircumflex.smcp
EndChar

StartChar: Cdotaccent
Encoding: 266 266 195
Width: 564
Flags: MW
HStem: -10 21G<277.5 379.5> 810 20G<290 380 380 380>
LayerCount: 2
Fore
SplineSet
519 9 m 1,0,1
 432 -10 432 -10 337 -10 c 0,2,3
 64 -10 64 -10 64 166 c 2,4,-1
 64 474 l 2,5,6
 64 660 64 660 337 660 c 0,7,8
 428 660 428 660 515 641 c 1,9,-1
 515 569 l 1,10,11
 419 593 419 593 339 593 c 0,12,13
 301 593 301 593 272 588.5 c 128,-1,14
 243 584 243 584 215 572.5 c 128,-1,15
 187 561 187 561 172 536.5 c 128,-1,16
 157 512 157 512 157 475 c 2,17,-1
 157 171 l 2,18,19
 157 59 157 59 343 59 c 0,20,21
 423 59 423 59 519 83 c 1,22,-1
 519 9 l 1,0,1
380 732 m 1,23,-1
 290 732 l 1,24,-1
 290 830 l 1,25,-1
 380 830 l 1,26,-1
 380 732 l 1,23,-1
EndSplineSet
EndChar

StartChar: cdotaccent
Encoding: 267 267 196
Width: 464
Flags: MW
HStem: -10 21G<214.5 293> 433 61<222 299> 568 21G<226 316 226 226> 646 20G<226 316 316 316>
LayerCount: 2
Fore
SplineSet
428 4 m 1,0,1
 362 -10 362 -10 273 -10 c 0,2,3
 229 -10 229 -10 204.5 -8.5 c 128,-1,4
 180 -7 180 -7 148.5 1.5 c 128,-1,5
 117 10 117 10 100.5 26 c 128,-1,6
 84 42 84 42 72 72.5 c 128,-1,7
 60 103 60 103 60 148 c 2,8,-1
 60 326 l 2,9,10
 60 366 60 366 67.5 395 c 128,-1,11
 75 424 75 424 91 442 c 128,-1,12
 107 460 107 460 124 471 c 128,-1,13
 141 482 141 482 170.5 486.5 c 128,-1,14
 200 491 200 491 222.5 492.5 c 128,-1,15
 245 494 245 494 283 494 c 0,16,17
 352 494 352 494 421 479 c 1,18,-1
 421 413 l 1,19,20
 343 433 343 433 272 433 c 0,21,22
 197 433 197 433 174.5 415 c 128,-1,23
 152 397 152 397 152 339 c 2,24,-1
 152 141 l 2,25,26
 152 88 152 88 177.5 70.5 c 128,-1,27
 203 53 203 53 282 53 c 0,28,29
 353 53 353 53 428 72 c 1,30,-1
 428 4 l 1,0,1
316 568 m 1,31,-1
 226 568 l 1,32,-1
 226 666 l 1,33,-1
 316 666 l 1,34,-1
 316 568 l 1,31,-1
EndSplineSet
Substitution2: "'smcp' Lowercase to Small Capitals in Latin lookup 21 subtable" cdotaccent.smcp
Substitution2: "'c2sc' Capitals to Small Capitals in Latin lookup 20 subtable" cdotaccent.smcp
EndChar

StartChar: Ccaron
Encoding: 268 268 197
Width: 564
Flags: MW
HStem: -10 21G<277.5 379.5> 683 20G<251 251 251 358> 810 20G<183 241 241 241 366 424 424 424>
LayerCount: 2
Fore
SplineSet
519 9 m 1,0,1
 432 -10 432 -10 337 -10 c 0,2,3
 64 -10 64 -10 64 166 c 2,4,-1
 64 474 l 2,5,6
 64 660 64 660 337 660 c 0,7,8
 428 660 428 660 515 641 c 1,9,-1
 515 569 l 1,10,11
 419 593 419 593 339 593 c 0,12,13
 301 593 301 593 272 588.5 c 128,-1,14
 243 584 243 584 215 572.5 c 128,-1,15
 187 561 187 561 172 536.5 c 128,-1,16
 157 512 157 512 157 475 c 2,17,-1
 157 171 l 2,18,19
 157 59 157 59 343 59 c 0,20,21
 423 59 423 59 519 83 c 1,22,-1
 519 9 l 1,0,1
251 703 m 1,23,-1
 183 830 l 1,24,-1
 241 830 l 1,25,-1
 304 743 l 1,26,-1
 366 830 l 1,27,-1
 424 830 l 1,28,-1
 358 703 l 1,29,-1
 251 703 l 1,23,-1
EndSplineSet
EndChar

StartChar: ccaron
Encoding: 269 269 198
Width: 464
Flags: MW
HStem: -10 21G<214.5 293> 433 61<222 299> 553 21G<213 213 213 320> 660 20G<145 203 203 203 328 386 386 386>
LayerCount: 2
Fore
SplineSet
428 4 m 1,0,1
 362 -10 362 -10 273 -10 c 0,2,3
 229 -10 229 -10 204.5 -8.5 c 128,-1,4
 180 -7 180 -7 148.5 1.5 c 128,-1,5
 117 10 117 10 100.5 26 c 128,-1,6
 84 42 84 42 72 72.5 c 128,-1,7
 60 103 60 103 60 148 c 2,8,-1
 60 326 l 2,9,10
 60 366 60 366 67.5 395 c 128,-1,11
 75 424 75 424 91 442 c 128,-1,12
 107 460 107 460 124 471 c 128,-1,13
 141 482 141 482 170.5 486.5 c 128,-1,14
 200 491 200 491 222.5 492.5 c 128,-1,15
 245 494 245 494 283 494 c 0,16,17
 352 494 352 494 421 479 c 1,18,-1
 421 413 l 1,19,20
 343 433 343 433 272 433 c 0,21,22
 197 433 197 433 174.5 415 c 128,-1,23
 152 397 152 397 152 339 c 2,24,-1
 152 141 l 2,25,26
 152 88 152 88 177.5 70.5 c 128,-1,27
 203 53 203 53 282 53 c 0,28,29
 353 53 353 53 428 72 c 1,30,-1
 428 4 l 1,0,1
213 553 m 1,31,-1
 145 680 l 1,32,-1
 203 680 l 1,33,-1
 266 593 l 1,34,-1
 328 680 l 1,35,-1
 386 680 l 1,36,-1
 320 553 l 1,37,-1
 213 553 l 1,31,-1
EndSplineSet
Substitution2: "'smcp' Lowercase to Small Capitals in Latin lookup 21 subtable" ccaron.smcp
Substitution2: "'c2sc' Capitals to Small Capitals in Latin lookup 20 subtable" ccaron.smcp
EndChar

StartChar: dcaron
Encoding: 271 271 199
Width: 605
Flags: MW
HStem: -10 62<226 304.5> 0 21G<413 501 413 413> 474 20G<184.5 287> 673 20G<411 501 501 501>
LayerCount: 2
Fore
SplineSet
501 0 m 1,0,-1
 413 0 l 1,1,-1
 413 57 l 2,2,3
 413 31 413 31 369.5 10.5 c 128,-1,4
 326 -10 326 -10 251 -10 c 0,5,6
 146 -10 146 -10 103 23 c 128,-1,7
 60 56 60 56 60 144 c 2,8,-1
 60 357 l 2,9,10
 60 430 60 430 105 462 c 128,-1,11
 150 494 150 494 256 494 c 0,12,13
 313 494 313 494 361.5 479 c 128,-1,14
 410 464 410 464 411 432 c 1,15,-1
 413 432 l 1,16,17
 411 514 411 514 411 555 c 2,18,-1
 411 693 l 1,19,-1
 501 693 l 1,20,-1
 501 0 l 1,0,-1
411 127 m 2,21,-1
 411 366 l 2,22,23
 411 431 411 431 278 431 c 0,24,25
 198 431 198 431 173.5 419 c 128,-1,26
 149 407 149 407 149 366 c 2,27,-1
 149 127 l 2,28,29
 149 86 149 86 176.5 69 c 128,-1,30
 204 52 204 52 270 52 c 0,31,32
 344 52 344 52 377.5 69 c 128,-1,33
 411 86 411 86 411 127 c 2,21,-1
703 679 m 1,34,-1
 620 529 l 1,35,-1
 563 529 l 1,36,-1
 609 679 l 1,37,-1
 703 679 l 1,34,-1
EndSplineSet
Substitution2: "'smcp' Lowercase to Small Capitals in Latin lookup 21 subtable" dcaron.smcp
Substitution2: "'c2sc' Capitals to Small Capitals in Latin lookup 20 subtable" dcaron.smcp
EndChar

StartChar: Dcroat
Encoding: 272 272 200
Width: 679
Flags: MW
HStem: 0 21G<84 343 84 84> 629 20G<84 342 342 398.5>
LayerCount: 2
Fore
SplineSet
84 301 m 1,0,-1
 20 301 l 1,1,-1
 20 369 l 1,2,-1
 84 369 l 1,3,-1
 84 649 l 1,4,-1
 342 649 l 2,5,6
 615 649 615 649 615 463 c 2,7,-1
 615 176 l 2,8,9
 615 0 615 0 343 0 c 2,10,-1
 84 0 l 1,11,-1
 84 301 l 1,0,-1
287 301 m 1,12,-1
 181 301 l 1,13,-1
 181 66 l 1,14,-1
 336 66 l 2,15,16
 522 66 522 66 522 178 c 2,17,-1
 522 464 l 2,18,19
 522 501 522 501 507 525.5 c 128,-1,20
 492 550 492 550 464.5 561.5 c 128,-1,21
 437 573 437 573 408 577.5 c 128,-1,22
 379 582 379 582 341 582 c 2,23,-1
 181 582 l 1,24,-1
 181 369 l 1,25,-1
 287 369 l 1,26,-1
 287 301 l 1,12,-1
EndSplineSet
EndChar

StartChar: dcroat
Encoding: 273 273 201
Width: 571
Flags: MW
HStem: -10 62<226 303> 0 21G<413 501 413 413> 474 20G<184.5 287> 673 20G
LayerCount: 2
Fore
SplineSet
501 0 m 1,0,-1
 413 0 l 1,1,-1
 413 54 l 1,2,3
 411 29 411 29 367.5 9.5 c 128,-1,4
 324 -10 324 -10 251 -10 c 0,5,6
 146 -10 146 -10 103 23 c 128,-1,7
 60 56 60 56 60 144 c 2,8,-1
 60 357 l 2,9,10
 60 430 60 430 105 462 c 128,-1,11
 150 494 150 494 256 494 c 0,12,13
 313 494 313 494 361.5 479 c 128,-1,14
 410 464 410 464 411 432 c 1,15,-1
 413 432 l 1,16,17
 411 512 411 512 411 553 c 1,18,-1
 307 553 l 1,19,-1
 307 605 l 1,20,-1
 411 605 l 1,21,-1
 411 700 l 1,22,-1
 501 700 l 1,23,-1
 501 605 l 1,24,-1
 566 605 l 1,25,-1
 566 553 l 1,26,-1
 501 553 l 1,27,-1
 501 0 l 1,0,-1
411 127 m 2,28,-1
 411 366 l 2,29,30
 411 431 411 431 278 431 c 0,31,32
 198 431 198 431 173.5 419 c 128,-1,33
 149 407 149 407 149 366 c 2,34,-1
 149 127 l 2,35,36
 149 86 149 86 176.5 69 c 128,-1,37
 204 52 204 52 270 52 c 0,38,39
 344 52 344 52 377.5 69 c 128,-1,40
 411 86 411 86 411 127 c 2,28,-1
EndSplineSet
Substitution2: "'smcp' Lowercase to Small Capitals in Latin lookup 21 subtable" dcroat.smcp
Substitution2: "'c2sc' Capitals to Small Capitals in Latin lookup 20 subtable" dcroat.smcp
EndChar

StartChar: Emacron
Encoding: 274 274 202
Width: 580
Flags: MW
HStem: 0 21G<84 530 84 84> 629 20G<84 520 520 520> 739 59<193 411 193 411>
LayerCount: 2
Fore
SplineSet
530 0 m 1,0,-1
 84 0 l 1,1,-1
 84 649 l 1,2,-1
 520 649 l 1,3,-1
 520 581 l 1,4,-1
 181 581 l 1,5,-1
 181 369 l 1,6,-1
 487 369 l 1,7,-1
 487 301 l 1,8,-1
 181 301 l 1,9,-1
 181 68 l 1,10,-1
 530 68 l 1,11,-1
 530 0 l 1,0,-1
411 739 m 1,12,-1
 193 739 l 1,13,-1
 193 798 l 1,14,-1
 411 798 l 1,15,-1
 411 739 l 1,12,-1
EndSplineSet
EndChar

StartChar: emacron
Encoding: 275 275 203
Width: 535
Flags: MW
HStem: -10 21G<216.5 318.5> 222 59<151 386 151 476 151 386> 434 60<232.5 309.5> 627 20G<154 395 395 395>
LayerCount: 2
Fore
SplineSet
476 222 m 1,0,-1
 151 222 l 1,1,-1
 151 149 l 2,2,3
 151 98 151 98 187 76.5 c 128,-1,4
 223 55 223 55 294 55 c 0,5,6
 363 55 363 55 457 79 c 1,7,-1
 457 10 l 1,8,9
 367 -10 367 -10 282 -10 c 0,10,11
 60 -10 60 -10 60 138 c 2,12,-1
 60 329 l 2,13,14
 60 418 60 418 111 456 c 128,-1,15
 162 494 162 494 274 494 c 0,16,17
 379 494 379 494 427.5 457.5 c 128,-1,18
 476 421 476 421 476 329 c 2,19,-1
 476 222 l 1,0,-1
386 281 m 1,20,-1
 386 357 l 2,21,22
 386 401 386 401 359 417.5 c 128,-1,23
 332 434 332 434 269 434 c 0,24,25
 209 434 209 434 180 418 c 128,-1,26
 151 402 151 402 151 357 c 2,27,-1
 151 281 l 1,28,-1
 386 281 l 1,20,-1
395 584 m 1,29,-1
 154 584 l 1,30,-1
 154 647 l 1,31,-1
 395 647 l 1,32,-1
 395 584 l 1,29,-1
EndSplineSet
Substitution2: "'smcp' Lowercase to Small Capitals in Latin lookup 21 subtable" emacron.smcp
Substitution2: "'c2sc' Capitals to Small Capitals in Latin lookup 20 subtable" emacron.smcp
EndChar

StartChar: Ebreve
Encoding: 276 276 204
Width: 580
Flags: MW
HStem: 0 21G<84 530 84 84> 629 20G<84 520 520 520> 703 59<281.5 327 281.5 341.5> 810 20G<187 223 223 223 386 423 423 423>
LayerCount: 2
Fore
SplineSet
530 0 m 1,0,-1
 84 0 l 1,1,-1
 84 649 l 1,2,-1
 520 649 l 1,3,-1
 520 581 l 1,4,-1
 181 581 l 1,5,-1
 181 369 l 1,6,-1
 487 369 l 1,7,-1
 487 301 l 1,8,-1
 181 301 l 1,9,-1
 181 68 l 1,10,-1
 530 68 l 1,11,-1
 530 0 l 1,0,-1
423 830 m 1,12,13
 419 772 419 772 388.5 737.5 c 128,-1,14
 358 703 358 703 305 703 c 0,15,16
 251 703 251 703 220.5 737.5 c 128,-1,17
 190 772 190 772 187 830 c 1,18,-1
 223 830 l 1,19,20
 236 793 236 793 253.5 777.5 c 128,-1,21
 271 762 271 762 305 762 c 0,22,23
 338 762 338 762 356.5 778 c 128,-1,24
 375 794 375 794 386 830 c 1,25,-1
 423 830 l 1,12,13
EndSplineSet
EndChar

StartChar: ebreve
Encoding: 277 277 205
Width: 535
Flags: MW
HStem: -10 21G<216.5 318.5> 222 59<151 386 151 476 151 386> 434 60<232.5 309.5> 553 59<257 299 257 315> 660 20G<160 214 214 214 342 396 396 396>
LayerCount: 2
Fore
SplineSet
476 222 m 1,0,-1
 151 222 l 1,1,-1
 151 149 l 2,2,3
 151 98 151 98 187 76.5 c 128,-1,4
 223 55 223 55 294 55 c 0,5,6
 363 55 363 55 457 79 c 1,7,-1
 457 10 l 1,8,9
 367 -10 367 -10 282 -10 c 0,10,11
 60 -10 60 -10 60 138 c 2,12,-1
 60 329 l 2,13,14
 60 418 60 418 111 456 c 128,-1,15
 162 494 162 494 274 494 c 0,16,17
 379 494 379 494 427.5 457.5 c 128,-1,18
 476 421 476 421 476 329 c 2,19,-1
 476 222 l 1,0,-1
386 281 m 1,20,-1
 386 357 l 2,21,22
 386 401 386 401 359 417.5 c 128,-1,23
 332 434 332 434 269 434 c 0,24,25
 209 434 209 434 180 418 c 128,-1,26
 151 402 151 402 151 357 c 2,27,-1
 151 281 l 1,28,-1
 386 281 l 1,20,-1
278 553 m 128,-1,30
 224 553 224 553 193 587.5 c 128,-1,31
 162 622 162 622 160 680 c 1,32,-1
 214 680 l 1,33,34
 220 612 220 612 278 612 c 128,-1,35
 336 612 336 612 342 680 c 1,36,-1
 396 680 l 1,37,38
 394 622 394 622 363 587.5 c 128,-1,29
 332 553 332 553 278 553 c 128,-1,30
EndSplineSet
Substitution2: "'smcp' Lowercase to Small Capitals in Latin lookup 21 subtable" ebreve.smcp
Substitution2: "'c2sc' Capitals to Small Capitals in Latin lookup 20 subtable" ebreve.smcp
EndChar

StartChar: Edotaccent
Encoding: 278 278 206
Width: 580
Flags: MW
HStem: 0 21G<84 530 84 84> 629 20G<84 520 520 520> 810 20G<256 346 346 346>
LayerCount: 2
Fore
SplineSet
530 0 m 1,0,-1
 84 0 l 1,1,-1
 84 649 l 1,2,-1
 520 649 l 1,3,-1
 520 581 l 1,4,-1
 181 581 l 1,5,-1
 181 369 l 1,6,-1
 487 369 l 1,7,-1
 487 301 l 1,8,-1
 181 301 l 1,9,-1
 181 68 l 1,10,-1
 530 68 l 1,11,-1
 530 0 l 1,0,-1
346 732 m 1,12,-1
 256 732 l 1,13,-1
 256 830 l 1,14,-1
 346 830 l 1,15,-1
 346 732 l 1,12,-1
EndSplineSet
EndChar

StartChar: edotaccent
Encoding: 279 279 207
Width: 535
Flags: MW
HStem: -10 21G<216.5 318.5> 222 59<151 386 151 476 151 386> 434 60<232.5 309.5> 568 21G<226 316 226 226> 646 20G<226 316 316 316>
LayerCount: 2
Fore
SplineSet
476 222 m 1,0,-1
 151 222 l 1,1,-1
 151 149 l 2,2,3
 151 98 151 98 187 76.5 c 128,-1,4
 223 55 223 55 294 55 c 0,5,6
 363 55 363 55 457 79 c 1,7,-1
 457 10 l 1,8,9
 367 -10 367 -10 282 -10 c 0,10,11
 60 -10 60 -10 60 138 c 2,12,-1
 60 329 l 2,13,14
 60 418 60 418 111 456 c 128,-1,15
 162 494 162 494 274 494 c 0,16,17
 379 494 379 494 427.5 457.5 c 128,-1,18
 476 421 476 421 476 329 c 2,19,-1
 476 222 l 1,0,-1
386 281 m 1,20,-1
 386 357 l 2,21,22
 386 401 386 401 359 417.5 c 128,-1,23
 332 434 332 434 269 434 c 0,24,25
 209 434 209 434 180 418 c 128,-1,26
 151 402 151 402 151 357 c 2,27,-1
 151 281 l 1,28,-1
 386 281 l 1,20,-1
316 568 m 1,29,-1
 226 568 l 1,30,-1
 226 666 l 1,31,-1
 316 666 l 1,32,-1
 316 568 l 1,29,-1
EndSplineSet
Substitution2: "'smcp' Lowercase to Small Capitals in Latin lookup 21 subtable" edotaccent.smcp
Substitution2: "'c2sc' Capitals to Small Capitals in Latin lookup 20 subtable" edotaccent.smcp
EndChar

StartChar: Eogonek
Encoding: 280 280 208
Width: 580
Flags: MW
HStem: -186 21G<405.5 444.5> 0 21G<84 374 84 84 449 449 449 530> 629 20G<84 520 520 520>
LayerCount: 2
Fore
SplineSet
437 -186 m 0,0,1
 388 -186 388 -186 363 -167.5 c 128,-1,2
 338 -149 338 -149 338 -106 c 0,3,4
 338 -56 338 -56 374 0 c 1,5,-1
 84 0 l 1,6,-1
 84 649 l 1,7,-1
 520 649 l 1,8,-1
 520 581 l 1,9,-1
 181 581 l 1,10,-1
 181 369 l 1,11,-1
 487 369 l 1,12,-1
 487 301 l 1,13,-1
 181 301 l 1,14,-1
 181 68 l 1,15,-1
 530 68 l 1,16,-1
 530 0 l 1,17,-1
 449 0 l 1,18,19
 417 -50 417 -50 417 -97 c 0,20,21
 417 -130 417 -130 456 -130 c 0,22,23
 464 -130 464 -130 487 -123 c 1,24,-1
 487 -176 l 1,25,26
 466 -186 466 -186 437 -186 c 0,0,1
EndSplineSet
EndChar

StartChar: eogonek
Encoding: 281 281 209
Width: 535
Flags: MW
HStem: -186 21G<321.5 360.5> -10 21G<213.5 270 270 283> 222 59<151 386 151 476 151 386> 434 60<234.5 311>
LayerCount: 2
Fore
SplineSet
353 -186 m 0,0,1
 304 -186 304 -186 279 -167.5 c 128,-1,2
 254 -149 254 -149 254 -106 c 0,3,4
 254 -58 254 -58 283 -10 c 1,5,-1
 270 -10 l 2,6,7
 177 -10 177 -10 118.5 25.5 c 128,-1,8
 60 61 60 61 60 138 c 2,9,-1
 60 329 l 2,10,11
 60 418 60 418 111 456 c 128,-1,12
 162 494 162 494 274 494 c 0,13,14
 379 494 379 494 427.5 457.5 c 128,-1,15
 476 421 476 421 476 329 c 2,16,-1
 476 222 l 1,17,-1
 151 222 l 1,18,-1
 151 149 l 2,19,20
 151 98 151 98 187.5 76.5 c 128,-1,21
 224 55 224 55 298 55 c 0,22,23
 363 55 363 55 457 79 c 1,24,-1
 457 10 l 1,25,26
 403 -2 403 -2 361 -6 c 1,27,28
 333 -53 333 -53 333 -97 c 0,29,30
 333 -130 333 -130 372 -130 c 0,31,32
 380 -130 380 -130 403 -123 c 1,33,-1
 403 -176 l 1,34,35
 382 -186 382 -186 353 -186 c 0,0,1
386 281 m 1,36,-1
 386 357 l 2,37,38
 386 401 386 401 359.5 417.5 c 128,-1,39
 333 434 333 434 272 434 c 0,40,41
 210 434 210 434 180.5 418.5 c 128,-1,42
 151 403 151 403 151 357 c 2,43,-1
 151 281 l 1,44,-1
 386 281 l 1,36,-1
EndSplineSet
Substitution2: "'smcp' Lowercase to Small Capitals in Latin lookup 21 subtable" eogonek.smcp
Substitution2: "'c2sc' Capitals to Small Capitals in Latin lookup 20 subtable" eogonek.smcp
EndChar

StartChar: Ecaron
Encoding: 282 282 210
Width: 580
Flags: MW
HStem: 0 21G<84 530 84 84> 629 20G<84 520 520 520> 683 20G<249 249 249 356> 810 20G<181 239 239 239 364 422 422 422>
LayerCount: 2
Fore
SplineSet
530 0 m 1,0,-1
 84 0 l 1,1,-1
 84 649 l 1,2,-1
 520 649 l 1,3,-1
 520 581 l 1,4,-1
 181 581 l 1,5,-1
 181 369 l 1,6,-1
 487 369 l 1,7,-1
 487 301 l 1,8,-1
 181 301 l 1,9,-1
 181 68 l 1,10,-1
 530 68 l 1,11,-1
 530 0 l 1,0,-1
249 703 m 1,12,-1
 181 830 l 1,13,-1
 239 830 l 1,14,-1
 302 743 l 1,15,-1
 364 830 l 1,16,-1
 422 830 l 1,17,-1
 356 703 l 1,18,-1
 249 703 l 1,12,-1
EndSplineSet
EndChar

StartChar: ecaron
Encoding: 283 283 211
Width: 535
Flags: MW
HStem: -10 21G<216.5 318.5> 222 59<151 386 151 476 151 386> 434 60<232.5 309.5> 553 21G<218 218 218 325> 660 20G<150 208 208 208 333 391 391 391>
LayerCount: 2
Fore
SplineSet
476 222 m 1,0,-1
 151 222 l 1,1,-1
 151 149 l 2,2,3
 151 98 151 98 187 76.5 c 128,-1,4
 223 55 223 55 294 55 c 0,5,6
 363 55 363 55 457 79 c 1,7,-1
 457 10 l 1,8,9
 367 -10 367 -10 282 -10 c 0,10,11
 60 -10 60 -10 60 138 c 2,12,-1
 60 329 l 2,13,14
 60 418 60 418 111 456 c 128,-1,15
 162 494 162 494 274 494 c 0,16,17
 379 494 379 494 427.5 457.5 c 128,-1,18
 476 421 476 421 476 329 c 2,19,-1
 476 222 l 1,0,-1
386 281 m 1,20,-1
 386 357 l 2,21,22
 386 401 386 401 359 417.5 c 128,-1,23
 332 434 332 434 269 434 c 0,24,25
 209 434 209 434 180 418 c 128,-1,26
 151 402 151 402 151 357 c 2,27,-1
 151 281 l 1,28,-1
 386 281 l 1,20,-1
218 553 m 1,29,-1
 150 680 l 1,30,-1
 208 680 l 1,31,-1
 271 593 l 1,32,-1
 333 680 l 1,33,-1
 391 680 l 1,34,-1
 325 553 l 1,35,-1
 218 553 l 1,29,-1
EndSplineSet
Substitution2: "'smcp' Lowercase to Small Capitals in Latin lookup 21 subtable" ecaron.smcp
Substitution2: "'c2sc' Capitals to Small Capitals in Latin lookup 20 subtable" ecaron.smcp
EndChar

StartChar: gcircumflex
Encoding: 285 285 212
Width: 569
Flags: MW
HStem: -208 61 -10 60<223.5 283.5> 432 62<218 304.5 188.5 325> 464 20G<407 491 491 491> 553 21G<158 158 158 216 341 341 341 399> 660 20G<226 333 333 333>
LayerCount: 2
Fore
SplineSet
491 484 m 1,0,-1
 491 -46 l 2,1,2
 491 -149 491 -149 433.5 -184.5 c 128,-1,3
 376 -220 376 -220 261 -220 c 0,4,5
 158 -220 158 -220 94 -209 c 1,6,-1
 94 -145 l 1,7,8
 209 -159 209 -159 269 -159 c 0,9,10
 338 -159 338 -159 369.5 -137 c 128,-1,11
 401 -115 401 -115 401 -64 c 2,12,-1
 401 52 l 1,13,14
 399 18 399 18 354.5 4 c 128,-1,15
 310 -10 310 -10 253 -10 c 0,16,17
 141 -10 141 -10 100.5 23 c 128,-1,18
 60 56 60 56 60 137 c 2,19,-1
 60 334 l 2,20,21
 60 420 60 420 106.5 457 c 128,-1,22
 153 494 153 494 259 494 c 0,23,24
 385 494 385 494 407 437 c 1,25,-1
 407 484 l 1,26,-1
 491 484 l 1,0,-1
401 131 m 2,27,-1
 401 350 l 2,28,29
 401 397 401 397 375.5 414.5 c 128,-1,30
 350 432 350 432 270 432 c 0,31,32
 195 432 195 432 172 415 c 128,-1,33
 149 398 149 398 149 350 c 2,34,-1
 149 131 l 2,35,36
 149 81 149 81 173.5 65.5 c 128,-1,37
 198 50 198 50 272 50 c 0,38,39
 340 50 340 50 370.5 66.5 c 128,-1,40
 401 83 401 83 401 131 c 2,27,-1
158 553 m 1,41,-1
 226 680 l 1,42,-1
 333 680 l 1,43,-1
 399 553 l 1,44,-1
 341 553 l 1,45,-1
 279 640 l 1,46,-1
 216 553 l 1,47,-1
 158 553 l 1,41,-1
EndSplineSet
Substitution2: "'smcp' Lowercase to Small Capitals in Latin lookup 21 subtable" gcircumflex.smcp
Substitution2: "'c2sc' Capitals to Small Capitals in Latin lookup 20 subtable" gcircumflex.smcp
Substitution2: "'ss02' Style Set 2 in Latin lookup 3 subtable" gcircumflex.alt
EndChar

StartChar: gbreve
Encoding: 287 287 213
Width: 569
Flags: MW
HStem: -208 61 -10 60<223.5 283.5> 432 62<218 304.5 188.5 325> 464 20G<407 491 491 491> 553 59<244 286 244 302> 660 20G<147 201 201 201 329 383 383 383>
LayerCount: 2
Fore
SplineSet
491 484 m 1,0,-1
 491 -46 l 2,1,2
 491 -149 491 -149 433.5 -184.5 c 128,-1,3
 376 -220 376 -220 261 -220 c 0,4,5
 158 -220 158 -220 94 -209 c 1,6,-1
 94 -145 l 1,7,8
 209 -159 209 -159 269 -159 c 0,9,10
 338 -159 338 -159 369.5 -137 c 128,-1,11
 401 -115 401 -115 401 -64 c 2,12,-1
 401 52 l 1,13,14
 399 18 399 18 354.5 4 c 128,-1,15
 310 -10 310 -10 253 -10 c 0,16,17
 141 -10 141 -10 100.5 23 c 128,-1,18
 60 56 60 56 60 137 c 2,19,-1
 60 334 l 2,20,21
 60 420 60 420 106.5 457 c 128,-1,22
 153 494 153 494 259 494 c 0,23,24
 385 494 385 494 407 437 c 1,25,-1
 407 484 l 1,26,-1
 491 484 l 1,0,-1
401 131 m 2,27,-1
 401 350 l 2,28,29
 401 397 401 397 375.5 414.5 c 128,-1,30
 350 432 350 432 270 432 c 0,31,32
 195 432 195 432 172 415 c 128,-1,33
 149 398 149 398 149 350 c 2,34,-1
 149 131 l 2,35,36
 149 81 149 81 173.5 65.5 c 128,-1,37
 198 50 198 50 272 50 c 0,38,39
 340 50 340 50 370.5 66.5 c 128,-1,40
 401 83 401 83 401 131 c 2,27,-1
265 553 m 128,-1,42
 211 553 211 553 180 587.5 c 128,-1,43
 149 622 149 622 147 680 c 1,44,-1
 201 680 l 1,45,46
 207 612 207 612 265 612 c 128,-1,47
 323 612 323 612 329 680 c 1,48,-1
 383 680 l 1,49,50
 381 622 381 622 350 587.5 c 128,-1,41
 319 553 319 553 265 553 c 128,-1,42
EndSplineSet
Substitution2: "'smcp' Lowercase to Small Capitals in Latin lookup 21 subtable" gbreve.smcp
Substitution2: "'c2sc' Capitals to Small Capitals in Latin lookup 20 subtable" gbreve.smcp
Substitution2: "'ss02' Style Set 2 in Latin lookup 3 subtable" gbreve.alt
EndChar

